<?xml version="1.0" encoding="UTF-8"?>
<svg xmlns="http://www.w3.org/2000/svg" xmlns:xlink="http://www.w3.org/1999/xlink" width="279.78pt" height="175.46pt" viewBox="0 0 279.78 175.46" version="1.2">
<defs>
<g>
<symbol overflow="visible" id="glyph0-0">
<path style="stroke:none;" d=""/>
</symbol>
<symbol overflow="visible" id="glyph0-1">
<path style="stroke:none;" d="M 3.19 3.98 C 3.19 3.03 2.39 2.23 1.38 2.23 C 0.45 2.23 -0.34 3.03 -0.34 3.95 C -0.34 4.95 0.42 5.78 1.38 5.78 C 2.36 5.78 3.19 4.95 3.19 3.98 Z M 3.19 3.98 "/>
</symbol>
<symbol overflow="visible" id="glyph1-0">
<path style="stroke:none;" d=""/>
</symbol>
<symbol overflow="visible" id="glyph1-1">
<path style="stroke:none;" d="M 8.33 -2.36 L 7.94 -2.36 C 7.27 -0.88 6.64 -0.53 4.64 -0.52 L 4.27 -0.52 C 2.81 -0.56 2.8 -0.58 2.8 -1.11 L 2.8 -4.56 L 4.95 -4.56 C 6.12 -4.53 6.31 -4.38 6.48 -3.22 L 6.81 -3.22 L 6.81 -6.45 L 6.48 -6.45 C 6.33 -5.33 6.12 -5.16 4.95 -5.14 L 2.8 -5.14 L 2.8 -8.23 C 2.81 -8.66 2.88 -8.7 3.27 -8.7 L 5.16 -8.7 C 6.77 -8.67 7.05 -8.48 7.27 -7.23 L 7.62 -7.23 L 7.58 -9.23 L 0.17 -9.23 L 0.17 -8.97 C 1.19 -8.91 1.36 -8.72 1.38 -7.72 L 1.38 -1.52 C 1.36 -0.52 1.17 -0.33 0.17 -0.27 L 0.17 0 L 7.7 0 Z M 8.33 -2.36 "/>
</symbol>
<symbol overflow="visible" id="glyph1-2">
<path style="stroke:none;" d="M 3.88 0 L 6.69 0 L 6.69 -0.2 C 6.25 -0.2 5.97 -0.44 5.55 -1.05 L 3.75 -3.78 L 4.91 -5.45 C 5.17 -5.83 5.58 -6.05 6.05 -6.06 L 6.05 -6.28 L 3.84 -6.28 L 3.84 -6.06 C 4.25 -6.05 4.39 -5.95 4.39 -5.77 C 4.39 -5.59 4.23 -5.28 3.88 -4.86 C 3.81 -4.77 3.64 -4.52 3.45 -4.23 L 3.34 -4.41 C 3.14 -4.73 3.02 -4.91 2.98 -4.97 C 2.72 -5.41 2.62 -5.62 2.62 -5.77 C 2.62 -5.97 2.8 -6.06 3.22 -6.06 L 3.22 -6.28 L 0.33 -6.28 L 0.33 -6.06 L 0.45 -6.06 C 0.88 -6.06 1.11 -5.89 1.53 -5.23 L 2.84 -3.22 L 1.25 -0.92 C 0.84 -0.34 0.7 -0.25 0.23 -0.2 L 0.23 0 L 2.27 0 L 2.27 -0.2 C 1.86 -0.2 1.7 -0.28 1.7 -0.45 C 1.7 -0.56 1.78 -0.73 1.98 -1.03 L 3.08 -2.75 L 4.36 -0.8 C 4.41 -0.72 4.44 -0.64 4.44 -0.55 C 4.44 -0.3 4.34 -0.23 3.88 -0.2 Z M 3.88 0 "/>
</symbol>
<symbol overflow="visible" id="glyph1-3">
<path style="stroke:none;" d="M 0.06 3.03 L 3.45 3.03 L 3.45 2.78 C 2.41 2.77 2.23 2.62 2.22 1.73 L 2.22 -0.45 C 2.72 0 3.05 0.14 3.62 0.14 C 5.28 0.14 6.56 -1.42 6.56 -3.45 C 6.56 -5.17 5.58 -6.42 4.23 -6.42 C 3.45 -6.42 2.83 -6.08 2.22 -5.31 L 2.22 -6.39 L 2.14 -6.42 C 1.38 -6.12 0.89 -5.94 0.12 -5.7 L 0.12 -5.48 C 0.25 -5.5 0.33 -5.5 0.47 -5.5 C 0.95 -5.5 1.05 -5.36 1.05 -4.7 L 1.05 1.83 C 1.05 2.56 0.89 2.7 0.06 2.8 Z M 2.22 -4.66 C 2.22 -5.08 3 -5.58 3.64 -5.58 C 4.67 -5.58 5.36 -4.52 5.36 -2.89 C 5.36 -1.36 4.67 -0.31 3.67 -0.31 C 3.02 -0.31 2.22 -0.81 2.22 -1.23 Z M 2.22 -4.66 "/>
</symbol>
<symbol overflow="visible" id="glyph1-4">
<path style="stroke:none;" d="M 3.48 -6.42 C 1.66 -6.42 0.41 -5.08 0.41 -3.16 C 0.41 -1.25 1.7 0.14 3.45 0.14 C 5.22 0.14 6.56 -1.33 6.56 -3.27 C 6.56 -5.11 5.28 -6.42 3.48 -6.42 Z M 3.31 -6.03 C 4.48 -6.03 5.3 -4.69 5.3 -2.78 C 5.3 -1.19 4.67 -0.25 3.62 -0.25 C 3.08 -0.25 2.56 -0.59 2.28 -1.14 C 1.89 -1.88 1.66 -2.84 1.66 -3.84 C 1.66 -5.16 2.3 -6.03 3.31 -6.03 Z M 3.31 -6.03 "/>
</symbol>
<symbol overflow="visible" id="glyph1-5">
<path style="stroke:none;" d="M 0.25 0 L 3.2 0 L 3.2 -0.2 C 2.52 -0.25 2.28 -0.44 2.28 -0.94 L 2.28 -4.86 C 2.95 -5.48 3.27 -5.66 3.72 -5.66 C 4.41 -5.66 4.75 -5.22 4.75 -4.3 L 4.75 -1.38 C 4.72 -0.47 4.55 -0.25 3.86 -0.2 L 3.86 0 L 6.77 0 L 6.77 -0.2 C 6.08 -0.28 5.94 -0.45 5.92 -1.12 L 5.92 -4.33 C 5.92 -5.64 5.3 -6.42 4.27 -6.42 C 3.62 -6.42 3.19 -6.19 2.25 -5.28 L 2.25 -6.39 L 2.16 -6.42 C 1.42 -6.16 0.95 -6 0.22 -5.8 L 0.22 -5.55 C 0.33 -5.59 0.45 -5.61 0.59 -5.61 C 0.98 -5.61 1.11 -5.41 1.11 -4.72 L 1.11 -1.25 C 1.11 -0.44 0.95 -0.25 0.25 -0.2 Z M 0.25 0 "/>
</symbol>
<symbol overflow="visible" id="glyph1-6">
<path style="stroke:none;" d="M 5.69 -2.28 C 5.02 -1.23 4.42 -0.83 3.53 -0.83 C 2.73 -0.83 2.14 -1.23 1.73 -2.02 C 1.48 -2.55 1.38 -3 1.36 -3.86 L 5.66 -3.86 C 5.55 -4.77 5.41 -5.17 5.05 -5.62 C 4.62 -6.12 3.98 -6.42 3.27 -6.42 C 2.56 -6.42 1.91 -6.17 1.38 -5.69 C 0.72 -5.12 0.34 -4.12 0.34 -2.98 C 0.34 -1.06 1.36 0.14 2.95 0.14 C 4.28 0.14 5.33 -0.69 5.92 -2.19 Z M 1.38 -4.31 C 1.53 -5.41 2.02 -5.92 2.86 -5.92 C 3.72 -5.92 4.05 -5.53 4.23 -4.31 Z M 1.38 -4.31 "/>
</symbol>
<symbol overflow="visible" id="glyph1-7">
<path style="stroke:none;" d="M 3.56 -6.28 L 2.16 -6.28 L 2.16 -7.89 C 2.16 -8.03 2.12 -8.08 2.05 -8.08 C 1.23 -6.91 0.83 -6.44 0.42 -6.19 C 0.27 -6.09 0.19 -6.02 0.19 -5.94 C 0.19 -5.89 0.2 -5.86 0.23 -5.83 L 0.98 -5.83 L 0.98 -1.62 C 0.98 -0.45 1.39 0.14 2.22 0.14 C 2.91 0.14 3.44 -0.2 3.89 -0.92 L 3.72 -1.08 C 3.41 -0.72 3.19 -0.59 2.88 -0.59 C 2.36 -0.59 2.16 -0.97 2.16 -1.84 L 2.16 -5.83 L 3.56 -5.83 Z M 3.56 -6.28 "/>
</symbol>
<symbol overflow="visible" id="glyph1-8">
<path style="stroke:none;" d="M 0.22 0 L 3.53 0 L 3.53 -0.2 C 2.61 -0.28 2.52 -0.41 2.5 -1.42 L 2.5 -6.38 L 2.44 -6.42 L 0.28 -5.66 L 0.28 -5.44 L 0.39 -5.45 C 0.56 -5.48 0.72 -5.5 0.86 -5.5 C 1.2 -5.5 1.33 -5.28 1.33 -4.66 L 1.33 -1.42 C 1.3 -0.39 1.17 -0.25 0.22 -0.2 Z M 1.78 -9.53 C 1.41 -9.53 1.09 -9.2 1.09 -8.81 C 1.09 -8.41 1.39 -8.11 1.78 -8.11 C 2.2 -8.11 2.52 -8.41 2.52 -8.81 C 2.52 -9.22 2.19 -9.53 1.78 -9.53 Z M 1.78 -9.53 "/>
</symbol>
<symbol overflow="visible" id="glyph1-9">
<path style="stroke:none;" d="M 6.17 -0.92 C 5.94 -0.72 5.77 -0.66 5.55 -0.66 C 5.23 -0.66 5.14 -0.84 5.14 -1.47 L 5.14 -4.19 C 5.14 -4.91 5.06 -5.31 4.86 -5.66 C 4.55 -6.16 3.95 -6.42 3.12 -6.42 C 1.81 -6.42 0.78 -5.73 0.78 -4.86 C 0.78 -4.53 1.05 -4.25 1.38 -4.25 C 1.72 -4.25 2.02 -4.53 2.02 -4.84 C 2.02 -4.89 2 -4.97 1.98 -5.06 C 1.95 -5.19 1.94 -5.3 1.94 -5.41 C 1.94 -5.78 2.39 -6.08 2.94 -6.08 C 3.62 -6.08 4 -5.67 4 -4.92 L 4 -4.08 C 1.88 -3.22 1.62 -3.09 1.02 -2.56 C 0.72 -2.28 0.52 -1.81 0.52 -1.36 C 0.52 -0.47 1.12 0.14 1.98 0.14 C 2.59 0.14 3.17 -0.16 4.02 -0.88 C 4.09 -0.14 4.34 0.14 4.91 0.14 C 5.39 0.14 5.67 -0.03 6.17 -0.56 Z M 4 -1.72 C 4 -1.3 3.94 -1.14 3.64 -0.98 C 3.3 -0.78 2.92 -0.67 2.62 -0.67 C 2.14 -0.67 1.75 -1.14 1.75 -1.75 L 1.75 -1.8 C 1.77 -2.64 2.38 -3.17 4 -3.73 Z M 4 -1.72 "/>
</symbol>
<symbol overflow="visible" id="glyph1-10">
<path style="stroke:none;" d="M 0.3 0 L 3.59 0 L 3.59 -0.2 C 2.7 -0.25 2.55 -0.39 2.55 -1.17 L 2.55 -9.5 L 2.48 -9.53 C 1.77 -9.31 1.25 -9.16 0.27 -8.92 L 0.27 -8.69 L 0.34 -8.69 C 0.5 -8.7 0.67 -8.72 0.78 -8.72 C 1.23 -8.72 1.38 -8.53 1.38 -7.88 L 1.38 -1.22 C 1.36 -0.45 1.16 -0.27 0.3 -0.2 Z M 0.3 0 "/>
</symbol>
<symbol overflow="visible" id="glyph1-11">
<path style="stroke:none;" d="M 9.89 -4.94 L 6.33 -4.94 L 6.33 -4.69 C 7.42 -4.62 7.53 -4.5 7.56 -3.45 L 7.56 -1.19 C 7.56 -0.73 6.72 -0.36 5.7 -0.36 C 3.44 -0.36 2.03 -1.95 2.03 -4.55 C 2.03 -5.86 2.42 -7.12 3.05 -7.81 C 3.64 -8.5 4.52 -8.88 5.47 -8.88 C 6.25 -8.88 6.95 -8.61 7.48 -8.11 C 7.89 -7.7 8.12 -7.34 8.47 -6.48 L 8.8 -6.48 L 8.67 -9.44 L 8.38 -9.44 C 8.28 -9.16 8.03 -8.97 7.75 -8.97 C 7.61 -8.97 7.38 -9.02 7.12 -9.11 C 6.5 -9.33 5.84 -9.44 5.22 -9.44 C 2.44 -9.44 0.45 -7.38 0.45 -4.53 C 0.45 -3.17 0.83 -2.12 1.61 -1.3 C 2.53 -0.33 3.88 0.2 5.41 0.2 C 6.62 0.2 8.36 -0.3 8.92 -0.78 L 8.92 -3.61 C 8.94 -4.47 9.09 -4.62 9.89 -4.69 Z M 9.89 -4.94 "/>
</symbol>
<symbol overflow="visible" id="glyph1-12">
<path style="stroke:none;" d="M 0.06 0 L 3.42 0 L 3.42 -0.2 C 2.48 -0.23 2.27 -0.44 2.23 -1.25 L 2.23 -4.39 C 2.23 -4.84 2.81 -5.55 3.2 -5.55 C 3.3 -5.55 3.42 -5.47 3.58 -5.33 C 3.78 -5.12 3.95 -5.05 4.12 -5.05 C 4.47 -5.05 4.67 -5.28 4.67 -5.67 C 4.67 -6.14 4.38 -6.42 3.91 -6.42 C 3.33 -6.42 2.94 -6.11 2.23 -5.11 L 2.23 -6.39 L 2.16 -6.42 C 1.38 -6.11 0.88 -5.92 0.09 -5.67 L 0.09 -5.44 C 0.3 -5.48 0.42 -5.5 0.59 -5.5 C 0.94 -5.5 1.06 -5.28 1.06 -4.66 L 1.06 -1.17 C 1.03 -0.45 0.95 -0.36 0.06 -0.2 Z M 0.06 0 "/>
</symbol>
<symbol overflow="visible" id="glyph1-13">
<path style="stroke:none;" d="M 7.97 -6.28 L 7.97 -6.06 C 8.44 -5.97 8.58 -5.88 8.58 -5.64 C 8.58 -5.42 8.5 -5.09 8.34 -4.72 L 7.09 -1.62 L 5.92 -4.75 C 5.67 -5.39 5.67 -5.39 5.67 -5.56 C 5.67 -5.88 5.83 -5.97 6.48 -6.06 L 6.48 -6.28 L 3.66 -6.28 L 3.66 -6.06 C 4.17 -6.02 4.34 -5.84 4.62 -5.11 C 4.69 -4.91 4.81 -4.56 4.89 -4.33 L 3.62 -1.55 L 2.25 -5.19 C 2.19 -5.33 2.16 -5.47 2.16 -5.61 C 2.16 -5.91 2.31 -6.02 2.8 -6.06 L 2.8 -6.28 L 0.3 -6.28 L 0.3 -6.06 C 0.61 -6.05 0.72 -5.91 1.03 -5.19 L 2.92 -0.42 C 3.08 0.02 3.19 0.2 3.28 0.2 C 3.34 0.2 3.45 0.03 3.62 -0.34 L 5.19 -3.7 L 6.45 -0.41 C 6.67 0.12 6.7 0.2 6.8 0.2 C 6.89 0.2 6.97 0.06 7.19 -0.48 L 9.11 -5.31 C 9.36 -5.91 9.41 -5.97 9.69 -6.06 L 9.69 -6.28 Z M 7.97 -6.28 "/>
</symbol>
<symbol overflow="visible" id="glyph1-14">
<path style="stroke:none;" d="M 6.8 -0.2 C 6.05 -0.33 5.97 -0.44 5.95 -1.42 L 5.95 -4.2 C 5.95 -5.67 5.39 -6.42 4.23 -6.42 C 3.42 -6.42 2.83 -6.08 2.19 -5.25 L 2.19 -9.48 L 2.12 -9.53 C 1.62 -9.36 1.28 -9.25 0.52 -9.03 L 0.14 -8.92 L 0.14 -8.69 C 0.2 -8.7 0.22 -8.7 0.31 -8.7 C 0.91 -8.7 1.02 -8.59 1.02 -8 L 1.02 -1.42 C 0.98 -0.42 0.92 -0.31 0.12 -0.2 L 0.12 0 L 3.14 0 L 3.14 -0.2 C 2.33 -0.28 2.22 -0.44 2.19 -1.42 L 2.19 -4.78 C 2.78 -5.42 3.19 -5.67 3.75 -5.67 C 4.44 -5.67 4.78 -5.16 4.78 -4.19 L 4.78 -1.42 C 4.77 -0.44 4.62 -0.28 3.84 -0.2 L 3.84 0 L 6.8 0 Z M 6.8 -0.2 "/>
</symbol>
</g>
<clipPath id="clip1">
  <path d="M 125.53 114.38 L 163 114.38 L 163 150.87 L 125.53 150.87 Z M 125.53 114.38 "/>
</clipPath>
<clipPath id="clip2">
  <path d="M 0.32 126 L 16 126 L 16 141 L 0.32 141 Z M 0.32 126 "/>
</clipPath>
<clipPath id="clip3">
  <path d="M 0.32 114 L 27 114 L 27 153 L 0.32 153 Z M 0.32 114 "/>
</clipPath>
<clipPath id="clip4">
  <path d="M 190 0 L 213 0 L 213 174.93 L 190 174.93 Z M 190 0 "/>
</clipPath>
<clipPath id="clip5">
  <path d="M 188 157 L 214 157 L 214 174.93 L 188 174.93 Z M 188 157 "/>
</clipPath>
<clipPath id="clip6">
  <path d="M 265 73 L 279.24 73 L 279.24 84 L 265 84 Z M 265 73 "/>
</clipPath>
</defs>
<g id="surface1">
<path style="fill-rule:nonzero;fill:rgb(89.02%,89.02%,100%);fill-opacity:1;stroke-width:0.8;stroke-linecap:butt;stroke-linejoin:miter;stroke:rgb(0%,0%,100%);stroke-opacity:1;stroke-miterlimit:10;" d="M 68.16 133.86 C 68.16 129.74 64.81 126.39 60.69 126.39 C 56.56 126.39 53.21 129.74 53.21 133.86 C 53.21 137.99 56.56 141.34 60.69 141.34 C 64.81 141.34 68.16 137.99 68.16 133.86 Z M 68.16 133.86 " transform="matrix(1,0,0,1,0.32,0)"/>
<path style="fill-rule:nonzero;fill:rgb(89.02%,89.02%,100%);fill-opacity:1;stroke-width:0.8;stroke-linecap:butt;stroke-linejoin:miter;stroke:rgb(0%,0%,100%);stroke-opacity:1;stroke-miterlimit:10;" d="M 83.12 63.55 C 83.12 59.42 79.77 56.07 75.65 56.07 C 71.52 56.07 68.18 59.42 68.18 63.55 C 68.18 67.67 71.52 71.02 75.65 71.02 C 79.77 71.02 83.12 67.67 83.12 63.55 Z M 83.12 63.55 " transform="matrix(1,0,0,1,0.32,0)"/>
<path style="fill-rule:nonzero;fill:rgb(89.02%,89.02%,100%);fill-opacity:1;stroke-width:0.8;stroke-linecap:butt;stroke-linejoin:miter;stroke:rgb(0%,0%,100%);stroke-opacity:1;stroke-miterlimit:10;" d="M 109.75 63.54 C 109.75 59.42 106.41 56.07 102.28 56.07 C 98.15 56.07 94.81 59.42 94.81 63.54 C 94.81 67.67 98.15 71.01 102.28 71.01 C 106.41 71.01 109.75 67.67 109.75 63.54 Z M 109.75 63.54 " transform="matrix(1,0,0,1,0.32,0)"/>
<path style=" stroke:none;fill-rule:nonzero;fill:rgb(89.02%,100%,89.02%);fill-opacity:1;" d="M 151.72 133.17 C 151.72 129.05 148.39 125.72 144.27 125.72 C 140.16 125.72 136.82 129.05 136.82 133.17 C 136.82 137.29 140.16 140.62 144.27 140.62 C 148.39 140.62 151.72 137.29 151.72 133.17 Z M 151.72 133.17 "/>
<path style=" stroke:none;fill-rule:nonzero;fill:rgb(89.02%,89.02%,100%);fill-opacity:1;" d="M 151.72 133.17 C 151.72 129.05 148.39 125.72 144.27 125.72 C 140.16 125.72 136.82 129.05 136.82 133.17 C 136.82 137.29 140.16 140.62 144.27 140.62 C 148.39 140.62 151.72 137.29 151.72 133.17 Z M 151.72 133.17 "/>
<g clip-path="url(#clip1)" clip-rule="nonzero">
<path style="fill:none;stroke-width:0.8;stroke-linecap:butt;stroke-linejoin:miter;stroke:rgb(0%,0%,100%);stroke-opacity:1;stroke-miterlimit:10;" d="M 151.87 -133.58 C 151.87 -129.45 148.52 -126.11 144.39 -126.11 C 140.27 -126.11 136.92 -129.45 136.92 -133.58 C 136.92 -137.7 140.27 -141.05 144.39 -141.05 C 148.52 -141.05 151.87 -137.7 151.87 -133.58 Z M 151.87 -133.58 " transform="matrix(1,0,0,-1,0.32,0)"/>
</g>
<path style="fill-rule:nonzero;fill:rgb(89.02%,89.02%,100%);fill-opacity:1;stroke-width:0.8;stroke-linecap:butt;stroke-linejoin:miter;stroke:rgb(0%,0%,100%);stroke-opacity:1;stroke-miterlimit:10;" d="M 97.93 133.57 C 97.93 129.45 94.58 126.11 90.46 126.11 C 86.33 126.11 82.98 129.45 82.98 133.57 C 82.98 137.7 86.33 141.05 90.46 141.05 C 94.58 141.05 97.93 137.7 97.93 133.57 Z M 97.93 133.57 " transform="matrix(1,0,0,1,0.32,0)"/>
<path style="fill-rule:nonzero;fill:rgb(89.02%,89.02%,100%);fill-opacity:1;stroke-width:0.8;stroke-linecap:butt;stroke-linejoin:miter;stroke:rgb(0%,0%,100%);stroke-opacity:1;stroke-miterlimit:10;" d="M 124.4 133.86 C 124.4 129.74 121.05 126.39 116.93 126.39 C 112.8 126.39 109.45 129.74 109.45 133.86 C 109.45 137.99 112.8 141.34 116.93 141.34 C 121.05 141.34 124.4 137.99 124.4 133.86 Z M 124.4 133.86 " transform="matrix(1,0,0,1,0.32,0)"/>
<g clip-path="url(#clip2)" clip-rule="nonzero">
<path style=" stroke:none;fill-rule:nonzero;fill:rgb(89.02%,89.02%,100%);fill-opacity:1;" d="M 15.61 133.46 C 15.61 129.34 12.27 126.01 8.16 126.01 C 4.05 126.01 0.71 129.34 0.71 133.46 C 0.71 137.57 4.05 140.91 8.16 140.91 C 12.27 140.91 15.61 137.57 15.61 133.46 Z M 15.61 133.46 "/>
</g>
<g clip-path="url(#clip3)" clip-rule="nonzero">
<path style="fill:none;stroke-width:0.8;stroke-linecap:butt;stroke-linejoin:miter;stroke:rgb(0%,0%,100%);stroke-opacity:1;stroke-miterlimit:10;" d="M 15.34 133.86 C 15.34 129.74 11.99 126.39 7.87 126.39 C 3.74 126.39 0.4 129.74 0.4 133.86 C 0.4 137.99 3.74 141.34 7.87 141.34 C 11.99 141.34 15.34 137.99 15.34 133.86 Z M 15.34 133.86 " transform="matrix(1,0,0,1,0.32,0)"/>
</g>
<path style="fill-rule:nonzero;fill:rgb(89.02%,89.02%,100%);fill-opacity:1;stroke-width:0.8;stroke-linecap:butt;stroke-linejoin:miter;stroke:rgb(0%,0%,100%);stroke-opacity:1;stroke-miterlimit:10;" d="M 41.63 133.86 C 41.63 129.74 38.29 126.39 34.16 126.39 C 30.03 126.39 26.68 129.74 26.68 133.86 C 26.68 137.99 30.03 141.34 34.16 141.34 C 38.29 141.34 41.63 137.99 41.63 133.86 Z M 41.63 133.86 " transform="matrix(1,0,0,1,0.32,0)"/>
<path style="fill-rule:nonzero;fill:rgb(89.02%,89.02%,100%);fill-opacity:1;stroke-width:0.8;stroke-linecap:butt;stroke-linejoin:miter;stroke:rgb(0%,0%,100%);stroke-opacity:1;stroke-miterlimit:10;" d="M 95.92 7.87 C 95.92 3.75 92.58 0.4 88.45 0.4 C 84.32 0.4 80.98 3.75 80.98 7.87 C 80.98 12 84.32 15.34 88.45 15.34 C 92.58 15.34 95.92 12 95.92 7.87 Z M 95.92 7.87 " transform="matrix(1,0,0,1,0.32,0)"/>
<path style="fill-rule:nonzero;fill:rgb(65.88%,65.88%,65.88%);fill-opacity:1;stroke-width:1.42;stroke-linecap:butt;stroke-linejoin:miter;stroke:rgb(23.14%,23.14%,23.14%);stroke-opacity:1;stroke-miterlimit:4;" d="M 80.23 28.04 L 97.08 28.04 C 99.61 28.04 101.65 30.08 101.65 32.61 L 101.65 37.8 C 101.65 40.33 99.61 42.37 97.08 42.37 L 80.23 42.37 C 77.7 42.37 75.66 40.33 75.66 37.8 L 75.66 32.61 C 75.66 30.08 77.7 28.04 80.23 28.04 Z M 80.23 28.04 " transform="matrix(1,0,0,1,0.32,0)"/>
<path style="fill-rule:nonzero;fill:rgb(65.88%,65.88%,65.88%);fill-opacity:1;stroke-width:1.42;stroke-linecap:butt;stroke-linejoin:miter;stroke:rgb(23.14%,23.14%,23.14%);stroke-opacity:1;stroke-miterlimit:4;" d="M 25.64 98.19 L 42.49 98.19 C 45.02 98.19 47.06 100.23 47.06 102.76 L 47.06 107.95 C 47.06 110.48 45.02 112.52 42.49 112.52 L 25.64 112.52 C 23.11 112.52 21.06 110.48 21.06 107.95 L 21.06 102.76 C 21.06 100.23 23.11 98.19 25.64 98.19 Z M 25.64 98.19 " transform="matrix(1,0,0,1,0.32,0)"/>
<path style="fill-rule:nonzero;fill:rgb(0%,0%,0%);fill-opacity:1;stroke-width:1.42;stroke-linecap:butt;stroke-linejoin:miter;stroke:rgb(0%,0%,0%);stroke-opacity:1;stroke-miterlimit:4;" d="M 88.72 27.33 L 88.69 20.82 " transform="matrix(1,0,0,1,0.32,0)"/>
<path style="fill-rule:evenodd;fill:rgb(0%,0%,0%);fill-opacity:1;stroke-width:0.94;stroke-linecap:butt;stroke-linejoin:miter;stroke:rgb(0%,0%,0%);stroke-opacity:1;stroke-miterlimit:4;" d="M -17.15 88.59 L -23.28 92.13 L -23.28 85.04 Z M -17.15 88.59 " transform="matrix(-0,-1,1,-0,0.32,0)"/>
<path style="fill-rule:nonzero;fill:rgb(0%,0%,0%);fill-opacity:1;stroke-width:1.42;stroke-linecap:butt;stroke-linejoin:miter;stroke:rgb(0%,0%,0%);stroke-opacity:1;stroke-miterlimit:4;" d="M 75.63 54.76 L 77.15 48.05 " transform="matrix(1,0,0,1,0.32,0)"/>
<path style="fill-rule:evenodd;fill:rgb(0%,0%,0%);fill-opacity:1;stroke-width:0.92;stroke-linecap:butt;stroke-linejoin:miter;stroke:rgb(0%,0%,0%);stroke-opacity:1;stroke-miterlimit:4;" d="M -25.22 83.72 L -31.2 87.17 L -31.2 80.26 Z M -25.22 83.72 " transform="matrix(0.22,-1,1,0.22,0.32,0)"/>
<path style="fill-rule:nonzero;fill:rgb(0%,0%,0%);fill-opacity:1;stroke-width:1.42;stroke-linecap:butt;stroke-linejoin:miter;stroke:rgb(0%,0%,0%);stroke-opacity:1;stroke-miterlimit:4;" d="M 102.27 55.09 L 100.89 48.05 " transform="matrix(1,0,0,1,0.32,0)"/>
<path style="fill-rule:evenodd;fill:rgb(0%,0%,0%);fill-opacity:1;stroke-width:0.93;stroke-linecap:butt;stroke-linejoin:miter;stroke:rgb(0%,0%,0%);stroke-opacity:1;stroke-miterlimit:4;" d="M -61.35 88.03 L -67.36 91.51 L -67.36 84.56 Z M -61.35 88.03 " transform="matrix(-0.2,-1,1,-0.2,0.32,0)"/>
<path style="fill-rule:nonzero;fill:rgb(0%,0%,0%);fill-opacity:1;stroke-width:1.42;stroke-linecap:butt;stroke-linejoin:miter;stroke:rgb(0%,0%,0%);stroke-opacity:1;stroke-miterlimit:4;" d="M 9.09 125.46 L 18.4 115.59 " transform="matrix(1,0,0,1,0.32,0)"/>
<path style="fill-rule:evenodd;fill:rgb(0%,0%,0%);fill-opacity:1;stroke-width:0.69;stroke-linecap:butt;stroke-linejoin:miter;stroke:rgb(0%,0%,0%);stroke-opacity:1;stroke-miterlimit:4;" d="M -49.02 67.43 L -53.47 70.01 L -53.48 64.86 Z M -49.02 67.43 " transform="matrix(0.94,-1,1,0.94,0.32,0)"/>
<path style="fill-rule:nonzero;fill:rgb(0%,0%,0%);fill-opacity:1;stroke-width:1.42;stroke-linecap:butt;stroke-linejoin:miter;stroke:rgb(0%,0%,0%);stroke-opacity:1;stroke-miterlimit:4;" d="M 34.07 125.67 L 34.05 118.32 " transform="matrix(1,0,0,1,0.32,0)"/>
<path style="fill-rule:evenodd;fill:rgb(0%,0%,0%);fill-opacity:1;stroke-width:0.94;stroke-linecap:butt;stroke-linejoin:miter;stroke:rgb(0%,0%,0%);stroke-opacity:1;stroke-miterlimit:4;" d="M -114.31 33.78 L -120.44 37.32 L -120.44 30.24 Z M -114.31 33.78 " transform="matrix(-0,-1,1,-0,0.32,0)"/>
<path style="fill-rule:nonzero;fill:rgb(0%,0%,0%);fill-opacity:1;stroke-width:1.42;stroke-linecap:butt;stroke-linejoin:miter;stroke:rgb(0%,0%,0%);stroke-opacity:1;stroke-miterlimit:4;" d="M 58.91 125.46 L 49.57 115.55 " transform="matrix(1,0,0,1,0.32,0)"/>
<path style="fill-rule:evenodd;fill:rgb(0%,0%,0%);fill-opacity:1;stroke-width:0.69;stroke-linecap:butt;stroke-linejoin:miter;stroke:rgb(0%,0%,0%);stroke-opacity:1;stroke-miterlimit:4;" d="M -82.99 -31.41 L -87.45 -28.83 L -87.45 -33.99 Z M -82.99 -31.41 " transform="matrix(-0.94,-1,1,-0.94,0.32,0)"/>
<path style="fill-rule:nonzero;fill:rgb(89.02%,89.02%,100%);fill-opacity:1;stroke-width:0.8;stroke-linecap:butt;stroke-linejoin:miter;stroke:rgb(0%,0%,100%);stroke-opacity:1;stroke-miterlimit:10;" d="M 177.38 133.86 C 177.38 129.74 174.03 126.39 169.9 126.39 C 165.78 126.39 162.43 129.74 162.43 133.86 C 162.43 137.99 165.78 141.34 169.9 141.34 C 174.03 141.34 177.38 137.99 177.38 133.86 Z M 177.38 133.86 " transform="matrix(1,0,0,1,0.32,0)"/>
<path style="fill-rule:nonzero;fill:rgb(65.88%,65.88%,65.88%);fill-opacity:1;stroke-width:1.42;stroke-linecap:butt;stroke-linejoin:miter;stroke:rgb(23.14%,23.14%,23.14%);stroke-opacity:1;stroke-miterlimit:4;" d="M 121.71 98.19 L 138.56 98.19 C 141.09 98.19 143.13 100.23 143.13 102.76 L 143.13 107.95 C 143.13 110.48 141.09 112.52 138.56 112.52 L 121.71 112.52 C 119.18 112.52 117.14 110.48 117.14 107.95 L 117.14 102.76 C 117.14 100.23 119.18 98.19 121.71 98.19 Z M 121.71 98.19 " transform="matrix(1,0,0,1,0.32,0)"/>
<path style="fill-rule:nonzero;fill:rgb(0%,0%,0%);fill-opacity:1;stroke-width:1.42;stroke-linecap:butt;stroke-linejoin:miter;stroke:rgb(0%,0%,0%);stroke-opacity:1;stroke-miterlimit:4;" d="M 91.29 124.73 L 112.92 113.71 " transform="matrix(1,0,0,1,0.32,0)"/>
<path style="fill-rule:evenodd;fill:rgb(0%,0%,0%);fill-opacity:1;stroke-width:0.84;stroke-linecap:butt;stroke-linejoin:miter;stroke:rgb(0%,0%,0%);stroke-opacity:1;stroke-miterlimit:4;" d="M 47.29 135.95 L 41.83 139.11 L 41.83 132.79 Z M 47.29 135.95 " transform="matrix(1,-0.51,0.51,1,0.32,0)"/>
<path style="fill-rule:nonzero;fill:rgb(0%,0%,0%);fill-opacity:1;stroke-width:1.42;stroke-linecap:butt;stroke-linejoin:miter;stroke:rgb(0%,0%,0%);stroke-opacity:1;stroke-miterlimit:4;" d="M 117.75 125.16 L 123.68 117.25 " transform="matrix(1,0,0,1,0.32,0)"/>
<path style="fill-rule:evenodd;fill:rgb(0%,0%,0%);fill-opacity:1;stroke-width:0.76;stroke-linecap:butt;stroke-linejoin:miter;stroke:rgb(0%,0%,0%);stroke-opacity:1;stroke-miterlimit:4;" d="M -12.39 135.43 L -17.3 138.26 L -17.3 132.59 Z M -12.39 135.43 " transform="matrix(0.75,-1,1,0.75,0.32,0)"/>
<path style="fill-rule:nonzero;fill:rgb(0%,0%,0%);fill-opacity:1;stroke-width:1.42;stroke-linecap:butt;stroke-linejoin:miter;stroke:rgb(0%,0%,0%);stroke-opacity:1;stroke-miterlimit:4;" d="M 142.54 125.43 L 136.86 117.4 " transform="matrix(1,0,0,1,0.32,0)"/>
<path style="fill-rule:evenodd;fill:rgb(0%,0%,0%);fill-opacity:1;stroke-width:0.77;stroke-linecap:butt;stroke-linejoin:miter;stroke:rgb(0%,0%,0%);stroke-opacity:1;stroke-miterlimit:4;" d="M -139.43 35.86 L -144.44 38.75 L -144.44 32.96 Z M -139.43 35.86 " transform="matrix(-0.71,-1,1,-0.71,0.32,0)"/>
<path style="fill-rule:nonzero;fill:rgb(0%,0%,0%);fill-opacity:1;stroke-width:1.42;stroke-linecap:butt;stroke-linejoin:miter;stroke:rgb(0%,0%,0%);stroke-opacity:1;stroke-miterlimit:4;" d="M 167.35 125.57 L 146.93 114.12 " transform="matrix(1,0,0,1,0.32,0)"/>
<path style="fill-rule:evenodd;fill:rgb(0%,0%,0%);fill-opacity:1;stroke-width:0.82;stroke-linecap:butt;stroke-linejoin:miter;stroke:rgb(0%,0%,0%);stroke-opacity:1;stroke-miterlimit:4;" d="M -156.92 -24.19 L -162.27 -21.1 L -162.26 -27.28 Z M -156.92 -24.19 " transform="matrix(-1,-0.56,0.56,-1,0.32,0)"/>
<path style="fill-rule:nonzero;fill:rgb(89.02%,100%,89.02%);fill-opacity:1;stroke-width:1.42;stroke-linecap:butt;stroke-linejoin:miter;stroke:rgb(0%,0%,0%);stroke-opacity:1;stroke-miterlimit:4;" d="M 36.47 96.74 L 69.6 74.44 " transform="matrix(1,0,0,1,0.32,0)"/>
<path style="fill-rule:evenodd;fill:rgb(0%,0%,0%);fill-opacity:1;stroke-width:0.78;stroke-linecap:butt;stroke-linejoin:miter;stroke:rgb(0%,0%,0%);stroke-opacity:1;stroke-miterlimit:4;" d="M 16.81 83.47 L 11.72 86.41 L 11.72 80.53 Z M 16.81 83.47 " transform="matrix(1,-0.67,0.67,1,0.32,0)"/>
<path style="fill-rule:nonzero;fill:rgb(89.02%,100%,89.02%);fill-opacity:1;stroke-width:1.42;stroke-linecap:butt;stroke-linejoin:miter;stroke:rgb(0%,0%,0%);stroke-opacity:1;stroke-miterlimit:4;" d="M 129.31 96.64 L 110.73 74.39 " transform="matrix(1,0,0,1,0.32,0)"/>
<path style="fill-rule:evenodd;fill:rgb(0%,0%,0%);fill-opacity:1;stroke-width:0.73;stroke-linecap:butt;stroke-linejoin:miter;stroke:rgb(0%,0%,0%);stroke-opacity:1;stroke-miterlimit:4;" d="M -95.17 28.66 L -99.88 31.38 L -99.88 25.94 Z M -95.17 28.66 " transform="matrix(-0.83,-1,1,-0.83,0.32,0)"/>
<g style="fill:rgb(0%,1.96%,0%);fill-opacity:1;">
  <use xlink:href="#glyph0-1" x="87.09" y="146.52"/>
  <use xlink:href="#glyph0-1" x="87.09" y="154.5"/>
  <use xlink:href="#glyph0-1" x="87.09" y="162.48"/>
</g>
<path style=" stroke:none;fill-rule:nonzero;fill:rgb(0%,0%,100%);fill-opacity:1;" d="M 201.26 1.5 L 201.31 167.67 "/>
<g clip-path="url(#clip4)" clip-rule="nonzero">
<path style="fill:none;stroke-width:1.98;stroke-linecap:butt;stroke-linejoin:miter;stroke:rgb(0%,0%,100%);stroke-opacity:1;stroke-miterlimit:4;" d="M 201.56 1.5 L 201.61 168.18 " transform="matrix(1,0,0,1,0.32,0)"/>
</g>
<path style=" stroke:none;fill-rule:evenodd;fill:rgb(0%,0%,100%);fill-opacity:1;" d="M 201.31 173.38 L 196.36 164.82 L 206.25 164.82 Z M 201.31 173.38 "/>
<g clip-path="url(#clip5)" clip-rule="nonzero">
<path style="fill:none;stroke-width:1.32;stroke-linecap:butt;stroke-linejoin:miter;stroke:rgb(0%,0%,100%);stroke-opacity:1;stroke-miterlimit:4;" d="M 173.97 -201.56 L 165.38 -196.6 L 165.38 -206.52 Z M 173.97 -201.56 " transform="matrix(0,1,-1,0,0.32,0)"/>
</g>
<g style="fill:rgb(0%,0%,100%);fill-opacity:1;">
  <use xlink:href="#glyph1-1" x="211.76" y="83.01"/>
  <use xlink:href="#glyph1-2" x="220.29" y="83.01"/>
  <use xlink:href="#glyph1-3" x="227.27" y="83.01"/>
  <use xlink:href="#glyph1-4" x="234.25" y="83.01"/>
  <use xlink:href="#glyph1-5" x="241.23" y="83.01"/>
  <use xlink:href="#glyph1-6" x="248.21" y="83.01"/>
  <use xlink:href="#glyph1-5" x="254.4" y="83.01"/>
  <use xlink:href="#glyph1-7" x="261.38" y="83.01"/>
</g>
<g clip-path="url(#clip6)" clip-rule="nonzero">
<g style="fill:rgb(0%,0%,100%);fill-opacity:1;">
  <use xlink:href="#glyph1-8" x="265.34" y="83.01"/>
  <use xlink:href="#glyph1-9" x="269.23" y="83.01"/>
  <use xlink:href="#glyph1-10" x="275.42" y="83.01"/>
</g>
</g>
<g style="fill:rgb(0%,0%,100%);fill-opacity:1;">
  <use xlink:href="#glyph1-11" x="224.39" y="96.96"/>
  <use xlink:href="#glyph1-12" x="234.47" y="96.96"/>
</g>
<g style="fill:rgb(0%,0%,100%);fill-opacity:1;">
  <use xlink:href="#glyph1-4" x="239.01" y="96.96"/>
</g>
<g style="fill:rgb(0%,0%,100%);fill-opacity:1;">
  <use xlink:href="#glyph1-13" x="245.5" y="96.96"/>
</g>
<g style="fill:rgb(0%,0%,100%);fill-opacity:1;">
  <use xlink:href="#glyph1-7" x="255.69" y="96.96"/>
</g>
<g style="fill:rgb(0%,0%,100%);fill-opacity:1;">
  <use xlink:href="#glyph1-14" x="259.69" y="96.96"/>
</g>
</g>
</svg>
