<?xml version="1.0" encoding="UTF-8"?>
<svg xmlns="http://www.w3.org/2000/svg" xmlns:xlink="http://www.w3.org/1999/xlink" width="586.77pt" height="252.28pt" viewBox="0 0 586.77 252.28" version="1.2">
<defs>
<clipPath id="clip1">
  <path d="M 0.72 66 L 31 66 L 31 98 L 0.72 98 Z M 0.72 66 "/>
</clipPath>
<clipPath id="clip2">
  <path d="M 0.72 132 L 31 132 L 31 163 L 0.72 163 Z M 0.72 132 "/>
</clipPath>
<clipPath id="clip3">
  <path d="M 299 230 L 306 230 L 306 251.57 L 299 251.57 Z M 299 230 "/>
</clipPath>
<clipPath id="clip4">
  <path d="M 361 236 L 374 236 L 374 251.57 L 361 251.57 Z M 361 236 "/>
</clipPath>
</defs>
<g id="surface1">
<path style=" stroke:none;fill-rule:evenodd;fill:rgb(100%,82.35%,36.47%);fill-opacity:1;" d="M 309.68 64.23 L 342.67 64.23 L 342.67 95.34 L 309.68 95.34 Z M 309.68 64.23 "/>
<path style=" stroke:none;fill-rule:evenodd;fill:rgb(100%,82.35%,36.47%);fill-opacity:1;" d="M 342.67 64.23 L 375.66 64.23 L 375.66 95.34 L 342.67 95.34 Z M 342.67 64.23 "/>
<path style=" stroke:none;fill-rule:evenodd;fill:rgb(100%,100%,0%);fill-opacity:1;" d="M 375.66 64.23 L 408.66 64.23 L 408.66 95.34 L 375.66 95.34 Z M 375.66 64.23 "/>
<path style=" stroke:none;fill-rule:evenodd;fill:rgb(100%,82.35%,36.47%);fill-opacity:1;" d="M 408.66 64.23 L 441.65 64.23 L 441.65 95.34 L 408.66 95.34 Z M 408.66 64.23 "/>
<path style=" stroke:none;fill-rule:evenodd;fill:rgb(100%,82.35%,36.47%);fill-opacity:1;" d="M 342.67 95.34 L 375.66 95.34 L 375.66 126.45 L 342.67 126.45 Z M 342.67 95.34 "/>
<path style=" stroke:none;fill-rule:evenodd;fill:rgb(100%,100%,0%);fill-opacity:1;" d="M 375.66 95.34 L 408.66 95.34 L 408.66 126.45 L 375.66 126.45 Z M 375.66 95.34 "/>
<path style=" stroke:none;fill-rule:evenodd;fill:rgb(100%,82.35%,36.47%);fill-opacity:1;" d="M 408.66 95.34 L 441.65 95.34 L 441.65 126.45 L 408.66 126.45 Z M 408.66 95.34 "/>
<path style=" stroke:none;fill-rule:evenodd;fill:rgb(100%,100%,0%);fill-opacity:1;" d="M 375.66 126.45 L 408.66 126.45 L 408.66 157.56 L 375.66 157.56 Z M 375.66 126.45 "/>
<path style=" stroke:none;fill-rule:evenodd;fill:rgb(100%,82.35%,36.47%);fill-opacity:1;" d="M 408.66 126.45 L 441.65 126.45 L 441.65 157.56 L 408.66 157.56 Z M 408.66 126.45 "/>
<path style=" stroke:none;fill-rule:evenodd;fill:rgb(100%,82.35%,36.47%);fill-opacity:1;" d="M 408.66 157.56 L 441.65 157.56 L 441.65 188.67 L 408.66 188.67 Z M 408.66 157.56 "/>
<path style="fill:none;stroke-width:1.5;stroke-linecap:butt;stroke-linejoin:round;stroke:rgb(0%,0%,0%);stroke-opacity:1;stroke-miterlimit:10;" d="M 309.84 63.66 L 309.84 221.16 " transform="matrix(1,0,0,1,0.72,0)"/>
<path style="fill:none;stroke-width:1.5;stroke-linecap:butt;stroke-linejoin:round;stroke:rgb(0%,0%,0%);stroke-opacity:1;stroke-miterlimit:10;" d="M 342.93 63.66 L 342.93 221.16 " transform="matrix(1,0,0,1,0.72,0)"/>
<path style="fill:none;stroke-width:1.5;stroke-linecap:butt;stroke-linejoin:round;stroke:rgb(0%,0%,0%);stroke-opacity:1;stroke-miterlimit:10;" d="M 376.01 63.66 L 376.01 221.16 " transform="matrix(1,0,0,1,0.72,0)"/>
<path style="fill:none;stroke-width:1.5;stroke-linecap:butt;stroke-linejoin:round;stroke:rgb(0%,0%,0%);stroke-opacity:1;stroke-miterlimit:10;" d="M 409.1 63.66 L 409.1 221.16 " transform="matrix(1,0,0,1,0.72,0)"/>
<path style="fill:none;stroke-width:1.5;stroke-linecap:butt;stroke-linejoin:round;stroke:rgb(0%,0%,0%);stroke-opacity:1;stroke-miterlimit:10;" d="M 276 95.61 L 442.94 95.61 " transform="matrix(1,0,0,1,0.72,0)"/>
<path style="fill:none;stroke-width:1.5;stroke-linecap:butt;stroke-linejoin:round;stroke:rgb(0%,0%,0%);stroke-opacity:1;stroke-miterlimit:10;" d="M 276 126.81 L 442.94 126.81 " transform="matrix(1,0,0,1,0.72,0)"/>
<path style="fill:none;stroke-width:1.5;stroke-linecap:butt;stroke-linejoin:round;stroke:rgb(0%,0%,0%);stroke-opacity:1;stroke-miterlimit:10;" d="M 276 158.01 L 442.94 158.01 " transform="matrix(1,0,0,1,0.72,0)"/>
<path style="fill:none;stroke-width:1.5;stroke-linecap:butt;stroke-linejoin:round;stroke:rgb(0%,0%,0%);stroke-opacity:1;stroke-miterlimit:10;" d="M 276 189.21 L 442.94 189.21 " transform="matrix(1,0,0,1,0.72,0)"/>
<path style="fill:none;stroke-width:1.5;stroke-linecap:butt;stroke-linejoin:round;stroke:rgb(0%,0%,0%);stroke-opacity:1;stroke-miterlimit:10;" d="M 276.75 63.66 L 276.75 221.16 " transform="matrix(1,0,0,1,0.72,0)"/>
<path style="fill:none;stroke-width:1.5;stroke-linecap:butt;stroke-linejoin:round;stroke:rgb(0%,0%,0%);stroke-opacity:1;stroke-miterlimit:10;" d="M 442.19 63.66 L 442.19 221.16 " transform="matrix(1,0,0,1,0.72,0)"/>
<path style="fill:none;stroke-width:1.5;stroke-linecap:butt;stroke-linejoin:round;stroke:rgb(0%,0%,0%);stroke-opacity:1;stroke-miterlimit:10;" d="M 276 64.41 L 442.94 64.41 " transform="matrix(1,0,0,1,0.72,0)"/>
<path style="fill:none;stroke-width:1.5;stroke-linecap:butt;stroke-linejoin:round;stroke:rgb(0%,0%,0%);stroke-opacity:1;stroke-miterlimit:10;" d="M 276 220.41 L 442.94 220.41 " transform="matrix(1,0,0,1,0.72,0)"/>
<path style=" stroke:none;fill-rule:nonzero;fill:rgb(65.1%,65.1%,65.1%);fill-opacity:1;" d="M 291.24 74.35 C 290.33 74.35 289.59 74.55 289.01 74.94 C 288.44 75.34 288 75.85 287.68 76.47 C 287.36 77.1 287.14 77.8 287.02 78.57 C 286.92 79.33 286.86 80.08 286.86 80.82 C 286.86 81.55 286.92 82.3 287.02 83.07 C 287.14 83.83 287.36 84.52 287.68 85.14 C 288 85.77 288.44 86.28 289.01 86.68 C 289.59 87.07 290.33 87.27 291.24 87.27 C 292.16 87.27 292.91 87.07 293.48 86.68 C 294.04 86.28 294.49 85.77 294.81 85.14 C 295.12 84.52 295.34 83.83 295.45 83.07 C 295.57 82.3 295.62 81.55 295.62 80.81 C 295.62 80.08 295.57 79.33 295.45 78.57 C 295.34 77.8 295.12 77.1 294.81 76.47 C 294.49 75.85 294.04 75.34 293.48 74.94 C 292.91 74.55 292.16 74.35 291.24 74.35 Z M 291.24 75.29 C 291.96 75.29 292.54 75.48 292.96 75.86 C 293.4 76.22 293.73 76.68 293.94 77.23 C 294.17 77.79 294.32 78.39 294.39 79.04 C 294.46 79.67 294.49 80.27 294.49 80.81 C 294.49 81.36 294.46 81.95 294.39 82.6 C 294.32 83.24 294.17 83.83 293.94 84.39 C 293.73 84.94 293.4 85.4 292.96 85.78 C 292.54 86.15 291.96 86.34 291.24 86.34 C 290.53 86.34 289.95 86.15 289.52 85.78 C 289.09 85.4 288.76 84.94 288.53 84.39 C 288.31 83.83 288.17 83.24 288.1 82.6 C 288.03 81.95 288 81.36 288 80.81 C 288 80.27 288.03 79.67 288.1 79.04 C 288.17 78.39 288.31 77.79 288.53 77.23 C 288.76 76.68 289.09 76.22 289.52 75.86 C 289.95 75.48 290.53 75.29 291.24 75.29 Z M 291.24 75.29 "/>
<path style=" stroke:none;fill-rule:nonzero;fill:rgb(0%,0%,0%);fill-opacity:1;" d="M 320.99 76.87 L 320.99 77.68 L 324.31 77.68 L 324.31 87.02 L 325.44 87.02 L 325.44 74.45 L 324.53 74.45 C 324.44 75.03 324.3 75.48 324.1 75.8 C 323.9 76.11 323.66 76.34 323.36 76.5 C 323.07 76.65 322.72 76.75 322.32 76.8 C 321.93 76.84 321.48 76.86 320.99 76.87 Z M 320.99 76.87 "/>
<path style=" stroke:none;fill-rule:nonzero;fill:rgb(0%,0%,0%);fill-opacity:1;" d="M 353.98 76.87 L 353.98 77.68 L 357.3 77.68 L 357.3 87.02 L 358.43 87.02 L 358.43 74.45 L 357.52 74.45 C 357.44 75.03 357.29 75.48 357.09 75.8 C 356.89 76.11 356.65 76.34 356.36 76.5 C 356.07 76.65 355.72 76.75 355.32 76.8 C 354.92 76.84 354.47 76.86 353.98 76.87 Z M 353.98 76.87 "/>
<path style=" stroke:none;fill-rule:nonzero;fill:rgb(0%,0%,0%);fill-opacity:1;" d="M 390.23 74.35 C 389.32 74.35 388.57 74.55 388 74.94 C 387.43 75.34 386.98 75.85 386.66 76.47 C 386.34 77.1 386.12 77.8 386.01 78.57 C 385.89 79.33 385.85 80.08 385.85 80.82 C 385.85 81.55 385.89 82.3 386.01 83.07 C 386.12 83.83 386.34 84.52 386.66 85.14 C 386.98 85.77 387.43 86.28 388 86.68 C 388.57 87.07 389.32 87.27 390.23 87.27 C 391.14 87.27 391.89 87.07 392.46 86.68 C 393.02 86.28 393.47 85.77 393.79 85.14 C 394.11 84.52 394.32 83.83 394.43 83.07 C 394.55 82.3 394.61 81.55 394.61 80.81 C 394.61 80.08 394.55 79.33 394.43 78.57 C 394.32 77.8 394.11 77.1 393.79 76.47 C 393.47 75.85 393.02 75.34 392.46 74.94 C 391.89 74.55 391.14 74.35 390.23 74.35 Z M 390.23 75.29 C 390.95 75.29 391.52 75.48 391.95 75.86 C 392.38 76.22 392.71 76.68 392.93 77.23 C 393.15 77.79 393.3 78.39 393.37 79.04 C 393.44 79.67 393.48 80.27 393.48 80.81 C 393.48 81.36 393.44 81.95 393.37 82.6 C 393.3 83.24 393.15 83.83 392.93 84.39 C 392.71 84.94 392.38 85.4 391.95 85.78 C 391.52 86.15 390.95 86.34 390.23 86.34 C 389.51 86.34 388.93 86.15 388.5 85.78 C 388.07 85.4 387.74 84.94 387.52 84.39 C 387.3 83.83 387.16 83.24 387.09 82.6 C 387.02 81.95 386.98 81.36 386.98 80.81 C 386.98 80.27 387.02 79.67 387.09 79.04 C 387.16 78.39 387.3 77.79 387.52 77.23 C 387.74 76.68 388.07 76.22 388.5 75.86 C 388.93 75.48 389.51 75.29 390.23 75.29 Z M 390.23 75.29 "/>
<path style=" stroke:none;fill-rule:nonzero;fill:rgb(0%,0%,0%);fill-opacity:1;" d="M 423.22 74.35 C 422.31 74.35 421.57 74.55 420.99 74.94 C 420.42 75.34 419.98 75.85 419.66 76.47 C 419.34 77.1 419.12 77.8 419 78.57 C 418.89 79.33 418.84 80.08 418.84 80.82 C 418.84 81.55 418.89 82.3 419 83.07 C 419.12 83.83 419.34 84.52 419.66 85.14 C 419.98 85.77 420.42 86.28 420.99 86.68 C 421.57 87.07 422.31 87.27 423.22 87.27 C 424.14 87.27 424.88 87.07 425.45 86.68 C 426.02 86.28 426.46 85.77 426.79 85.14 C 427.11 84.52 427.32 83.83 427.43 83.07 C 427.54 82.3 427.6 81.55 427.6 80.81 C 427.6 80.08 427.54 79.33 427.43 78.57 C 427.32 77.8 427.11 77.1 426.79 76.47 C 426.46 75.85 426.02 75.34 425.45 74.94 C 424.88 74.55 424.14 74.35 423.22 74.35 Z M 423.22 75.29 C 423.94 75.29 424.51 75.48 424.94 75.86 C 425.38 76.22 425.7 76.68 425.92 77.23 C 426.14 77.79 426.29 78.39 426.36 79.04 C 426.43 79.67 426.47 80.27 426.47 80.81 C 426.47 81.36 426.43 81.95 426.36 82.6 C 426.29 83.24 426.14 83.83 425.92 84.39 C 425.7 84.94 425.38 85.4 424.94 85.78 C 424.51 86.15 423.94 86.34 423.22 86.34 C 422.5 86.34 421.93 86.15 421.49 85.78 C 421.06 85.4 420.73 84.94 420.51 84.39 C 420.29 83.83 420.15 83.24 420.08 82.6 C 420.01 81.95 419.97 81.36 419.97 80.81 C 419.97 80.27 420.01 79.67 420.08 79.04 C 420.15 78.39 420.29 77.79 420.51 77.23 C 420.73 76.68 421.06 76.22 421.49 75.86 C 421.93 75.48 422.5 75.29 423.22 75.29 Z M 423.22 75.29 "/>
<path style=" stroke:none;fill-rule:nonzero;fill:rgb(65.1%,65.1%,65.1%);fill-opacity:1;" d="M 288 107.98 L 288 108.79 L 291.31 108.79 L 291.31 118.12 L 292.45 118.12 L 292.45 105.56 L 291.54 105.56 C 291.45 106.14 291.3 106.59 291.1 106.9 C 290.91 107.22 290.66 107.45 290.37 107.61 C 290.08 107.77 289.73 107.86 289.33 107.91 C 288.93 107.95 288.48 107.97 288 107.98 Z M 288 107.98 "/>
<path style=" stroke:none;fill-rule:nonzero;fill:rgb(65.1%,65.1%,65.1%);fill-opacity:1;" d="M 324.24 105.45 C 323.33 105.45 322.58 105.65 322.01 106.05 C 321.44 106.45 321 106.96 320.68 107.58 C 320.35 108.21 320.14 108.9 320.02 109.67 C 319.91 110.44 319.86 111.19 319.86 111.93 C 319.86 112.66 319.91 113.41 320.02 114.17 C 320.14 114.94 320.35 115.63 320.68 116.25 C 321 116.88 321.44 117.39 322.01 117.78 C 322.58 118.18 323.33 118.38 324.24 118.38 C 325.16 118.38 325.9 118.18 326.47 117.78 C 327.04 117.39 327.48 116.88 327.8 116.25 C 328.12 115.63 328.33 114.94 328.45 114.17 C 328.56 113.41 328.62 112.66 328.62 111.92 C 328.62 111.19 328.56 110.44 328.45 109.67 C 328.33 108.9 328.12 108.21 327.8 107.58 C 327.48 106.96 327.04 106.45 326.47 106.05 C 325.9 105.65 325.16 105.45 324.24 105.45 Z M 324.24 106.4 C 324.96 106.4 325.53 106.59 325.96 106.96 C 326.39 107.33 326.72 107.79 326.94 108.34 C 327.16 108.9 327.31 109.5 327.38 110.14 C 327.45 110.79 327.49 111.38 327.49 111.92 C 327.49 112.46 327.45 113.06 327.38 113.7 C 327.31 114.35 327.16 114.95 326.94 115.49 C 326.72 116.05 326.39 116.51 325.96 116.88 C 325.53 117.26 324.96 117.45 324.24 117.45 C 323.52 117.45 322.95 117.26 322.51 116.88 C 322.08 116.51 321.75 116.05 321.53 115.49 C 321.31 114.95 321.16 114.35 321.1 113.7 C 321.03 113.06 320.99 112.46 320.99 111.92 C 320.99 111.38 321.03 110.79 321.1 110.14 C 321.16 109.5 321.31 108.9 321.53 108.34 C 321.75 107.79 322.08 107.33 322.51 106.96 C 322.95 106.59 323.52 106.4 324.24 106.4 Z M 324.24 106.4 "/>
<path style=" stroke:none;fill-rule:nonzero;fill:rgb(0%,0%,0%);fill-opacity:1;" d="M 357.23 105.45 C 356.32 105.45 355.58 105.65 355 106.05 C 354.43 106.45 353.99 106.96 353.67 107.58 C 353.35 108.21 353.13 108.9 353.01 109.67 C 352.91 110.44 352.85 111.19 352.85 111.93 C 352.85 112.66 352.91 113.41 353.01 114.17 C 353.13 114.94 353.35 115.63 353.67 116.25 C 353.99 116.88 354.43 117.39 355 117.78 C 355.58 118.18 356.32 118.38 357.23 118.38 C 358.15 118.38 358.89 118.18 359.46 117.78 C 360.03 117.39 360.48 116.88 360.8 116.25 C 361.12 115.63 361.33 114.94 361.44 114.17 C 361.55 113.41 361.61 112.66 361.61 111.92 C 361.61 111.19 361.55 110.44 361.44 109.67 C 361.33 108.9 361.12 108.21 360.8 107.58 C 360.48 106.96 360.03 106.45 359.46 106.05 C 358.89 105.65 358.15 105.45 357.23 105.45 Z M 357.23 106.4 C 357.95 106.4 358.52 106.59 358.95 106.96 C 359.39 107.33 359.71 107.79 359.93 108.34 C 360.16 108.9 360.3 109.5 360.38 110.14 C 360.45 110.79 360.48 111.38 360.48 111.92 C 360.48 112.46 360.45 113.06 360.38 113.7 C 360.3 114.35 360.16 114.95 359.93 115.49 C 359.71 116.05 359.39 116.51 358.95 116.88 C 358.52 117.26 357.95 117.45 357.23 117.45 C 356.52 117.45 355.94 117.26 355.5 116.88 C 355.07 116.51 354.75 116.05 354.52 115.49 C 354.3 114.95 354.16 114.35 354.09 113.7 C 354.02 113.06 353.98 112.46 353.98 111.92 C 353.98 111.38 354.02 110.79 354.09 110.14 C 354.16 109.5 354.3 108.9 354.52 108.34 C 354.75 107.79 355.07 107.33 355.5 106.96 C 355.94 106.59 356.52 106.4 357.23 106.4 Z M 357.23 106.4 "/>
<path style=" stroke:none;fill-rule:nonzero;fill:rgb(0%,0%,0%);fill-opacity:1;" d="M 386.98 107.98 L 386.98 108.79 L 390.3 108.79 L 390.3 118.12 L 391.43 118.12 L 391.43 105.56 L 390.52 105.56 C 390.43 106.14 390.29 106.59 390.09 106.9 C 389.89 107.22 389.65 107.45 389.35 107.61 C 389.06 107.77 388.71 107.86 388.31 107.91 C 387.91 107.95 387.47 107.97 386.98 107.98 Z M 386.98 107.98 "/>
<path style=" stroke:none;fill-rule:nonzero;fill:rgb(0%,0%,0%);fill-opacity:1;" d="M 423.22 105.45 C 422.31 105.45 421.57 105.65 420.99 106.05 C 420.42 106.45 419.98 106.96 419.66 107.58 C 419.34 108.21 419.12 108.9 419 109.67 C 418.89 110.44 418.84 111.19 418.84 111.93 C 418.84 112.66 418.89 113.41 419 114.17 C 419.12 114.94 419.34 115.63 419.66 116.25 C 419.98 116.88 420.42 117.39 420.99 117.78 C 421.57 118.18 422.31 118.38 423.22 118.38 C 424.14 118.38 424.88 118.18 425.45 117.78 C 426.02 117.39 426.46 116.88 426.79 116.25 C 427.11 115.63 427.32 114.94 427.43 114.17 C 427.54 113.41 427.6 112.66 427.6 111.92 C 427.6 111.19 427.54 110.44 427.43 109.67 C 427.32 108.9 427.11 108.21 426.79 107.58 C 426.46 106.96 426.02 106.45 425.45 106.05 C 424.88 105.65 424.14 105.45 423.22 105.45 Z M 423.22 106.4 C 423.94 106.4 424.51 106.59 424.94 106.96 C 425.38 107.33 425.7 107.79 425.92 108.34 C 426.14 108.9 426.29 109.5 426.36 110.14 C 426.43 110.79 426.47 111.38 426.47 111.92 C 426.47 112.46 426.43 113.06 426.36 113.7 C 426.29 114.35 426.14 114.95 425.92 115.49 C 425.7 116.05 425.38 116.51 424.94 116.88 C 424.51 117.26 423.94 117.45 423.22 117.45 C 422.5 117.45 421.93 117.26 421.49 116.88 C 421.06 116.51 420.73 116.05 420.51 115.49 C 420.29 114.95 420.15 114.35 420.08 113.7 C 420.01 113.06 419.97 112.46 419.97 111.92 C 419.97 111.38 420.01 110.79 420.08 110.14 C 420.15 109.5 420.29 108.9 420.51 108.34 C 420.73 107.79 421.06 107.33 421.49 106.96 C 421.93 106.59 422.5 106.4 423.22 106.4 Z M 423.22 106.4 "/>
<path style=" stroke:none;fill-rule:nonzero;fill:rgb(65.1%,65.1%,65.1%);fill-opacity:1;" d="M 288 139.09 L 288 139.9 L 291.31 139.9 L 291.31 149.23 L 292.45 149.23 L 292.45 136.67 L 291.54 136.67 C 291.45 137.25 291.3 137.7 291.1 138.02 C 290.91 138.33 290.66 138.56 290.37 138.72 C 290.08 138.88 289.73 138.98 289.33 139.02 C 288.93 139.07 288.48 139.09 288 139.09 Z M 288 139.09 "/>
<path style=" stroke:none;fill-rule:nonzero;fill:rgb(65.1%,65.1%,65.1%);fill-opacity:1;" d="M 324.24 136.57 C 323.33 136.57 322.58 136.77 322.01 137.16 C 321.44 137.56 321 138.07 320.68 138.7 C 320.35 139.32 320.14 140.02 320.02 140.79 C 319.91 141.55 319.86 142.3 319.86 143.04 C 319.86 143.78 319.91 144.52 320.02 145.29 C 320.14 146.05 320.35 146.74 320.68 147.37 C 321 147.99 321.44 148.5 322.01 148.9 C 322.58 149.3 323.33 149.49 324.24 149.49 C 325.16 149.49 325.9 149.3 326.47 148.9 C 327.04 148.5 327.48 147.99 327.8 147.37 C 328.12 146.74 328.33 146.05 328.45 145.29 C 328.56 144.52 328.62 143.78 328.62 143.03 C 328.62 142.3 328.56 141.55 328.45 140.79 C 328.33 140.02 328.12 139.32 327.8 138.7 C 327.48 138.07 327.04 137.56 326.47 137.16 C 325.9 136.77 325.16 136.57 324.24 136.57 Z M 324.24 137.52 C 324.96 137.52 325.53 137.7 325.96 138.08 C 326.39 138.45 326.72 138.9 326.94 139.46 C 327.16 140.01 327.31 140.61 327.38 141.25 C 327.45 141.89 327.49 142.49 327.49 143.03 C 327.49 143.58 327.45 144.17 327.38 144.82 C 327.31 145.46 327.16 146.05 326.94 146.61 C 326.72 147.16 326.39 147.62 325.96 148 C 325.53 148.37 324.96 148.56 324.24 148.56 C 323.52 148.56 322.95 148.37 322.51 148 C 322.08 147.62 321.75 147.16 321.53 146.61 C 321.31 146.05 321.16 145.46 321.1 144.82 C 321.03 144.17 320.99 143.58 320.99 143.03 C 320.99 142.49 321.03 141.89 321.1 141.25 C 321.16 140.61 321.31 140.01 321.53 139.46 C 321.75 138.9 322.08 138.45 322.51 138.08 C 322.95 137.7 323.52 137.52 324.24 137.52 Z M 324.24 137.52 "/>
<path style=" stroke:none;fill-rule:nonzero;fill:rgb(65.1%,65.1%,65.1%);fill-opacity:1;" d="M 357.23 136.57 C 356.32 136.57 355.58 136.77 355 137.16 C 354.43 137.56 353.99 138.07 353.67 138.7 C 353.35 139.32 353.13 140.02 353.01 140.79 C 352.91 141.55 352.85 142.3 352.85 143.04 C 352.85 143.78 352.91 144.52 353.01 145.29 C 353.13 146.05 353.35 146.74 353.67 147.37 C 353.99 147.99 354.43 148.5 355 148.9 C 355.58 149.3 356.32 149.49 357.23 149.49 C 358.15 149.49 358.89 149.3 359.46 148.9 C 360.03 148.5 360.48 147.99 360.8 147.37 C 361.12 146.74 361.33 146.05 361.44 145.29 C 361.55 144.52 361.61 143.78 361.61 143.03 C 361.61 142.3 361.55 141.55 361.44 140.79 C 361.33 140.02 361.12 139.32 360.8 138.7 C 360.48 138.07 360.03 137.56 359.46 137.16 C 358.89 136.77 358.15 136.57 357.23 136.57 Z M 357.23 137.52 C 357.95 137.52 358.52 137.7 358.95 138.08 C 359.39 138.45 359.71 138.9 359.93 139.46 C 360.16 140.01 360.3 140.61 360.38 141.25 C 360.45 141.89 360.48 142.49 360.48 143.03 C 360.48 143.58 360.45 144.17 360.38 144.82 C 360.3 145.46 360.16 146.05 359.93 146.61 C 359.71 147.16 359.39 147.62 358.95 148 C 358.52 148.37 357.95 148.56 357.23 148.56 C 356.52 148.56 355.94 148.37 355.5 148 C 355.07 147.62 354.75 147.16 354.52 146.61 C 354.3 146.05 354.16 145.46 354.09 144.82 C 354.02 144.17 353.98 143.58 353.98 143.03 C 353.98 142.49 354.02 141.89 354.09 141.25 C 354.16 140.61 354.3 140.01 354.52 139.46 C 354.75 138.9 355.07 138.45 355.5 138.08 C 355.94 137.7 356.52 137.52 357.23 137.52 Z M 357.23 137.52 "/>
<path style=" stroke:none;fill-rule:nonzero;fill:rgb(0%,0%,0%);fill-opacity:1;" d="M 386.98 139.09 L 386.98 139.9 L 390.3 139.9 L 390.3 149.23 L 391.43 149.23 L 391.43 136.67 L 390.52 136.67 C 390.43 137.25 390.29 137.7 390.09 138.02 C 389.89 138.33 389.65 138.56 389.35 138.72 C 389.06 138.88 388.71 138.98 388.31 139.02 C 387.91 139.07 387.47 139.09 386.98 139.09 Z M 386.98 139.09 "/>
<path style=" stroke:none;fill-rule:nonzero;fill:rgb(0%,0%,0%);fill-opacity:1;" d="M 419.97 139.09 L 419.97 139.9 L 423.29 139.9 L 423.29 149.23 L 424.42 149.23 L 424.42 136.67 L 423.51 136.67 C 423.43 137.25 423.28 137.7 423.08 138.02 C 422.89 138.33 422.64 138.56 422.34 138.72 C 422.05 138.88 421.71 138.98 421.3 139.02 C 420.91 139.07 420.46 139.09 419.97 139.09 Z M 419.97 139.09 "/>
<path style=" stroke:none;fill-rule:nonzero;fill:rgb(65.1%,65.1%,65.1%);fill-opacity:1;" d="M 291.24 167.68 C 290.33 167.68 289.59 167.88 289.01 168.28 C 288.44 168.67 288 169.18 287.68 169.81 C 287.36 170.43 287.14 171.13 287.02 171.9 C 286.92 172.66 286.86 173.41 286.86 174.15 C 286.86 174.89 286.92 175.63 287.02 176.4 C 287.14 177.16 287.36 177.86 287.68 178.48 C 288 179.1 288.44 179.61 289.01 180.01 C 289.59 180.41 290.33 180.61 291.24 180.61 C 292.16 180.61 292.91 180.41 293.48 180.01 C 294.04 179.61 294.49 179.1 294.81 178.48 C 295.12 177.86 295.34 177.16 295.45 176.4 C 295.57 175.63 295.62 174.88 295.62 174.14 C 295.62 173.41 295.57 172.66 295.45 171.9 C 295.34 171.13 295.12 170.43 294.81 169.81 C 294.49 169.18 294.04 168.67 293.48 168.28 C 292.91 167.88 292.16 167.68 291.24 167.68 Z M 291.24 168.62 C 291.96 168.62 292.54 168.81 292.96 169.19 C 293.4 169.55 293.73 170.01 293.94 170.57 C 294.17 171.12 294.32 171.72 294.39 172.37 C 294.46 173 294.49 173.6 294.49 174.14 C 294.49 174.69 294.46 175.28 294.39 175.93 C 294.32 176.57 294.17 177.16 293.94 177.72 C 293.73 178.27 293.4 178.73 292.96 179.11 C 292.54 179.48 291.96 179.67 291.24 179.67 C 290.53 179.67 289.95 179.48 289.52 179.11 C 289.09 178.73 288.76 178.27 288.53 177.72 C 288.31 177.16 288.17 176.57 288.1 175.93 C 288.03 175.28 288 174.69 288 174.14 C 288 173.6 288.03 173 288.1 172.37 C 288.17 171.72 288.31 171.12 288.53 170.57 C 288.76 170.01 289.09 169.55 289.52 169.19 C 289.95 168.81 290.53 168.62 291.24 168.62 Z M 291.24 168.62 "/>
<path style=" stroke:none;fill-rule:nonzero;fill:rgb(65.1%,65.1%,65.1%);fill-opacity:1;" d="M 320.99 170.2 L 320.99 171.01 L 324.31 171.01 L 324.31 180.35 L 325.44 180.35 L 325.44 167.79 L 324.53 167.79 C 324.44 168.36 324.3 168.81 324.1 169.13 C 323.9 169.44 323.66 169.68 323.36 169.83 C 323.07 169.98 322.72 170.09 322.32 170.13 C 321.93 170.17 321.48 170.2 320.99 170.2 Z M 320.99 170.2 "/>
<path style=" stroke:none;fill-rule:nonzero;fill:rgb(65.1%,65.1%,65.1%);fill-opacity:1;" d="M 353.98 170.2 L 353.98 171.01 L 357.3 171.01 L 357.3 180.35 L 358.43 180.35 L 358.43 167.79 L 357.52 167.79 C 357.44 168.36 357.29 168.81 357.09 169.13 C 356.89 169.44 356.65 169.68 356.36 169.83 C 356.07 169.98 355.72 170.09 355.32 170.13 C 354.92 170.17 354.47 170.2 353.98 170.2 Z M 353.98 170.2 "/>
<path style=" stroke:none;fill-rule:nonzero;fill:rgb(65.1%,65.1%,65.1%);fill-opacity:1;" d="M 390.23 167.68 C 389.32 167.68 388.57 167.88 388 168.28 C 387.43 168.67 386.98 169.18 386.66 169.81 C 386.34 170.43 386.12 171.13 386.01 171.9 C 385.89 172.66 385.85 173.41 385.85 174.15 C 385.85 174.89 385.89 175.63 386.01 176.4 C 386.12 177.16 386.34 177.86 386.66 178.48 C 386.98 179.1 387.43 179.61 388 180.01 C 388.57 180.41 389.32 180.61 390.23 180.61 C 391.14 180.61 391.89 180.41 392.46 180.01 C 393.02 179.61 393.47 179.1 393.79 178.48 C 394.11 177.86 394.32 177.16 394.43 176.4 C 394.55 175.63 394.61 174.88 394.61 174.14 C 394.61 173.41 394.55 172.66 394.43 171.9 C 394.32 171.13 394.11 170.43 393.79 169.81 C 393.47 169.18 393.02 168.67 392.46 168.28 C 391.89 167.88 391.14 167.68 390.23 167.68 Z M 390.23 168.62 C 390.95 168.62 391.52 168.81 391.95 169.19 C 392.38 169.55 392.71 170.01 392.93 170.57 C 393.15 171.12 393.3 171.72 393.37 172.37 C 393.44 173 393.48 173.6 393.48 174.14 C 393.48 174.69 393.44 175.28 393.37 175.93 C 393.3 176.57 393.15 177.16 392.93 177.72 C 392.71 178.27 392.38 178.73 391.95 179.11 C 391.52 179.48 390.95 179.67 390.23 179.67 C 389.51 179.67 388.93 179.48 388.5 179.11 C 388.07 178.73 387.74 178.27 387.52 177.72 C 387.3 177.16 387.16 176.57 387.09 175.93 C 387.02 175.28 386.98 174.69 386.98 174.14 C 386.98 173.6 387.02 173 387.09 172.37 C 387.16 171.72 387.3 171.12 387.52 170.57 C 387.74 170.01 388.07 169.55 388.5 169.19 C 388.93 168.81 389.51 168.62 390.23 168.62 Z M 390.23 168.62 "/>
<path style=" stroke:none;fill-rule:nonzero;fill:rgb(0%,0%,0%);fill-opacity:1;" d="M 419.97 170.2 L 419.97 171.01 L 423.29 171.01 L 423.29 180.35 L 424.42 180.35 L 424.42 167.79 L 423.51 167.79 C 423.43 168.36 423.28 168.81 423.08 169.13 C 422.89 169.44 422.64 169.68 422.34 169.83 C 422.05 169.98 421.71 170.09 421.3 170.13 C 420.91 170.17 420.46 170.2 419.97 170.2 Z M 419.97 170.2 "/>
<path style=" stroke:none;fill-rule:nonzero;fill:rgb(65.1%,65.1%,65.1%);fill-opacity:1;" d="M 291.24 198.79 C 290.33 198.79 289.59 198.99 289.01 199.39 C 288.44 199.79 288 200.29 287.68 200.92 C 287.36 201.54 287.14 202.24 287.02 203.01 C 286.92 203.78 286.86 204.52 286.86 205.27 C 286.86 206 286.92 206.75 287.02 207.51 C 287.14 208.28 287.36 208.96 287.68 209.59 C 288 210.21 288.44 210.72 289.01 211.12 C 289.59 211.52 290.33 211.71 291.24 211.71 C 292.16 211.71 292.91 211.52 293.48 211.12 C 294.04 210.72 294.49 210.21 294.81 209.59 C 295.12 208.96 295.34 208.28 295.45 207.51 C 295.57 206.75 295.62 206 295.62 205.25 C 295.62 204.52 295.57 203.78 295.45 203.01 C 295.34 202.24 295.12 201.54 294.81 200.92 C 294.49 200.29 294.04 199.79 293.48 199.39 C 292.91 198.99 292.16 198.79 291.24 198.79 Z M 291.24 199.74 C 291.96 199.74 292.54 199.93 292.96 200.3 C 293.4 200.67 293.73 201.12 293.94 201.68 C 294.17 202.23 294.32 202.83 294.39 203.48 C 294.46 204.12 294.49 204.71 294.49 205.25 C 294.49 205.8 294.46 206.39 294.39 207.04 C 294.32 207.68 294.17 208.28 293.94 208.83 C 293.73 209.39 293.4 209.84 292.96 210.22 C 292.54 210.59 291.96 210.78 291.24 210.78 C 290.53 210.78 289.95 210.59 289.52 210.22 C 289.09 209.84 288.76 209.39 288.53 208.83 C 288.31 208.28 288.17 207.68 288.1 207.04 C 288.03 206.39 288 205.8 288 205.25 C 288 204.71 288.03 204.12 288.1 203.48 C 288.17 202.83 288.31 202.23 288.53 201.68 C 288.76 201.12 289.09 200.67 289.52 200.3 C 289.95 199.93 290.53 199.74 291.24 199.74 Z M 291.24 199.74 "/>
<path style=" stroke:none;fill-rule:nonzero;fill:rgb(65.1%,65.1%,65.1%);fill-opacity:1;" d="M 324.24 198.79 C 323.33 198.79 322.58 198.99 322.01 199.39 C 321.44 199.79 321 200.29 320.68 200.92 C 320.35 201.54 320.14 202.24 320.02 203.01 C 319.91 203.78 319.86 204.52 319.86 205.27 C 319.86 206 319.91 206.75 320.02 207.51 C 320.14 208.28 320.35 208.96 320.68 209.59 C 321 210.21 321.44 210.72 322.01 211.12 C 322.58 211.52 323.33 211.71 324.24 211.71 C 325.16 211.71 325.9 211.52 326.47 211.12 C 327.04 210.72 327.48 210.21 327.8 209.59 C 328.12 208.96 328.33 208.28 328.45 207.51 C 328.56 206.75 328.62 206 328.62 205.25 C 328.62 204.52 328.56 203.78 328.45 203.01 C 328.33 202.24 328.12 201.54 327.8 200.92 C 327.48 200.29 327.04 199.79 326.47 199.39 C 325.9 198.99 325.16 198.79 324.24 198.79 Z M 324.24 199.74 C 324.96 199.74 325.53 199.93 325.96 200.3 C 326.39 200.67 326.72 201.12 326.94 201.68 C 327.16 202.23 327.31 202.83 327.38 203.48 C 327.45 204.12 327.49 204.71 327.49 205.25 C 327.49 205.8 327.45 206.39 327.38 207.04 C 327.31 207.68 327.16 208.28 326.94 208.83 C 326.72 209.39 326.39 209.84 325.96 210.22 C 325.53 210.59 324.96 210.78 324.24 210.78 C 323.52 210.78 322.95 210.59 322.51 210.22 C 322.08 209.84 321.75 209.39 321.53 208.83 C 321.31 208.28 321.16 207.68 321.1 207.04 C 321.03 206.39 320.99 205.8 320.99 205.25 C 320.99 204.71 321.03 204.12 321.1 203.48 C 321.16 202.83 321.31 202.23 321.53 201.68 C 321.75 201.12 322.08 200.67 322.51 200.3 C 322.95 199.93 323.52 199.74 324.24 199.74 Z M 324.24 199.74 "/>
<path style=" stroke:none;fill-rule:nonzero;fill:rgb(65.1%,65.1%,65.1%);fill-opacity:1;" d="M 353.98 201.32 L 353.98 202.12 L 357.3 202.12 L 357.3 211.46 L 358.43 211.46 L 358.43 198.89 L 357.52 198.89 C 357.44 199.48 357.29 199.92 357.09 200.24 C 356.89 200.55 356.65 200.79 356.36 200.94 C 356.07 201.1 355.72 201.2 355.32 201.25 C 354.92 201.29 354.47 201.31 353.98 201.32 Z M 353.98 201.32 "/>
<path style=" stroke:none;fill-rule:nonzero;fill:rgb(65.1%,65.1%,65.1%);fill-opacity:1;" d="M 386.98 201.32 L 386.98 202.12 L 390.3 202.12 L 390.3 211.46 L 391.43 211.46 L 391.43 198.89 L 390.52 198.89 C 390.43 199.48 390.29 199.92 390.09 200.24 C 389.89 200.55 389.65 200.79 389.35 200.94 C 389.06 201.1 388.71 201.2 388.31 201.25 C 387.91 201.29 387.47 201.31 386.98 201.32 Z M 386.98 201.32 "/>
<path style=" stroke:none;fill-rule:nonzero;fill:rgb(65.1%,65.1%,65.1%);fill-opacity:1;" d="M 423.22 198.79 C 422.31 198.79 421.57 198.99 420.99 199.39 C 420.42 199.79 419.98 200.29 419.66 200.92 C 419.34 201.54 419.12 202.24 419 203.01 C 418.89 203.78 418.84 204.52 418.84 205.27 C 418.84 206 418.89 206.75 419 207.51 C 419.12 208.28 419.34 208.96 419.66 209.59 C 419.98 210.21 420.42 210.72 420.99 211.12 C 421.57 211.52 422.31 211.71 423.22 211.71 C 424.14 211.71 424.88 211.52 425.45 211.12 C 426.02 210.72 426.46 210.21 426.79 209.59 C 427.11 208.96 427.32 208.28 427.43 207.51 C 427.54 206.75 427.6 206 427.6 205.25 C 427.6 204.52 427.54 203.78 427.43 203.01 C 427.32 202.24 427.11 201.54 426.79 200.92 C 426.46 200.29 426.02 199.79 425.45 199.39 C 424.88 198.99 424.14 198.79 423.22 198.79 Z M 423.22 199.74 C 423.94 199.74 424.51 199.93 424.94 200.3 C 425.38 200.67 425.7 201.12 425.92 201.68 C 426.14 202.23 426.29 202.83 426.36 203.48 C 426.43 204.12 426.47 204.71 426.47 205.25 C 426.47 205.8 426.43 206.39 426.36 207.04 C 426.29 207.68 426.14 208.28 425.92 208.83 C 425.7 209.39 425.38 209.84 424.94 210.22 C 424.51 210.59 423.94 210.78 423.22 210.78 C 422.5 210.78 421.93 210.59 421.49 210.22 C 421.06 209.84 420.73 209.39 420.51 208.83 C 420.29 208.28 420.15 207.68 420.08 207.04 C 420.01 206.39 419.97 205.8 419.97 205.25 C 419.97 204.71 420.01 204.12 420.08 203.48 C 420.15 202.83 420.29 202.23 420.51 201.68 C 420.73 201.12 421.06 200.67 421.49 200.3 C 421.93 199.93 422.5 199.74 423.22 199.74 Z M 423.22 199.74 "/>
<g clip-path="url(#clip1)" clip-rule="nonzero">
<path style="fill:none;stroke-width:1.5;stroke-linecap:round;stroke-linejoin:round;stroke:rgb(0%,0%,0%);stroke-opacity:1;stroke-miterlimit:10;" d="M 0.75 82.33 C 0.75 74.38 7.19 67.93 15.15 67.93 C 23.1 67.93 29.55 74.38 29.55 82.33 C 29.55 90.29 23.1 96.73 15.15 96.73 C 7.19 96.73 0.75 90.29 0.75 82.33 Z M 0.75 82.33 " transform="matrix(1,0,0,1,0.72,0)"/>
</g>
<path style=" stroke:none;fill-rule:nonzero;fill:rgb(0%,0%,0%);fill-opacity:1;" d="M 11.48 78.04 L 11.48 79.12 L 15.91 79.12 L 15.91 91.56 L 17.41 91.56 L 17.41 74.8 L 16.19 74.8 C 16.08 75.57 15.89 76.17 15.63 76.59 C 15.36 77.01 15.04 77.33 14.65 77.54 C 14.26 77.74 13.79 77.87 13.25 77.93 C 12.73 77.99 12.13 78.02 11.48 78.04 Z M 11.48 78.04 "/>
<g clip-path="url(#clip2)" clip-rule="nonzero">
<path style="fill:none;stroke-width:1.5;stroke-linecap:round;stroke-linejoin:round;stroke:rgb(0%,0%,0%);stroke-opacity:1;stroke-miterlimit:10;" d="M 0.75 147.91 C 0.75 139.95 7.19 133.51 15.15 133.51 C 23.1 133.51 29.55 139.95 29.55 147.91 C 29.55 155.86 23.1 162.3 15.15 162.3 C 7.19 162.3 0.75 155.86 0.75 147.91 Z M 0.75 147.91 " transform="matrix(1,0,0,1,0.72,0)"/>
</g>
<path style=" stroke:none;fill-rule:nonzero;fill:rgb(0%,0%,0%);fill-opacity:1;" d="M 21.05 157.13 L 21.05 155.74 L 11.74 155.74 C 11.83 155.19 12.07 154.68 12.45 154.21 C 12.84 153.74 13.29 153.3 13.78 152.9 C 14.29 152.5 14.81 152.13 15.35 151.8 C 15.89 151.48 16.36 151.18 16.76 150.91 C 17.32 150.56 17.85 150.18 18.35 149.77 C 18.86 149.37 19.3 148.93 19.7 148.45 C 20.09 147.97 20.39 147.44 20.63 146.87 C 20.86 146.3 20.98 145.66 20.98 144.96 C 20.98 144.17 20.85 143.48 20.58 142.9 C 20.32 142.31 19.95 141.82 19.47 141.43 C 19 141.03 18.46 140.74 17.82 140.54 C 17.2 140.34 16.52 140.23 15.78 140.23 C 14.88 140.23 14.08 140.38 13.39 140.68 C 12.72 140.98 12.16 141.39 11.71 141.92 C 11.27 142.45 10.94 143.06 10.72 143.79 C 10.5 144.51 10.41 145.3 10.43 146.17 L 11.93 146.17 C 11.92 145.55 11.98 144.96 12.11 144.41 C 12.24 143.84 12.46 143.35 12.77 142.92 C 13.07 142.49 13.46 142.15 13.95 141.89 C 14.44 141.64 15.02 141.51 15.71 141.51 C 16.22 141.51 16.71 141.59 17.16 141.74 C 17.61 141.89 18.01 142.12 18.35 142.41 C 18.69 142.7 18.96 143.06 19.17 143.48 C 19.37 143.9 19.47 144.39 19.47 144.93 C 19.47 145.61 19.36 146.18 19.12 146.66 C 18.89 147.15 18.54 147.62 18.08 148.09 C 17.62 148.55 17.1 148.99 16.52 149.39 C 15.93 149.8 15.34 150.2 14.75 150.59 C 14.16 150.98 13.58 151.39 13.02 151.82 C 12.47 152.23 11.96 152.7 11.52 153.22 C 11.07 153.73 10.71 154.3 10.44 154.93 C 10.18 155.58 10.04 156.31 10.02 157.13 Z M 21.05 157.13 "/>
<path style="fill-rule:evenodd;fill:rgb(100%,100%,0%);fill-opacity:1;stroke-width:1.5;stroke-linecap:round;stroke-linejoin:round;stroke:rgb(0%,0%,0%);stroke-opacity:1;stroke-miterlimit:10;" d="M 78.91 147.91 C 78.91 139.95 85.36 133.51 93.31 133.51 C 101.27 133.51 107.72 139.95 107.72 147.91 C 107.72 155.86 101.27 162.3 93.31 162.3 C 85.36 162.3 78.91 155.86 78.91 147.91 Z M 78.91 147.91 " transform="matrix(1,0,0,1,0.72,0)"/>
<path style=" stroke:none;fill-rule:nonzero;fill:rgb(0%,0%,0%);fill-opacity:1;" d="M 95.55 151.7 L 89.18 151.7 L 95.5 142.58 L 95.55 142.58 Z M 87.81 151.51 L 87.81 152.97 L 95.55 152.97 L 95.55 157.13 L 96.94 157.13 L 96.94 152.97 L 99.45 152.97 L 99.45 151.7 L 96.94 151.7 L 96.94 140.38 L 95.57 140.38 Z M 87.81 151.51 "/>
<path style="fill:none;stroke-width:1.5;stroke-linecap:round;stroke-linejoin:round;stroke:rgb(0%,0%,0%);stroke-opacity:1;stroke-miterlimit:10;" d="M 29.55 147.61 L 78.91 147.61 " transform="matrix(1,0,0,1,0.72,0)"/>
<path style=" stroke:none;fill-rule:evenodd;fill:rgb(100%,100%,100%);fill-opacity:1;" d="M 79.41 82.1 C 79.41 74.17 85.84 67.74 93.77 67.74 C 101.7 67.74 108.13 74.17 108.13 82.1 C 108.13 90.03 101.7 96.46 93.77 96.46 C 85.84 96.46 79.41 90.03 79.41 82.1 Z M 79.41 82.1 "/>
<path style=" stroke:none;fill-rule:nonzero;fill:rgb(0%,0%,0%);fill-opacity:1;" d="M 78.66 82.14 L 78.73 80.59 L 78.96 79.09 L 79.32 77.64 L 79.83 76.25 L 80.47 74.93 L 81.22 73.68 L 82.09 72.52 L 83.06 71.44 L 84.13 70.47 L 85.29 69.59 L 86.53 68.84 L 87.85 68.2 L 89.24 67.68 L 90.68 67.31 L 92.18 67.07 L 93.73 66.99 L 95.27 67.07 L 96.77 67.29 L 98.22 67.66 L 99.61 68.16 L 100.94 68.8 L 102.18 69.55 L 103.35 70.42 L 104.42 71.39 L 105.4 72.46 L 106.27 73.62 L 107.03 74.87 L 107.67 76.19 L 108.18 77.57 L 108.56 79.02 L 108.79 80.52 L 108.87 82.06 L 108.8 83.61 L 108.57 85.11 L 108.2 86.55 L 107.7 87.95 L 107.07 89.27 L 106.31 90.52 L 105.44 91.68 L 104.47 92.76 L 103.4 93.73 L 102.24 94.61 L 101 95.37 L 99.68 96 L 98.29 96.52 L 96.85 96.89 L 95.35 97.12 L 93.8 97.2 L 92.26 97.13 L 90.76 96.91 L 89.31 96.54 L 87.92 96.03 L 86.6 95.4 L 85.35 94.64 L 84.18 93.78 L 83.11 92.8 L 82.13 91.73 L 81.26 90.57 L 80.5 89.33 L 79.86 88.01 L 79.35 86.62 L 78.98 85.18 L 78.74 83.68 Z M 79.63 83.54 L 79.84 84.96 L 80.19 86.32 L 80.67 87.62 L 81.27 88.86 L 81.98 90.04 L 82.8 91.13 L 83.71 92.14 L 84.72 93.06 L 85.82 93.88 L 86.99 94.59 L 88.23 95.19 L 89.53 95.67 L 90.89 96.02 L 92.3 96.23 L 93.76 96.31 L 95.21 96.24 L 96.62 96.02 L 97.98 95.67 L 99.29 95.2 L 100.53 94.6 L 101.7 93.89 L 102.8 93.07 L 103.81 92.15 L 104.73 91.14 L 105.54 90.05 L 106.26 88.88 L 106.86 87.64 L 107.34 86.33 L 107.69 84.97 L 107.9 83.56 L 107.97 82.11 L 107.91 80.65 L 107.69 79.24 L 107.34 77.88 L 106.86 76.57 L 106.27 75.33 L 105.55 74.16 L 104.73 73.07 L 103.82 72.06 L 102.81 71.14 L 101.71 70.32 L 100.55 69.61 L 99.3 69.01 L 98 68.53 L 96.64 68.18 L 95.23 67.96 L 93.77 67.89 L 92.32 67.96 L 90.91 68.18 L 89.55 68.53 L 88.24 69 L 87 69.6 L 85.83 70.31 L 84.73 71.13 L 83.72 72.05 L 82.8 73.05 L 81.98 74.15 L 81.27 75.32 L 80.68 76.56 L 80.2 77.87 L 79.85 79.23 L 79.63 80.64 L 79.55 82.09 Z M 79.86 82.07 L 79.93 80.65 L 80.14 79.27 L 80.49 77.94 L 80.96 76.66 L 81.54 75.45 L 82.24 74.3 L 83.05 73.23 L 83.95 72.25 L 84.93 71.35 L 86 70.55 L 87.16 69.86 L 88.37 69.27 L 89.65 68.81 L 90.98 68.46 L 92.37 68.26 L 93.79 68.19 L 95.21 68.26 L 96.59 68.48 L 97.93 68.82 L 99.2 69.29 L 100.41 69.88 L 101.56 70.58 L 102.63 71.38 L 103.62 72.28 L 104.51 73.27 L 105.32 74.34 L 106.01 75.49 L 106.59 76.7 L 107.06 77.98 L 107.4 79.32 L 107.61 80.7 L 107.68 82.12 L 107.6 83.54 L 107.39 84.93 L 107.04 86.26 L 106.58 87.54 L 105.99 88.75 L 105.29 89.9 L 104.48 90.96 L 103.59 91.95 L 102.6 92.85 L 101.52 93.65 L 100.38 94.34 L 99.16 94.93 L 97.88 95.39 L 96.55 95.73 L 95.17 95.94 L 93.74 96.01 L 92.32 95.94 L 90.94 95.72 L 89.61 95.38 L 88.33 94.91 L 87.12 94.32 L 85.97 93.62 L 84.9 92.82 L 83.91 91.92 L 83.02 90.93 L 82.22 89.86 L 81.52 88.71 L 80.94 87.49 L 80.47 86.21 L 80.13 84.88 L 79.93 83.5 Z M 80.22 83.45 L 80.43 84.8 L 80.75 86.11 L 81.21 87.36 L 81.78 88.56 L 82.46 89.68 L 83.24 90.73 L 84.12 91.7 L 85.08 92.58 L 86.12 93.37 L 87.25 94.05 L 88.43 94.63 L 89.68 95.09 L 90.98 95.43 L 92.34 95.64 L 93.73 95.71 L 95.12 95.64 L 96.47 95.45 L 97.78 95.11 L 99.03 94.66 L 100.22 94.09 L 101.34 93.41 L 102.4 92.63 L 103.37 91.75 L 104.25 90.79 L 105.04 89.74 L 105.72 88.62 L 106.29 87.43 L 106.76 86.18 L 107.09 84.88 L 107.3 83.53 L 107.38 82.14 L 107.31 80.74 L 107.11 79.39 L 106.77 78.09 L 106.32 76.84 L 105.75 75.64 L 105.07 74.52 L 104.29 73.47 L 103.42 72.5 L 102.45 71.62 L 101.41 70.83 L 100.29 70.15 L 99.1 69.57 L 97.85 69.11 L 96.55 68.77 L 95.2 68.56 L 93.8 68.49 L 92.41 68.55 L 91.06 68.76 L 89.75 69.09 L 88.5 69.54 L 87.31 70.11 L 86.18 70.79 L 85.13 71.57 L 84.17 72.45 L 83.29 73.41 L 82.5 74.46 L 81.82 75.58 L 81.24 76.77 L 80.77 78.02 L 80.44 79.32 L 80.23 80.67 L 80.15 82.06 Z M 80.22 83.45 "/>
<path style=" stroke:none;fill-rule:nonzero;fill:rgb(0%,0%,0%);fill-opacity:1;" d="M 89.4 86.22 L 87.89 86.22 C 87.82 87.13 87.92 87.94 88.18 88.64 C 88.45 89.34 88.84 89.93 89.35 90.41 C 89.88 90.89 90.5 91.26 91.22 91.51 C 91.95 91.77 92.74 91.9 93.61 91.9 C 94.37 91.9 95.1 91.79 95.8 91.57 C 96.51 91.36 97.13 91.03 97.65 90.6 C 98.18 90.18 98.6 89.64 98.91 89.01 C 99.22 88.38 99.38 87.65 99.38 86.82 C 99.38 85.72 99.08 84.8 98.48 84.06 C 97.88 83.32 97.03 82.86 95.93 82.68 L 95.93 82.63 C 96.84 82.41 97.53 81.96 98.01 81.29 C 98.5 80.62 98.75 79.83 98.75 78.93 C 98.75 78.17 98.6 77.53 98.3 77 C 98.02 76.46 97.62 76.02 97.13 75.68 C 96.65 75.34 96.1 75.08 95.48 74.92 C 94.85 74.75 94.21 74.66 93.56 74.66 C 92.75 74.66 92.02 74.8 91.36 75.08 C 90.71 75.36 90.15 75.75 89.69 76.24 C 89.24 76.72 88.89 77.3 88.64 77.97 C 88.39 78.64 88.27 79.37 88.27 80.17 L 89.77 80.17 C 89.76 79.54 89.83 78.98 89.98 78.46 C 90.15 77.94 90.39 77.49 90.72 77.12 C 91.05 76.74 91.45 76.45 91.92 76.25 C 92.41 76.04 92.96 75.94 93.58 75.94 C 94.1 75.94 94.57 76 95.01 76.11 C 95.45 76.23 95.83 76.42 96.16 76.68 C 96.5 76.95 96.76 77.28 96.95 77.67 C 97.14 78.05 97.24 78.53 97.24 79.09 C 97.24 79.62 97.13 80.08 96.92 80.46 C 96.72 80.84 96.46 81.16 96.13 81.41 C 95.8 81.65 95.44 81.83 95.03 81.96 C 94.62 82.07 94.23 82.13 93.85 82.13 L 92.58 82.13 L 92.58 83.4 L 93.85 83.4 C 94.4 83.4 94.92 83.47 95.41 83.61 C 95.89 83.75 96.32 83.97 96.69 84.27 C 97.05 84.57 97.34 84.93 97.55 85.38 C 97.77 85.82 97.87 86.34 97.87 86.95 C 97.87 87.54 97.75 88.06 97.51 88.52 C 97.27 88.98 96.95 89.37 96.55 89.69 C 96.15 90.01 95.7 90.25 95.18 90.41 C 94.68 90.57 94.14 90.65 93.58 90.65 C 92.91 90.65 92.31 90.54 91.77 90.33 C 91.24 90.11 90.8 89.82 90.44 89.43 C 90.08 89.05 89.81 88.59 89.62 88.04 C 89.44 87.5 89.37 86.89 89.4 86.22 Z M 89.4 86.22 "/>
<path style=" stroke:none;fill-rule:evenodd;fill:rgb(100%,100%,100%);fill-opacity:1;" d="M 134.12 118.47 C 134.12 110.54 140.55 104.11 148.48 104.11 C 156.41 104.11 162.84 110.54 162.84 118.47 C 162.84 126.4 156.41 132.83 148.48 132.83 C 140.55 132.83 134.12 126.4 134.12 118.47 Z M 134.12 118.47 "/>
<path style=" stroke:none;fill-rule:nonzero;fill:rgb(0%,0%,0%);fill-opacity:1;" d="M 133.38 118.51 L 133.45 116.96 L 133.68 115.46 L 134.05 114.02 L 134.55 112.62 L 135.18 111.3 L 135.94 110.05 L 136.81 108.89 L 137.78 107.82 L 138.85 106.84 L 140.01 105.96 L 141.25 105.21 L 142.57 104.57 L 143.96 104.05 L 145.4 103.68 L 146.9 103.45 L 148.45 103.36 L 149.99 103.44 L 151.49 103.66 L 152.94 104.03 L 154.33 104.54 L 155.65 105.17 L 156.9 105.93 L 158.07 106.79 L 159.14 107.77 L 160.12 108.84 L 160.99 109.99 L 161.75 111.24 L 162.39 112.55 L 162.9 113.94 L 163.27 115.39 L 163.51 116.89 L 163.59 118.43 L 163.52 119.98 L 163.29 121.48 L 162.93 122.93 L 162.42 124.32 L 161.78 125.64 L 161.03 126.89 L 160.16 128.05 L 159.19 129.12 L 158.12 130.1 L 156.96 130.98 L 155.72 131.73 L 154.4 132.38 L 153.01 132.89 L 151.57 133.26 L 150.07 133.5 L 148.52 133.58 L 146.98 133.5 L 145.48 133.28 L 144.03 132.91 L 142.64 132.41 L 141.31 131.77 L 140.07 131.02 L 138.9 130.15 L 137.83 129.18 L 136.85 128.11 L 135.98 126.95 L 135.22 125.7 L 134.58 124.38 L 134.07 123 L 133.69 121.55 L 133.46 120.05 Z M 134.34 119.92 L 134.56 121.33 L 134.91 122.69 L 135.39 124 L 135.98 125.24 L 136.7 126.41 L 137.52 127.5 L 138.43 128.52 L 139.44 129.43 L 140.54 130.25 L 141.7 130.96 L 142.95 131.56 L 144.25 132.04 L 145.61 132.39 L 147.02 132.61 L 148.48 132.68 L 149.93 132.61 L 151.34 132.39 L 152.7 132.04 L 154.01 131.57 L 155.25 130.97 L 156.42 130.26 L 157.52 129.44 L 158.53 128.52 L 159.45 127.51 L 160.27 126.42 L 160.98 125.25 L 161.58 124.01 L 162.05 122.7 L 162.4 121.34 L 162.62 119.93 L 162.7 118.48 L 162.62 117.02 L 162.41 115.61 L 162.05 114.25 L 161.58 112.95 L 160.98 111.7 L 160.27 110.53 L 159.45 109.43 L 158.54 108.43 L 157.53 107.51 L 156.43 106.69 L 155.26 105.98 L 154.02 105.38 L 152.72 104.9 L 151.36 104.55 L 149.95 104.34 L 148.49 104.26 L 147.04 104.33 L 145.62 104.55 L 144.27 104.9 L 142.96 105.37 L 141.72 105.97 L 140.55 106.68 L 139.45 107.5 L 138.44 108.42 L 137.52 109.43 L 136.71 110.52 L 135.99 111.69 L 135.39 112.93 L 134.91 114.24 L 134.56 115.6 L 134.35 117.01 L 134.28 118.46 Z M 134.57 118.45 L 134.65 117.02 L 134.86 115.64 L 135.21 114.31 L 135.67 113.04 L 136.26 111.82 L 136.96 110.67 L 137.77 109.61 L 138.66 108.62 L 139.65 107.72 L 140.73 106.92 L 141.88 106.23 L 143.09 105.64 L 144.37 105.18 L 145.7 104.84 L 147.08 104.63 L 148.51 104.56 L 149.93 104.63 L 151.31 104.85 L 152.64 105.19 L 153.92 105.66 L 155.13 106.25 L 156.28 106.95 L 157.35 107.75 L 158.34 108.65 L 159.23 109.64 L 160.03 110.71 L 160.73 111.86 L 161.31 113.08 L 161.78 114.36 L 162.12 115.69 L 162.32 117.07 L 162.39 118.49 L 162.32 119.92 L 162.11 121.3 L 161.76 122.63 L 161.29 123.91 L 160.71 125.12 L 160.01 126.27 L 159.2 127.33 L 158.3 128.32 L 157.32 129.22 L 156.25 130.02 L 155.09 130.71 L 153.88 131.3 L 152.6 131.76 L 151.27 132.11 L 149.88 132.31 L 148.46 132.38 L 147.04 132.31 L 145.66 132.09 L 144.32 131.75 L 143.05 131.28 L 141.84 130.69 L 140.69 129.99 L 139.62 129.19 L 138.63 128.29 L 137.74 127.3 L 136.93 126.23 L 136.24 125.08 L 135.66 123.86 L 135.19 122.59 L 134.85 121.25 L 134.64 119.87 Z M 134.94 119.83 L 135.14 121.18 L 135.48 122.48 L 135.93 123.73 L 136.5 124.93 L 137.18 126.05 L 137.96 127.1 L 138.83 128.07 L 139.8 128.95 L 140.84 129.74 L 141.96 130.42 L 143.15 131 L 144.4 131.46 L 145.7 131.8 L 147.05 132.01 L 148.45 132.08 L 149.84 132.02 L 151.19 131.81 L 152.5 131.48 L 153.75 131.03 L 154.94 130.46 L 156.07 129.78 L 157.12 129 L 158.08 128.12 L 158.96 127.16 L 159.75 126.11 L 160.43 124.99 L 161.01 123.8 L 161.48 122.55 L 161.82 121.25 L 162.02 119.9 L 162.1 118.51 L 162.03 117.12 L 161.82 115.76 L 161.5 114.46 L 161.04 113.21 L 160.47 112.02 L 159.79 110.89 L 159.01 109.84 L 158.13 108.87 L 157.17 107.99 L 156.12 107.2 L 155 106.52 L 153.82 105.94 L 152.57 105.48 L 151.27 105.14 L 149.91 104.93 L 148.52 104.86 L 147.13 104.93 L 145.78 105.13 L 144.47 105.46 L 143.22 105.91 L 142.03 106.48 L 140.91 107.16 L 139.85 107.95 L 138.88 108.82 L 138 109.79 L 137.21 110.83 L 136.53 111.95 L 135.95 113.14 L 135.5 114.39 L 135.16 115.69 L 134.95 117.04 L 134.87 118.43 Z M 134.94 119.83 "/>
<path style=" stroke:none;fill-rule:nonzero;fill:rgb(0%,0%,0%);fill-opacity:1;" d="M 144.19 123.14 L 142.68 123.14 C 142.7 123.95 142.85 124.67 143.14 125.31 C 143.42 125.95 143.81 126.48 144.29 126.92 C 144.78 127.36 145.35 127.69 146.01 127.93 C 146.67 128.16 147.39 128.28 148.18 128.28 C 148.98 128.28 149.73 128.14 150.44 127.86 C 151.14 127.57 151.77 127.19 152.3 126.69 C 152.83 126.18 153.24 125.58 153.54 124.89 C 153.84 124.2 153.99 123.44 153.99 122.62 C 153.99 121.78 153.86 121 153.59 120.3 C 153.34 119.59 152.96 118.97 152.47 118.46 C 151.99 117.95 151.4 117.55 150.71 117.27 C 150.01 116.98 149.23 116.84 148.37 116.84 C 147.7 116.84 147.04 116.97 146.41 117.25 C 145.77 117.51 145.25 117.89 144.83 118.39 L 144.79 118.34 L 145.86 112.79 L 153.19 112.79 L 153.19 111.4 L 144.81 111.4 L 143.18 120.09 L 144.47 120.09 C 144.89 119.45 145.43 118.96 146.08 118.61 C 146.74 118.27 147.44 118.1 148.21 118.1 C 148.83 118.1 149.4 118.21 149.93 118.44 C 150.46 118.66 150.91 118.97 151.28 119.36 C 151.66 119.75 151.95 120.21 152.16 120.74 C 152.37 121.26 152.48 121.83 152.48 122.46 C 152.48 123.07 152.38 123.64 152.19 124.2 C 152.01 124.74 151.73 125.23 151.36 125.66 C 150.99 126.08 150.56 126.41 150.04 126.66 C 149.53 126.91 148.96 127.03 148.3 127.03 C 147.72 127.03 147.18 126.94 146.69 126.76 C 146.2 126.57 145.77 126.3 145.4 125.96 C 145.04 125.62 144.74 125.21 144.53 124.73 C 144.32 124.25 144.2 123.72 144.19 123.14 Z M 144.19 123.14 "/>
<path style="fill:none;stroke-width:1.5;stroke-linecap:round;stroke-linejoin:round;stroke:rgb(0%,0%,0%);stroke-opacity:1;stroke-miterlimit:10;" d="M 15.15 96.73 L 15.15 133.51 " transform="matrix(1,0,0,1,0.72,0)"/>
<path style="fill:none;stroke-width:1.5;stroke-linecap:round;stroke-linejoin:round;stroke:rgb(0%,0%,0%);stroke-opacity:1;stroke-miterlimit:10;" d="M 29.55 82.33 L 78.91 82.33 " transform="matrix(1,0,0,1,0.72,0)"/>
<path style="fill:none;stroke-width:1.5;stroke-linecap:round;stroke-linejoin:round;stroke:rgb(0%,0%,0%);stroke-opacity:1;stroke-miterlimit:10;" d="M 93.31 96.73 L 93.31 133.51 " transform="matrix(1,0,0,1,0.72,0)"/>
<path style="fill:none;stroke-width:1.5;stroke-linecap:round;stroke-linejoin:round;stroke:rgb(0%,0%,0%);stroke-opacity:1;stroke-miterlimit:10;" d="M 107.72 82.33 L 138.01 108.62 " transform="matrix(1,0,0,1,0.72,0)"/>
<path style="fill:none;stroke-width:1.5;stroke-linecap:round;stroke-linejoin:round;stroke:rgb(0%,0%,0%);stroke-opacity:1;stroke-miterlimit:10;" d="M 107.72 147.91 L 138.01 128.99 " transform="matrix(1,0,0,1,0.72,0)"/>
<path style=" stroke:none;fill-rule:evenodd;fill:rgb(0%,69.02%,31.37%);fill-opacity:1;" d="M 319.28 33.76 L 387.09 33.76 L 387.09 27.78 L 399.05 39.74 L 387.09 51.71 L 387.09 45.73 L 319.28 45.73 Z M 319.28 33.76 "/>
<path style=" stroke:none;fill-rule:nonzero;fill:rgb(18.43%,38.43%,19.22%);fill-opacity:1;" d="M 317.39 31.88 L 385.2 31.88 L 385.2 23.23 L 401.72 39.74 L 385.2 56.26 L 385.2 47.61 L 317.39 47.61 Z M 319.66 45.35 L 387.46 45.35 L 387.46 50.8 L 398.52 39.74 L 387.46 28.68 L 387.46 34.13 L 319.66 34.13 Z M 320.41 34.89 L 388.22 34.89 L 388.22 30.5 L 397.45 39.74 L 388.22 48.98 L 388.22 44.59 L 320.41 44.59 Z M 321.16 43.84 L 388.97 43.84 L 388.97 47.16 L 396.39 39.74 L 388.97 32.33 L 388.97 35.64 L 321.16 35.64 Z M 321.16 43.84 "/>
<path style=" stroke:none;fill-rule:nonzero;fill:rgb(0%,0%,0%);fill-opacity:1;" d="M 211.56 115.27 L 230.85 115.27 L 228.07 111.93 L 229.21 110.95 L 237.78 119.53 L 237.78 120.65 L 229.21 129.22 L 228.07 128.26 L 230.89 124.87 L 211.54 124.87 L 214.36 128.26 L 213.22 129.22 L 204.65 120.65 L 204.65 119.53 L 213.22 110.95 L 214.36 111.93 Z M 232.66 117.61 L 209.77 117.61 L 207.75 120.09 L 209.74 122.55 L 232.68 122.55 L 234.67 120.09 Z M 232.66 117.61 "/>
<path style=" stroke:none;fill-rule:evenodd;fill:rgb(37.65%,70.98%,80%);fill-opacity:1;" d="M 472.34 89.55 L 472.34 157.36 L 478.32 157.36 L 466.35 169.32 L 454.39 157.36 L 460.37 157.36 L 460.37 89.55 Z M 472.34 89.55 "/>
<path style=" stroke:none;fill-rule:nonzero;fill:rgb(14.12%,38.04%,44.71%);fill-opacity:1;" d="M 474.22 87.66 L 474.22 155.47 L 482.87 155.47 L 466.35 171.98 L 449.84 155.47 L 458.49 155.47 L 458.49 87.66 Z M 460.75 89.93 L 460.75 157.73 L 455.3 157.73 L 466.35 168.79 L 477.41 157.73 L 471.96 157.73 L 471.96 89.93 Z M 471.2 90.68 L 471.2 158.49 L 475.59 158.49 L 466.35 167.72 L 457.12 158.49 L 461.5 158.49 L 461.5 90.68 Z M 462.25 91.43 L 462.25 159.24 L 458.94 159.24 L 466.35 166.66 L 473.77 159.24 L 470.45 159.24 L 470.45 91.43 Z M 462.25 91.43 "/>
<path style=" stroke:none;fill-rule:nonzero;fill:rgb(0%,0%,0%);fill-opacity:1;" d="M 25.2 187.52 C 25.2 186.58 25.28 186.46 26.8 186.46 L 26.8 185.82 C 26.21 185.87 24.87 185.87 24.2 185.87 C 23.52 185.87 21.58 185.85 20.65 185.82 L 20.65 186.46 L 21.39 186.46 C 23.52 186.46 23.56 186.74 23.56 187.63 L 23.56 189.25 C 23.56 191.98 20.35 192.19 19.59 192.19 C 17.05 192.19 12.86 190.45 12.86 184 C 12.86 177.55 16.97 175.82 19.37 175.82 C 22.16 175.82 24.18 178.23 24.65 181.68 C 24.7 181.97 24.7 182.02 24.92 182.02 C 25.2 182.02 25.2 181.97 25.2 181.52 L 25.2 175.66 C 25.2 175.23 25.17 175.2 25.03 175.2 C 24.92 175.2 24.9 175.23 24.73 175.52 L 23.64 177.59 C 22.43 176.05 20.95 175.16 19.04 175.16 C 14.82 175.16 10.99 178.9 10.99 184 C 10.99 189.06 14.74 192.83 19.09 192.83 C 21.1 192.83 23.05 192.11 23.81 190.71 C 24.23 191.73 24.92 192.41 25.04 192.41 C 25.17 192.41 25.2 192.39 25.2 191.94 Z M 25.2 187.52 "/>
<path style=" stroke:none;fill-rule:nonzero;fill:rgb(0%,0%,0%);fill-opacity:1;" d="M 31.51 186.61 C 31.51 184.23 32.52 182.02 34.38 182.02 C 34.55 182.02 34.72 182.04 34.89 182.11 C 34.89 182.11 34.34 182.29 34.34 182.92 C 34.34 183.52 34.81 183.76 35.18 183.76 C 35.48 183.76 36.03 183.59 36.03 182.91 C 36.03 182.11 35.23 181.61 34.39 181.61 C 32.52 181.61 31.71 183.45 31.46 184.31 L 31.43 184.31 L 31.43 181.61 L 28.56 181.89 L 28.56 182.53 C 30.03 182.53 30.25 182.69 30.25 183.87 L 30.25 190.74 C 30.25 191.68 30.15 191.8 28.56 191.8 L 28.56 192.44 C 29.16 192.39 30.29 192.39 30.93 192.39 C 31.65 192.39 32.91 192.39 33.58 192.44 L 33.58 191.8 C 31.8 191.8 31.51 191.8 31.51 190.68 Z M 31.51 186.61 "/>
<path style=" stroke:none;fill-rule:nonzero;fill:rgb(0%,0%,0%);fill-opacity:1;" d="M 45.45 186.04 C 45.45 184.42 45.45 183.54 44.41 182.58 C 43.5 181.77 42.43 181.52 41.6 181.52 C 39.64 181.52 38.23 183.05 38.23 184.68 C 38.23 185.6 38.97 185.65 39.12 185.65 C 39.45 185.65 40.01 185.45 40.01 184.76 C 40.01 184.14 39.54 183.87 39.12 183.87 C 39.03 183.87 38.91 183.89 38.83 183.92 C 39.34 182.36 40.68 181.91 41.54 181.91 C 42.79 181.91 44.14 183 44.14 185.07 L 44.14 186.16 C 42.68 186.21 40.93 186.41 39.54 187.16 C 37.98 188.02 37.54 189.25 37.54 190.2 C 37.54 192.1 39.76 192.64 41.07 192.64 C 42.43 192.64 43.69 191.88 44.23 190.46 C 44.28 191.55 44.98 192.54 46.07 192.54 C 46.59 192.54 47.89 192.19 47.89 190.25 L 47.89 188.86 L 47.44 188.86 L 47.44 190.26 C 47.44 191.77 46.79 191.98 46.46 191.98 C 45.45 191.98 45.45 190.68 45.45 189.61 Z M 44.14 189.02 C 44.14 191.16 42.61 192.24 41.24 192.24 C 40.01 192.24 39.05 191.34 39.05 190.2 C 39.05 189.45 39.38 188.14 40.8 187.35 C 41.99 186.68 43.35 186.58 44.14 186.54 Z M 44.14 189.02 "/>
<path style=" stroke:none;fill-rule:nonzero;fill:rgb(0%,0%,0%);fill-opacity:1;" d="M 53.32 196.62 C 51.73 196.62 51.64 196.52 51.64 195.56 L 51.64 190.93 C 52.36 191.98 53.4 192.64 54.71 192.64 C 57.17 192.64 59.68 190.46 59.68 187.1 C 59.68 184 57.53 181.61 54.98 181.61 C 53.5 181.61 52.28 182.44 51.59 183.42 L 51.59 181.61 L 48.65 181.89 L 48.65 182.53 C 50.12 182.53 50.34 182.69 50.34 183.87 L 50.34 195.56 C 50.34 196.49 50.24 196.62 48.65 196.62 L 48.65 197.25 C 49.24 197.21 50.34 197.21 50.97 197.21 C 51.61 197.21 52.73 197.21 53.32 197.25 Z M 51.64 184.68 C 51.64 184.34 51.64 183.81 52.61 182.91 C 52.73 182.8 53.57 182.07 54.8 182.07 C 56.61 182.07 58.09 184.31 58.09 187.13 C 58.09 189.95 56.52 192.24 54.55 192.24 C 53.67 192.24 52.7 191.82 51.97 190.66 C 51.64 190.12 51.64 189.96 51.64 189.57 Z M 51.64 184.68 "/>
<path style=" stroke:none;fill-rule:nonzero;fill:rgb(0%,0%,0%);fill-opacity:1;" d="M 70.77 184.93 C 70.77 183.67 70.52 181.61 67.61 181.61 C 65.58 181.61 64.6 183.25 64.3 184.06 L 64.27 184.06 L 64.27 175.29 L 61.32 175.57 L 61.32 176.21 C 62.79 176.21 63.01 176.36 63.01 177.55 L 63.01 190.74 C 63.01 191.68 62.91 191.8 61.32 191.8 L 61.32 192.44 C 61.92 192.39 63.01 192.39 63.65 192.39 C 64.3 192.39 65.41 192.39 66 192.44 L 66 191.8 C 64.43 191.8 64.32 191.7 64.32 190.74 L 64.32 185.99 C 64.32 183.71 65.7 182.02 67.43 182.02 C 69.26 182.02 69.46 183.64 69.46 184.84 L 69.46 190.74 C 69.46 191.68 69.37 191.8 67.78 191.8 L 67.78 192.44 C 68.37 192.39 69.46 192.39 70.1 192.39 C 70.75 192.39 71.86 192.39 72.45 192.44 L 72.45 191.8 C 70.88 191.8 70.77 191.7 70.77 190.74 Z M 70.77 184.93 "/>
<path style=" stroke:none;fill-rule:nonzero;fill:rgb(0%,0%,0%);fill-opacity:1;" d="M 99.04 175.27 C 99.04 175.04 98.86 175.04 98.82 175.04 C 98.77 175.04 98.66 175.04 98.47 175.29 L 96.76 177.34 C 96.64 177.14 96.15 176.29 95.19 175.71 C 94.13 175.04 93.05 175.04 92.7 175.04 C 87.4 175.04 81.84 180.43 81.84 186.27 C 81.84 190.34 84.66 192.96 88.36 192.96 C 90.14 192.96 92.4 192.36 93.63 190.8 C 93.89 191.76 94.44 192.41 94.61 192.41 C 94.73 192.41 94.77 192.35 94.78 192.35 C 94.81 192.29 95.02 191.43 95.14 190.98 L 95.53 189.4 C 95.73 188.59 95.82 188.23 96 187.5 C 96.25 186.57 96.29 186.49 97.65 186.46 C 97.76 186.46 98.05 186.46 98.05 185.99 C 98.05 185.74 97.8 185.74 97.73 185.74 C 97.3 185.74 96.84 185.79 96.39 185.79 L 95.06 185.79 C 94.02 185.79 92.93 185.74 91.91 185.74 C 91.7 185.74 91.4 185.74 91.4 186.2 C 91.4 186.45 91.61 186.45 91.61 186.46 L 92.21 186.46 C 94.18 186.46 94.18 186.66 94.18 187.04 C 94.18 187.05 93.71 189.54 93.22 190.29 C 92.29 191.68 90.34 192.24 88.88 192.24 C 86.98 192.24 83.89 191.26 83.89 186.97 C 83.89 185.32 84.48 181.55 86.88 178.75 C 88.44 176.97 90.73 175.75 92.91 175.75 C 95.82 175.75 96.87 178.27 96.87 180.54 C 96.87 180.93 96.76 181.47 96.76 181.82 C 96.76 182.04 97.01 182.04 97.09 182.04 C 97.35 182.04 97.38 182.02 97.48 181.57 Z M 99.04 175.27 "/>
<path style=" stroke:none;fill-rule:nonzero;fill:rgb(0%,69.02%,8.24%);fill-opacity:1;" d="M 262.46 2.94 C 262.29 2.66 262.26 2.64 261.79 2.64 L 258.66 2.64 L 258.66 3.29 L 259.13 3.29 C 260.11 3.29 260.56 3.41 260.64 3.44 L 260.64 17.1 C 260.64 17.71 260.64 18.88 258.66 18.88 L 258.66 19.52 C 259.22 19.47 260.27 19.47 260.89 19.47 C 261.5 19.47 262.54 19.47 263.1 19.52 L 263.1 18.88 C 261.12 18.88 261.12 17.71 261.12 17.1 L 261.12 3.78 C 261.31 3.92 261.31 3.97 261.48 4.22 L 270.64 19.22 C 270.81 19.52 270.89 19.52 271.02 19.52 C 271.27 19.52 271.27 19.44 271.27 18.97 L 271.27 5.06 C 271.27 4.45 271.27 3.29 273.24 3.29 L 273.24 2.64 C 272.67 2.69 271.64 2.69 271.02 2.69 C 270.39 2.69 269.36 2.69 268.79 2.64 L 268.79 3.29 C 270.77 3.29 270.77 4.45 270.77 5.06 L 270.77 16.51 Z M 262.46 2.94 "/>
<path style=" stroke:none;fill-rule:nonzero;fill:rgb(0%,69.02%,8.24%);fill-opacity:1;" d="M 285.2 14.24 C 285.2 11.07 282.89 8.6 280.19 8.6 C 277.5 8.6 275.21 11.07 275.21 14.24 C 275.21 17.34 277.5 19.72 280.19 19.72 C 282.89 19.72 285.2 17.34 285.2 14.24 Z M 280.19 19.27 C 279.04 19.27 278.04 18.59 277.48 17.62 C 276.86 16.51 276.78 15.12 276.78 14.04 C 276.78 12.99 276.83 11.71 277.48 10.59 C 277.96 9.78 278.93 8.99 280.19 8.99 C 281.32 8.99 282.25 9.61 282.84 10.48 C 283.61 11.64 283.61 13.27 283.61 14.04 C 283.61 15 283.56 16.48 282.89 17.66 C 282.2 18.8 281.13 19.27 280.19 19.27 Z M 280.19 19.27 "/>
<path style=" stroke:none;fill-rule:nonzero;fill:rgb(0%,69.02%,8.24%);fill-opacity:1;" d="M 293.73 2.64 L 293.73 3.29 C 295.19 3.29 295.41 3.44 295.41 4.62 L 295.41 10.41 C 295.32 10.28 294.3 8.69 292.3 8.69 C 289.77 8.69 287.32 10.95 287.32 14.21 C 287.32 17.45 289.63 19.72 292.05 19.72 C 294.15 19.72 295.24 18.09 295.36 17.91 L 295.36 19.72 L 298.36 19.52 L 298.36 18.88 C 296.89 18.88 296.67 18.72 296.67 17.54 L 296.67 2.36 Z M 295.36 16.56 C 295.36 17.29 294.91 17.96 294.35 18.46 C 293.51 19.19 292.67 19.32 292.2 19.32 C 291.48 19.32 288.91 18.96 288.91 14.24 C 288.91 9.39 291.78 9.09 292.42 9.09 C 293.56 9.09 294.48 9.73 295.04 10.62 C 295.36 11.14 295.36 11.21 295.36 11.66 Z M 295.36 16.56 "/>
<path style=" stroke:none;fill-rule:nonzero;fill:rgb(0%,69.02%,8.24%);fill-opacity:1;" d="M 308.55 13.71 C 308.66 13.61 308.66 13.57 308.66 13.32 C 308.66 10.79 307.32 8.6 304.5 8.6 C 301.88 8.6 299.81 11.09 299.81 14.13 C 299.81 17.34 302.15 19.72 304.79 19.72 C 307.54 19.72 308.63 17.1 308.63 16.57 C 308.63 16.4 308.49 16.4 308.43 16.4 C 308.26 16.4 308.24 16.45 308.13 16.75 C 307.59 18.43 306.23 19.27 304.95 19.27 C 303.89 19.27 302.82 18.68 302.15 17.59 C 301.39 16.32 301.39 14.88 301.39 13.71 Z M 301.42 13.35 C 301.59 9.78 303.49 8.99 304.49 8.99 C 306.16 8.99 307.29 10.57 307.32 13.35 Z M 301.42 13.35 "/>
<path style=" stroke:none;fill-rule:nonzero;fill:rgb(0%,69.02%,8.24%);fill-opacity:1;" d="M 309.28 13.66 L 315.48 13.66 L 315.48 14.75 L 309.28 14.75 Z M 309.28 13.66 "/>
<path style=" stroke:none;fill-rule:nonzero;fill:rgb(0%,69.02%,8.24%);fill-opacity:1;" d="M 320.43 2.36 L 317.49 2.64 L 317.49 3.29 C 318.94 3.29 319.17 3.44 319.17 4.62 L 319.17 17.82 C 319.17 18.75 319.06 18.88 317.49 18.88 L 317.49 19.52 C 318.08 19.47 319.17 19.47 319.78 19.47 C 320.43 19.47 321.51 19.47 322.12 19.52 L 322.12 18.88 C 320.53 18.88 320.43 18.77 320.43 17.82 Z M 320.43 2.36 "/>
<path style=" stroke:none;fill-rule:nonzero;fill:rgb(0%,69.02%,8.24%);fill-opacity:1;" d="M 332.23 13.71 C 332.34 13.61 332.34 13.57 332.34 13.32 C 332.34 10.79 331 8.6 328.18 8.6 C 325.56 8.6 323.49 11.09 323.49 14.13 C 323.49 17.34 325.82 19.72 328.46 19.72 C 331.21 19.72 332.3 17.1 332.3 16.57 C 332.3 16.4 332.17 16.4 332.11 16.4 C 331.93 16.4 331.92 16.45 331.81 16.75 C 331.26 18.43 329.91 19.27 328.63 19.27 C 327.57 19.27 326.5 18.68 325.82 17.59 C 325.06 16.32 325.06 14.88 325.06 13.71 Z M 325.09 13.35 C 325.27 9.78 327.16 8.99 328.16 8.99 C 329.83 8.99 330.97 10.57 331 13.35 Z M 325.09 13.35 "/>
<path style=" stroke:none;fill-rule:nonzero;fill:rgb(0%,69.02%,8.24%);fill-opacity:1;" d="M 342.52 11.12 C 342.74 10.57 343.15 9.58 344.58 9.53 L 344.58 8.89 C 344.11 8.92 343.49 8.94 343.02 8.94 C 342.51 8.94 341.68 8.94 341.18 8.89 L 341.18 9.53 C 341.81 9.58 342.15 9.88 342.15 10.53 C 342.15 10.75 342.15 10.79 342.01 11.14 L 339.28 18.01 L 336.36 10.59 C 336.2 10.28 336.2 10.23 336.2 10.12 C 336.2 9.53 337.01 9.53 337.38 9.53 L 337.38 8.89 C 336.79 8.94 335.7 8.94 335.09 8.94 C 334.42 8.94 333.66 8.94 333.11 8.89 L 333.11 9.53 C 334.05 9.53 334.56 9.53 334.86 10.29 L 338.44 19.3 C 338.6 19.68 338.63 19.72 338.85 19.72 C 339.07 19.72 339.1 19.68 339.23 19.3 Z M 342.52 11.12 "/>
<path style=" stroke:none;fill-rule:nonzero;fill:rgb(0%,69.02%,8.24%);fill-opacity:1;" d="M 353.61 13.71 C 353.72 13.61 353.72 13.57 353.72 13.32 C 353.72 10.79 352.38 8.6 349.56 8.6 C 346.95 8.6 344.87 11.09 344.87 14.13 C 344.87 17.34 347.21 19.72 349.84 19.72 C 352.6 19.72 353.69 17.1 353.69 16.57 C 353.69 16.4 353.55 16.4 353.49 16.4 C 353.32 16.4 353.3 16.45 353.19 16.75 C 352.65 18.43 351.29 19.27 350.02 19.27 C 348.95 19.27 347.88 18.68 347.21 17.59 C 346.45 16.32 346.45 14.88 346.45 13.71 Z M 346.48 13.35 C 346.65 9.78 348.55 8.99 349.55 8.99 C 351.21 8.99 352.35 10.57 352.38 13.35 Z M 346.48 13.35 "/>
<path style=" stroke:none;fill-rule:nonzero;fill:rgb(0%,69.02%,8.24%);fill-opacity:1;" d="M 358.03 2.36 L 355.09 2.64 L 355.09 3.29 C 356.54 3.29 356.77 3.44 356.77 4.62 L 356.77 17.82 C 356.77 18.75 356.66 18.88 355.09 18.88 L 355.09 19.52 C 355.68 19.47 356.77 19.47 357.38 19.47 C 358.03 19.47 359.11 19.47 359.71 19.52 L 359.71 18.88 C 358.12 18.88 358.03 18.77 358.03 17.82 Z M 358.03 2.36 "/>
<path style=" stroke:none;fill-rule:nonzero;fill:rgb(0%,69.02%,8.24%);fill-opacity:1;" d="M 375.51 9.09 C 375.51 8.64 375.48 8.63 375.34 8.63 C 375.25 8.63 375.21 8.64 374.92 9.02 C 374.84 9.11 374.62 9.36 374.55 9.45 C 373.75 8.63 372.64 8.6 372.22 8.6 C 369.48 8.6 368.5 10.03 368.5 11.46 C 368.5 13.69 371.01 14.21 371.73 14.36 C 373.29 14.67 373.83 14.77 374.36 15.22 C 374.67 15.52 375.21 16.06 375.21 16.95 C 375.21 17.99 374.62 19.32 372.35 19.32 C 370.2 19.32 369.44 17.7 368.98 15.52 C 368.92 15.17 368.92 15.14 368.72 15.14 C 368.52 15.14 368.5 15.17 368.5 15.67 L 368.5 19.22 C 368.5 19.68 368.52 19.69 368.67 19.69 C 368.8 19.69 368.81 19.68 368.94 19.47 C 369.09 19.25 369.46 18.64 369.61 18.41 C 370.11 19.07 370.96 19.72 372.35 19.72 C 374.8 19.72 376.11 18.38 376.11 16.45 C 376.11 15.19 375.43 14.53 375.12 14.24 C 374.38 13.46 373.52 13.29 372.47 13.1 C 371.12 12.8 369.39 12.45 369.39 10.95 C 369.39 10.29 369.73 8.94 372.22 8.94 C 374.88 8.94 375.01 11.42 375.07 12.21 C 375.09 12.32 375.21 12.35 375.29 12.35 C 375.51 12.35 375.51 12.27 375.51 11.85 Z M 375.51 9.09 "/>
<path style=" stroke:none;fill-rule:nonzero;fill:rgb(0%,69.02%,8.24%);fill-opacity:1;" d="M 386.17 13.71 C 386.28 13.61 386.28 13.57 386.28 13.32 C 386.28 10.79 384.94 8.6 382.12 8.6 C 379.5 8.6 377.43 11.09 377.43 14.13 C 377.43 17.34 379.77 19.72 382.4 19.72 C 385.16 19.72 386.25 17.1 386.25 16.57 C 386.25 16.4 386.11 16.4 386.05 16.4 C 385.88 16.4 385.86 16.45 385.75 16.75 C 385.21 18.43 383.85 19.27 382.57 19.27 C 381.52 19.27 380.44 18.68 379.77 17.59 C 379 16.32 379 14.88 379 13.71 Z M 379.04 13.35 C 379.21 9.78 381.11 8.99 382.11 8.99 C 383.77 8.99 384.91 10.57 384.94 13.35 Z M 379.04 13.35 "/>
<path style=" stroke:none;fill-rule:nonzero;fill:rgb(0%,69.02%,8.24%);fill-opacity:1;" d="M 396.96 8.69 L 396.56 8.69 L 395.83 11.14 C 395.25 9.83 394.22 8.69 392.57 8.69 C 390.05 8.69 387.62 10.95 387.62 14.21 C 387.62 17.45 389.89 19.72 392.37 19.72 C 394.27 19.72 395.33 18.26 395.66 17.71 L 395.66 22.63 C 395.66 23.57 395.55 23.7 393.98 23.7 L 393.98 24.33 C 394.57 24.29 395.66 24.29 396.3 24.29 C 396.94 24.29 398.06 24.29 398.65 24.33 L 398.65 23.7 C 397.06 23.7 396.96 23.6 396.96 22.63 Z M 395.7 16.14 C 395.7 17.2 394.82 18.18 394.74 18.26 C 393.98 19.13 393.09 19.32 392.5 19.32 C 390.64 19.32 389.21 16.98 389.21 14.24 C 389.21 11.34 390.84 9.14 392.75 9.14 C 394.72 9.14 395.7 11.39 395.7 12.68 Z M 395.7 16.14 "/>
<path style=" stroke:none;fill-rule:nonzero;fill:rgb(0%,69.02%,8.24%);fill-opacity:1;" d="M 406.05 8.97 L 406.05 9.61 C 407.52 9.61 407.73 9.77 407.73 10.95 L 407.73 15.44 C 407.73 17.52 406.62 19.32 404.79 19.32 C 402.76 19.32 402.59 18.12 402.59 16.82 L 402.59 8.69 L 399.6 8.97 L 399.6 9.61 C 400.6 9.61 401.27 9.61 401.28 10.59 L 401.28 15.34 C 401.28 17 401.28 18.05 401.92 18.75 C 402.25 19.07 402.87 19.72 404.65 19.72 C 406.75 19.72 407.56 17.93 407.77 17.41 L 407.78 17.41 L 407.78 19.72 L 410.72 19.52 L 410.72 18.88 C 409.26 18.88 409.04 18.72 409.04 17.54 L 409.04 8.69 Z M 406.05 8.97 "/>
<path style=" stroke:none;fill-rule:nonzero;fill:rgb(0%,69.02%,8.24%);fill-opacity:1;" d="M 420.82 13.71 C 420.93 13.61 420.93 13.57 420.93 13.32 C 420.93 10.79 419.59 8.6 416.77 8.6 C 414.16 8.6 412.08 11.09 412.08 14.13 C 412.08 17.34 414.42 19.72 417.05 19.72 C 419.81 19.72 420.9 17.1 420.9 16.57 C 420.9 16.4 420.76 16.4 420.7 16.4 C 420.53 16.4 420.51 16.45 420.4 16.75 C 419.86 18.43 418.5 19.27 417.23 19.27 C 416.17 19.27 415.09 18.68 414.42 17.59 C 413.66 16.32 413.66 14.88 413.66 13.71 Z M 413.69 13.35 C 413.86 9.78 415.76 8.99 416.76 8.99 C 418.43 8.99 419.56 10.57 419.59 13.35 Z M 413.69 13.35 "/>
<path style=" stroke:none;fill-rule:nonzero;fill:rgb(0%,69.02%,8.24%);fill-opacity:1;" d="M 431.71 12.01 C 431.71 10.75 431.46 8.69 428.55 8.69 C 426.6 8.69 425.59 10.2 425.21 11.2 L 425.18 11.2 L 425.18 8.69 L 422.27 8.97 L 422.27 9.61 C 423.73 9.61 423.95 9.77 423.95 10.95 L 423.95 17.82 C 423.95 18.75 423.86 18.88 422.27 18.88 L 422.27 19.52 C 422.86 19.47 423.95 19.47 424.59 19.47 C 425.25 19.47 426.35 19.47 426.95 19.52 L 426.95 18.88 C 425.37 18.88 425.26 18.77 425.26 17.82 L 425.26 13.07 C 425.26 10.79 426.65 9.09 428.38 9.09 C 430.2 9.09 430.4 10.71 430.4 11.91 L 430.4 17.82 C 430.4 18.75 430.31 18.88 428.72 18.88 L 428.72 19.52 C 429.31 19.47 430.4 19.47 431.04 19.47 C 431.7 19.47 432.8 19.47 433.39 19.52 L 433.39 18.88 C 431.82 18.88 431.71 18.77 431.71 17.82 Z M 431.71 12.01 "/>
<path style=" stroke:none;fill-rule:nonzero;fill:rgb(0%,69.02%,8.24%);fill-opacity:1;" d="M 442.72 10.87 C 442.23 10.87 441.55 10.87 441.55 11.73 C 441.55 12.43 442.11 12.63 442.44 12.63 C 442.61 12.63 443.33 12.55 443.33 11.68 C 443.33 9.94 441.64 8.6 439.74 8.6 C 437.12 8.6 434.9 11.01 434.9 14.18 C 434.9 17.46 437.22 19.72 439.74 19.72 C 442.81 19.72 443.58 16.87 443.58 16.61 C 443.58 16.51 443.55 16.43 443.38 16.43 C 443.2 16.43 443.19 16.45 443.08 16.78 C 442.44 18.77 441.04 19.27 439.96 19.27 C 438.39 19.27 436.49 17.82 436.49 14.16 C 436.49 10.41 438.31 9.05 439.77 9.05 C 440.74 9.05 442.18 9.52 442.72 10.87 Z M 442.72 10.87 "/>
<path style=" stroke:none;fill-rule:nonzero;fill:rgb(0%,69.02%,8.24%);fill-opacity:1;" d="M 453.54 13.71 C 453.65 13.61 453.65 13.57 453.65 13.32 C 453.65 10.79 452.31 8.6 449.49 8.6 C 446.88 8.6 444.8 11.09 444.8 14.13 C 444.8 17.34 447.14 19.72 449.77 19.72 C 452.53 19.72 453.62 17.1 453.62 16.57 C 453.62 16.4 453.48 16.4 453.42 16.4 C 453.25 16.4 453.23 16.45 453.12 16.75 C 452.58 18.43 451.22 19.27 449.95 19.27 C 448.89 19.27 447.81 18.68 447.14 17.59 C 446.38 16.32 446.38 14.88 446.38 13.71 Z M 446.41 13.35 C 446.58 9.78 448.48 8.99 449.48 8.99 C 451.14 8.99 452.28 10.57 452.31 13.35 Z M 446.41 13.35 "/>
<path style=" stroke:none;fill-rule:nonzero;fill:rgb(0%,11.76%,100%);fill-opacity:1;" d="M 498.17 107.4 L 497.72 107.4 C 497.18 111.03 496.86 113.01 492.52 113.01 L 489.07 113.01 C 488.09 113.01 488.03 112.89 488.03 112.04 L 488.03 105.22 L 490.37 105.22 C 492.69 105.22 492.91 106.06 492.91 108.12 L 493.34 108.12 L 493.34 101.68 L 492.91 101.68 C 492.91 103.74 492.69 104.58 490.37 104.58 L 488.03 104.58 L 488.03 98.43 C 488.03 97.59 488.09 97.46 489.07 97.46 L 492.45 97.46 C 496.29 97.46 496.74 99 497.08 102.28 L 497.52 102.28 L 496.93 96.82 L 484.43 96.82 L 484.43 97.46 C 486.13 97.46 486.41 97.46 486.41 98.58 L 486.41 111.89 C 486.41 113.01 486.13 113.01 484.43 113.01 L 484.43 113.65 L 497.29 113.65 Z M 498.17 107.4 "/>
<path style=" stroke:none;fill-rule:nonzero;fill:rgb(0%,11.76%,100%);fill-opacity:1;" d="M 505.91 96.78 L 505.91 97.41 C 507.37 97.41 507.59 97.57 507.59 98.75 L 507.59 104.54 C 507.5 104.41 506.48 102.82 504.47 102.82 C 501.95 102.82 499.5 105.08 499.5 108.34 C 499.5 111.58 501.81 113.85 504.23 113.85 C 506.33 113.85 507.42 112.21 507.54 112.04 L 507.54 113.85 L 510.54 113.65 L 510.54 113.01 C 509.07 113.01 508.85 112.86 508.85 111.67 L 508.85 96.5 Z M 507.54 110.69 C 507.54 111.42 507.09 112.09 506.53 112.59 C 505.69 113.32 504.85 113.45 504.38 113.45 C 503.66 113.45 501.09 113.09 501.09 108.37 C 501.09 103.52 503.96 103.23 504.6 103.23 C 505.73 103.23 506.66 103.86 507.21 104.75 C 507.54 105.27 507.54 105.35 507.54 105.8 Z M 507.54 110.69 "/>
<path style=" stroke:none;fill-rule:nonzero;fill:rgb(0%,11.76%,100%);fill-opacity:1;" d="M 514.06 109.21 C 514.53 109.57 515.36 109.99 516.34 109.99 C 518.29 109.99 519.97 108.46 519.97 106.41 C 519.97 105.77 519.77 104.79 519.04 104 C 519.72 103.27 520.73 103.02 521.31 103.02 C 521.4 103.02 521.56 103.02 521.68 103.1 C 521.57 103.12 521.36 103.23 521.36 103.62 C 521.36 103.94 521.57 104.16 521.9 104.16 C 522.27 104.16 522.46 103.91 522.46 103.59 C 522.46 103.12 522.09 102.63 521.31 102.63 C 520.31 102.63 519.45 103.1 518.75 103.74 C 518.02 103.07 517.13 102.82 516.34 102.82 C 514.39 102.82 512.71 104.36 512.71 106.41 C 512.71 107.82 513.52 108.71 513.77 108.96 C 513.02 109.82 513.02 110.83 513.02 110.95 C 513.02 111.59 513.27 112.54 514.11 113.06 C 512.83 113.39 511.82 114.37 511.82 115.6 C 511.82 117.38 514.16 118.7 516.98 118.7 C 519.7 118.7 522.15 117.44 522.15 115.58 C 522.15 112.21 518.49 112.21 516.59 112.21 C 516.01 112.21 515 112.21 514.88 112.18 C 514.11 112.06 513.6 111.38 513.6 110.52 C 513.6 110.29 513.6 109.74 514.06 109.21 Z M 516.34 109.57 C 514.16 109.57 514.16 106.9 514.16 106.41 C 514.16 105.92 514.16 103.24 516.34 103.24 C 518.52 103.24 518.52 105.92 518.52 106.41 C 518.52 106.9 518.52 109.57 516.34 109.57 Z M 516.98 118.28 C 514.52 118.28 512.8 116.97 512.8 115.6 C 512.8 114.83 513.22 114.12 513.77 113.73 C 514.39 113.31 514.64 113.31 516.31 113.31 C 518.33 113.31 521.15 113.31 521.15 115.6 C 521.15 116.97 519.45 118.28 516.98 118.28 Z M 516.98 118.28 "/>
<path style=" stroke:none;fill-rule:nonzero;fill:rgb(0%,11.76%,100%);fill-opacity:1;" d="M 532.07 107.84 C 532.18 107.75 532.18 107.7 532.18 107.45 C 532.18 104.93 530.84 102.73 528.02 102.73 C 525.4 102.73 523.33 105.22 523.33 108.26 C 523.33 111.47 525.66 113.85 528.3 113.85 C 531.05 113.85 532.14 111.23 532.14 110.71 C 532.14 110.54 532 110.54 531.94 110.54 C 531.77 110.54 531.75 110.58 531.65 110.88 C 531.1 112.56 529.75 113.4 528.47 113.4 C 527.41 113.4 526.33 112.81 525.66 111.72 C 524.9 110.46 524.9 109.01 524.9 107.84 Z M 524.93 107.48 C 525.1 103.91 527 103.12 528 103.12 C 529.67 103.12 530.8 104.71 530.84 107.48 Z M 524.93 107.48 "/>
<path style=" stroke:none;fill-rule:nonzero;fill:rgb(0%,11.76%,100%);fill-opacity:1;" d="M 532.8 107.79 L 539 107.79 L 539 108.88 L 532.8 108.88 Z M 532.8 107.79 "/>
<path style=" stroke:none;fill-rule:nonzero;fill:rgb(0%,11.76%,100%);fill-opacity:1;" d="M 543.95 96.5 L 541 96.78 L 541 97.41 C 542.45 97.41 542.69 97.57 542.69 98.75 L 542.69 111.95 C 542.69 112.89 542.57 113.01 541 113.01 L 541 113.65 C 541.59 113.6 542.69 113.6 543.29 113.6 C 543.95 113.6 545.02 113.6 545.63 113.65 L 545.63 113.01 C 544.04 113.01 543.95 112.9 543.95 111.95 Z M 543.95 96.5 "/>
<path style=" stroke:none;fill-rule:nonzero;fill:rgb(0%,11.76%,100%);fill-opacity:1;" d="M 555.74 107.84 C 555.85 107.75 555.85 107.7 555.85 107.45 C 555.85 104.93 554.51 102.73 551.69 102.73 C 549.07 102.73 547 105.22 547 108.26 C 547 111.47 549.34 113.85 551.97 113.85 C 554.73 113.85 555.82 111.23 555.82 110.71 C 555.82 110.54 555.68 110.54 555.62 110.54 C 555.45 110.54 555.43 110.58 555.32 110.88 C 554.78 112.56 553.42 113.4 552.14 113.4 C 551.08 113.4 550.01 112.81 549.34 111.72 C 548.57 110.46 548.57 109.01 548.57 107.84 Z M 548.61 107.48 C 548.78 103.91 550.68 103.12 551.68 103.12 C 553.34 103.12 554.48 104.71 554.51 107.48 Z M 548.61 107.48 "/>
<path style=" stroke:none;fill-rule:nonzero;fill:rgb(0%,11.76%,100%);fill-opacity:1;" d="M 566.04 105.25 C 566.25 104.71 566.66 103.71 568.09 103.66 L 568.09 103.02 C 567.62 103.05 567 103.07 566.54 103.07 C 566.02 103.07 565.2 103.07 564.7 103.02 L 564.7 103.66 C 565.32 103.71 565.66 104 565.66 104.66 C 565.66 104.88 565.66 104.93 565.52 105.27 L 562.8 112.14 L 559.87 104.72 C 559.71 104.41 559.71 104.36 559.71 104.25 C 559.71 103.66 560.52 103.66 560.89 103.66 L 560.89 103.02 C 560.3 103.07 559.21 103.07 558.61 103.07 C 557.93 103.07 557.17 103.07 556.62 103.02 L 556.62 103.66 C 557.56 103.66 558.07 103.66 558.37 104.43 L 561.95 113.43 C 562.11 113.8 562.14 113.85 562.36 113.85 C 562.58 113.85 562.61 113.8 562.75 113.43 Z M 566.04 105.25 "/>
<path style=" stroke:none;fill-rule:nonzero;fill:rgb(0%,11.76%,100%);fill-opacity:1;" d="M 577.12 107.84 C 577.23 107.75 577.23 107.7 577.23 107.45 C 577.23 104.93 575.89 102.73 573.07 102.73 C 570.46 102.73 568.39 105.22 568.39 108.26 C 568.39 111.47 570.72 113.85 573.36 113.85 C 576.11 113.85 577.2 111.23 577.2 110.71 C 577.2 110.54 577.06 110.54 577 110.54 C 576.83 110.54 576.82 110.58 576.71 110.88 C 576.16 112.56 574.8 113.4 573.53 113.4 C 572.47 113.4 571.39 112.81 570.72 111.72 C 569.96 110.46 569.96 109.01 569.96 107.84 Z M 569.99 107.48 C 570.16 103.91 572.06 103.12 573.06 103.12 C 574.73 103.12 575.86 104.71 575.89 107.48 Z M 569.99 107.48 "/>
<path style=" stroke:none;fill-rule:nonzero;fill:rgb(0%,11.76%,100%);fill-opacity:1;" d="M 581.55 96.5 L 578.6 96.78 L 578.6 97.41 C 580.05 97.41 580.29 97.57 580.29 98.75 L 580.29 111.95 C 580.29 112.89 580.18 113.01 578.6 113.01 L 578.6 113.65 C 579.2 113.6 580.29 113.6 580.89 113.6 C 581.55 113.6 582.62 113.6 583.23 113.65 L 583.23 113.01 C 581.64 113.01 581.55 112.9 581.55 111.95 Z M 581.55 96.5 "/>
<path style=" stroke:none;fill-rule:nonzero;fill:rgb(0%,11.76%,100%);fill-opacity:1;" d="M 490.8 131.84 C 490.8 131.39 490.77 131.37 490.63 131.37 C 490.54 131.37 490.51 131.39 490.21 131.76 C 490.13 131.85 489.91 132.1 489.84 132.2 C 489.04 131.37 487.93 131.34 487.52 131.34 C 484.77 131.34 483.79 132.77 483.79 134.2 C 483.79 136.43 486.3 136.95 487.02 137.1 C 488.57 137.41 489.12 137.51 489.65 137.96 C 489.96 138.25 490.51 138.8 490.51 139.69 C 490.51 140.73 489.91 142.06 487.64 142.06 C 485.49 142.06 484.73 140.44 484.27 138.25 C 484.21 137.91 484.21 137.88 484.01 137.88 C 483.8 137.88 483.79 137.91 483.79 138.41 L 483.79 141.96 C 483.79 142.41 483.8 142.43 483.96 142.43 C 484.09 142.43 484.1 142.41 484.23 142.21 C 484.38 142 484.76 141.39 484.9 141.15 C 485.39 141.81 486.25 142.46 487.64 142.46 C 490.09 142.46 491.39 141.12 491.39 139.19 C 491.39 137.93 490.72 137.27 490.41 136.98 C 489.66 136.2 488.81 136.03 487.77 135.84 C 486.41 135.55 484.68 135.19 484.68 133.69 C 484.68 133.04 485.02 131.68 487.52 131.68 C 490.16 131.68 490.3 134.16 490.37 134.95 C 490.38 135.06 490.51 135.09 490.58 135.09 C 490.8 135.09 490.8 135.02 490.8 134.59 Z M 490.8 131.84 "/>
<path style=" stroke:none;fill-rule:nonzero;fill:rgb(0%,11.76%,100%);fill-opacity:1;" d="M 501.46 136.45 C 501.57 136.36 501.57 136.31 501.57 136.06 C 501.57 133.54 500.23 131.34 497.41 131.34 C 494.79 131.34 492.72 133.83 492.72 136.87 C 492.72 140.08 495.05 142.46 497.69 142.46 C 500.45 142.46 501.54 139.84 501.54 139.32 C 501.54 139.14 501.4 139.14 501.34 139.14 C 501.16 139.14 501.15 139.19 501.04 139.49 C 500.49 141.17 499.14 142.01 497.86 142.01 C 496.8 142.01 495.73 141.42 495.05 140.33 C 494.29 139.07 494.29 137.62 494.29 136.45 Z M 494.32 136.09 C 494.5 132.52 496.39 131.73 497.39 131.73 C 499.06 131.73 500.2 133.32 500.23 136.09 Z M 494.32 136.09 "/>
<path style=" stroke:none;fill-rule:nonzero;fill:rgb(0%,11.76%,100%);fill-opacity:1;" d="M 512.25 131.43 L 511.85 131.43 L 511.12 133.88 C 510.54 132.57 509.51 131.43 507.86 131.43 C 505.34 131.43 502.9 133.69 502.9 136.95 C 502.9 140.19 505.18 142.46 507.66 142.46 C 509.56 142.46 510.62 141 510.95 140.45 L 510.95 145.38 C 510.95 146.31 510.84 146.44 509.26 146.44 L 509.26 147.07 C 509.85 147.03 510.95 147.03 511.58 147.03 C 512.22 147.03 513.34 147.03 513.93 147.07 L 513.93 146.44 C 512.35 146.44 512.25 146.34 512.25 145.38 Z M 510.99 138.88 C 510.99 139.94 510.1 140.92 510.02 141 C 509.26 141.87 508.38 142.06 507.78 142.06 C 505.93 142.06 504.49 139.72 504.49 136.98 C 504.49 134.08 506.13 131.88 508.03 131.88 C 510.01 131.88 510.99 134.13 510.99 135.42 Z M 510.99 138.88 "/>
<path style=" stroke:none;fill-rule:nonzero;fill:rgb(0%,11.76%,100%);fill-opacity:1;" d="M 521.34 131.71 L 521.34 132.35 C 522.8 132.35 523.02 132.51 523.02 133.69 L 523.02 138.18 C 523.02 140.27 521.91 142.06 520.07 142.06 C 518.05 142.06 517.88 140.86 517.88 139.57 L 517.88 131.43 L 514.89 131.71 L 514.89 132.35 C 515.88 132.35 516.55 132.35 516.57 133.33 L 516.57 138.09 C 516.57 139.73 516.57 140.8 517.21 141.5 C 517.54 141.81 518.16 142.46 519.93 142.46 C 522.04 142.46 522.85 140.67 523.05 140.16 L 523.07 140.16 L 523.07 142.46 L 526.01 142.26 L 526.01 141.62 C 524.55 141.62 524.33 141.46 524.33 140.28 L 524.33 131.43 Z M 521.34 131.71 "/>
<path style=" stroke:none;fill-rule:nonzero;fill:rgb(0%,11.76%,100%);fill-opacity:1;" d="M 536.11 136.45 C 536.22 136.36 536.22 136.31 536.22 136.06 C 536.22 133.54 534.88 131.34 532.06 131.34 C 529.45 131.34 527.38 133.83 527.38 136.87 C 527.38 140.08 529.71 142.46 532.34 142.46 C 535.1 142.46 536.19 139.84 536.19 139.32 C 536.19 139.14 536.05 139.14 535.99 139.14 C 535.82 139.14 535.8 139.19 535.7 139.49 C 535.15 141.17 533.79 142.01 532.52 142.01 C 531.46 142.01 530.38 141.42 529.71 140.33 C 528.95 139.07 528.95 137.62 528.95 136.45 Z M 528.98 136.09 C 529.15 132.52 531.05 131.73 532.05 131.73 C 533.71 131.73 534.85 133.32 534.88 136.09 Z M 528.98 136.09 "/>
<path style=" stroke:none;fill-rule:nonzero;fill:rgb(0%,11.76%,100%);fill-opacity:1;" d="M 547 134.75 C 547 133.49 546.75 131.43 543.84 131.43 C 541.89 131.43 540.88 132.94 540.5 133.94 L 540.47 133.94 L 540.47 131.43 L 537.55 131.71 L 537.55 132.35 C 539.02 132.35 539.24 132.51 539.24 133.69 L 539.24 140.56 C 539.24 141.5 539.14 141.62 537.55 141.62 L 537.55 142.26 C 538.15 142.21 539.24 142.21 539.88 142.21 C 540.53 142.21 541.64 142.21 542.23 142.26 L 542.23 141.62 C 540.66 141.62 540.55 141.51 540.55 140.56 L 540.55 135.81 C 540.55 133.54 541.93 131.84 543.66 131.84 C 545.48 131.84 545.69 133.46 545.69 134.66 L 545.69 140.56 C 545.69 141.5 545.59 141.62 544.01 141.62 L 544.01 142.26 C 544.6 142.21 545.69 142.21 546.33 142.21 C 546.98 142.21 548.09 142.21 548.68 142.26 L 548.68 141.62 C 547.11 141.62 547 141.51 547 140.56 Z M 547 134.75 "/>
<path style=" stroke:none;fill-rule:nonzero;fill:rgb(0%,11.76%,100%);fill-opacity:1;" d="M 558 133.61 C 557.52 133.61 556.84 133.61 556.84 134.47 C 556.84 135.17 557.4 135.38 557.73 135.38 C 557.9 135.38 558.61 135.3 558.61 134.42 C 558.61 132.68 556.93 131.34 555.03 131.34 C 552.41 131.34 550.18 133.75 550.18 136.92 C 550.18 140.2 552.5 142.46 555.03 142.46 C 558.1 142.46 558.86 139.61 558.86 139.35 C 558.86 139.25 558.83 139.18 558.66 139.18 C 558.49 139.18 558.47 139.19 558.36 139.52 C 557.73 141.51 556.32 142.01 555.25 142.01 C 553.67 142.01 551.77 140.56 551.77 136.9 C 551.77 133.14 553.6 131.79 555.06 131.79 C 556.03 131.79 557.46 132.26 558 133.61 Z M 558 133.61 "/>
<path style=" stroke:none;fill-rule:nonzero;fill:rgb(0%,11.76%,100%);fill-opacity:1;" d="M 568.83 136.45 C 568.94 136.36 568.94 136.31 568.94 136.06 C 568.94 133.54 567.6 131.34 564.78 131.34 C 562.16 131.34 560.09 133.83 560.09 136.87 C 560.09 140.08 562.43 142.46 565.06 142.46 C 567.82 142.46 568.91 139.84 568.91 139.32 C 568.91 139.14 568.77 139.14 568.71 139.14 C 568.54 139.14 568.52 139.19 568.41 139.49 C 567.86 141.17 566.51 142.01 565.23 142.01 C 564.17 142.01 563.1 141.42 562.43 140.33 C 561.66 139.07 561.66 137.62 561.66 136.45 Z M 561.7 136.09 C 561.87 132.52 563.77 131.73 564.76 131.73 C 566.43 131.73 567.57 133.32 567.6 136.09 Z M 561.7 136.09 "/>
<path style=" stroke:none;fill-rule:nonzero;fill:rgb(0%,0%,0%);fill-opacity:1;" d="M 279.73 229.88 C 279.61 229.55 279.56 229.49 279.31 229.49 C 279.06 229.49 279.01 229.55 278.89 229.88 L 273.65 244.71 C 273.17 246.04 272.19 246.32 271.32 246.32 L 271.32 246.95 C 271.77 246.91 272.75 246.91 273.23 246.91 C 273.84 246.91 274.84 246.91 275.43 246.95 L 275.43 246.32 C 274.26 246.27 274.09 245.48 274.09 245.18 C 274.09 244.96 274.14 244.84 274.18 244.68 L 275.51 241 L 281.97 241 L 283.45 245.2 C 283.58 245.49 283.58 245.55 283.58 245.64 C 283.58 246.32 282.52 246.32 282.05 246.32 L 282.05 246.95 C 282.77 246.91 284.05 246.91 284.81 246.91 C 285.46 246.91 286.7 246.91 287.29 246.95 L 287.29 246.32 C 285.98 246.32 285.52 246.32 285.21 245.4 Z M 278.73 231.86 L 281.75 240.36 L 275.73 240.36 Z M 278.73 231.86 "/>
<path style=" stroke:none;fill-rule:nonzero;fill:rgb(0%,0%,0%);fill-opacity:1;" d="M 295.11 230.08 L 295.11 230.72 C 296.57 230.72 296.79 230.88 296.79 232.06 L 296.79 237.84 C 296.7 237.71 295.68 236.12 293.68 236.12 C 291.15 236.12 288.7 238.39 288.7 241.64 C 288.7 244.88 291.01 247.16 293.43 247.16 C 295.53 247.16 296.62 245.52 296.74 245.35 L 296.74 247.16 L 299.73 246.95 L 299.73 246.32 C 298.27 246.32 298.05 246.16 298.05 244.98 L 298.05 229.8 Z M 296.74 244 C 296.74 244.73 296.29 245.4 295.73 245.89 C 294.89 246.63 294.05 246.75 293.58 246.75 C 292.86 246.75 290.29 246.39 290.29 241.67 C 290.29 236.83 293.16 236.53 293.8 236.53 C 294.94 236.53 295.86 237.17 296.42 238.06 C 296.74 238.57 296.74 238.65 296.74 239.1 Z M 296.74 244 "/>
<g clip-path="url(#clip3)" clip-rule="nonzero">
<path style=" stroke:none;fill-rule:nonzero;fill:rgb(0%,0%,0%);fill-opacity:1;" d="M 305.02 231.73 C 305.02 231.19 304.57 230.72 304.01 230.72 C 303.46 230.72 303 231.17 303 231.73 C 303 232.28 303.43 232.75 304.01 232.75 C 304.56 232.75 305.02 232.31 305.02 231.73 Z M 301.92 236.41 L 301.92 237.05 C 303.56 237.05 303.76 237.22 303.76 238.4 L 303.76 248.42 C 303.76 249.65 303.53 251.58 302.08 251.58 C 301.91 251.58 301.24 251.55 300.69 251.21 C 300.86 251.18 301.49 251.01 301.49 250.32 C 301.49 249.85 301.16 249.43 300.6 249.43 C 300.05 249.43 299.71 249.79 299.71 250.34 C 299.71 251.33 300.79 251.97 302.05 251.97 C 303.76 251.97 305.02 250.41 305.02 248.31 L 305.02 236.12 Z M 301.92 236.41 "/>
</g>
<path style=" stroke:none;fill-rule:nonzero;fill:rgb(0%,0%,0%);fill-opacity:1;" d="M 316.23 240.55 C 316.23 238.93 316.23 238.06 315.19 237.09 C 314.29 236.28 313.21 236.03 312.39 236.03 C 310.42 236.03 309.02 237.56 309.02 239.2 C 309.02 240.11 309.75 240.16 309.91 240.16 C 310.23 240.16 310.8 239.96 310.8 239.27 C 310.8 238.65 310.33 238.39 309.91 238.39 C 309.82 238.39 309.69 238.4 309.61 238.43 C 310.13 236.88 311.47 236.42 312.32 236.42 C 313.57 236.42 314.93 237.51 314.93 239.59 L 314.93 240.68 C 313.46 240.72 311.71 240.93 310.33 241.67 C 308.77 242.53 308.32 243.76 308.32 244.71 C 308.32 246.61 310.55 247.16 311.86 247.16 C 313.21 247.16 314.47 246.39 315.02 244.98 C 315.07 246.07 315.77 247.05 316.86 247.05 C 317.37 247.05 318.68 246.71 318.68 244.76 L 318.68 243.37 L 318.23 243.37 L 318.23 244.77 C 318.23 246.29 317.57 246.49 317.25 246.49 C 316.23 246.49 316.23 245.2 316.23 244.12 Z M 314.93 243.53 C 314.93 245.68 313.4 246.75 312.03 246.75 C 310.8 246.75 309.83 245.85 309.83 244.71 C 309.83 243.96 310.16 242.66 311.59 241.86 C 312.78 241.19 314.13 241.1 314.93 241.05 Z M 314.93 243.53 "/>
<path style=" stroke:none;fill-rule:nonzero;fill:rgb(0%,0%,0%);fill-opacity:1;" d="M 327.3 238.31 C 326.82 238.31 326.14 238.31 326.14 239.16 C 326.14 239.87 326.7 240.07 327.02 240.07 C 327.2 240.07 327.91 239.99 327.91 239.12 C 327.91 237.37 326.23 236.03 324.33 236.03 C 321.71 236.03 319.48 238.45 319.48 241.61 C 319.48 244.9 321.8 247.16 324.33 247.16 C 327.4 247.16 328.16 244.3 328.16 244.04 C 328.16 243.95 328.13 243.87 327.96 243.87 C 327.79 243.87 327.77 243.89 327.66 244.21 C 327.02 246.21 325.62 246.71 324.55 246.71 C 322.97 246.71 321.07 245.26 321.07 241.59 C 321.07 237.84 322.89 236.48 324.36 236.48 C 325.32 236.48 326.76 236.95 327.3 238.31 Z M 327.3 238.31 "/>
<path style=" stroke:none;fill-rule:nonzero;fill:rgb(0%,0%,0%);fill-opacity:1;" d="M 338.12 241.14 C 338.23 241.05 338.23 241 338.23 240.75 C 338.23 238.23 336.89 236.03 334.07 236.03 C 331.46 236.03 329.39 238.53 329.39 241.56 C 329.39 244.77 331.72 247.16 334.36 247.16 C 337.11 247.16 338.2 244.54 338.2 244.01 C 338.2 243.84 338.06 243.84 338 243.84 C 337.83 243.84 337.82 243.89 337.7 244.18 C 337.16 245.86 335.8 246.71 334.53 246.71 C 333.47 246.71 332.39 246.11 331.72 245.02 C 330.96 243.76 330.96 242.31 330.96 241.14 Z M 330.99 240.79 C 331.16 237.22 333.06 236.42 334.06 236.42 C 335.73 236.42 336.86 238.01 336.89 240.79 Z M 330.99 240.79 "/>
<path style=" stroke:none;fill-rule:nonzero;fill:rgb(0%,0%,0%);fill-opacity:1;" d="M 349.01 239.45 C 349.01 238.18 348.76 236.12 345.85 236.12 C 343.9 236.12 342.89 237.64 342.52 238.63 L 342.48 238.63 L 342.48 236.12 L 339.57 236.41 L 339.57 237.05 C 341.04 237.05 341.25 237.2 341.25 238.39 L 341.25 245.26 C 341.25 246.19 341.16 246.32 339.57 246.32 L 339.57 246.95 C 340.16 246.91 341.25 246.91 341.89 246.91 C 342.55 246.91 343.65 246.91 344.25 246.95 L 344.25 246.32 C 342.67 246.32 342.56 246.21 342.56 245.26 L 342.56 240.5 C 342.56 238.23 343.95 236.53 345.68 236.53 C 347.5 236.53 347.7 238.15 347.7 239.35 L 347.7 245.26 C 347.7 246.19 347.61 246.32 346.02 246.32 L 346.02 246.95 C 346.61 246.91 347.7 246.91 348.34 246.91 C 349 246.91 350.11 246.91 350.7 246.95 L 350.7 246.32 C 349.12 246.32 349.01 246.21 349.01 245.26 Z M 349.01 239.45 "/>
<path style=" stroke:none;fill-rule:nonzero;fill:rgb(0%,0%,0%);fill-opacity:1;" d="M 360.02 238.31 C 359.54 238.31 358.85 238.31 358.85 239.16 C 358.85 239.87 359.41 240.07 359.74 240.07 C 359.91 240.07 360.63 239.99 360.63 239.12 C 360.63 237.37 358.95 236.03 357.05 236.03 C 354.43 236.03 352.2 238.45 352.2 241.61 C 352.2 244.9 354.52 247.16 357.05 247.16 C 360.11 247.16 360.88 244.3 360.88 244.04 C 360.88 243.95 360.85 243.87 360.68 243.87 C 360.5 243.87 360.49 243.89 360.38 244.21 C 359.74 246.21 358.34 246.71 357.26 246.71 C 355.69 246.71 353.79 245.26 353.79 241.59 C 353.79 237.84 355.61 236.48 357.07 236.48 C 358.04 236.48 359.48 236.95 360.02 238.31 Z M 360.02 238.31 "/>
<g clip-path="url(#clip4)" clip-rule="nonzero">
<path style=" stroke:none;fill-rule:nonzero;fill:rgb(0%,0%,0%);fill-opacity:1;" d="M 371.08 238.51 C 371.69 237 372.81 236.97 373.15 236.97 L 373.15 236.33 C 372.68 236.36 372.06 236.38 371.59 236.38 C 371.08 236.38 370.25 236.38 369.75 236.33 L 369.75 236.97 C 370.71 237.05 370.72 237.73 370.72 237.93 C 370.72 238.18 370.68 238.31 370.55 238.6 L 367.86 245.27 L 364.93 238.06 C 364.8 237.76 364.8 237.59 364.8 237.56 C 364.8 237.02 365.36 236.97 365.95 236.97 L 365.95 236.33 C 365.36 236.38 364.3 236.38 363.68 236.38 C 363.02 236.38 362.23 236.38 361.68 236.33 L 361.68 236.97 C 363.02 236.97 363.16 237.09 363.49 237.89 L 367.17 246.95 C 366.06 249.87 365.41 251.58 363.85 251.58 C 363.59 251.58 362.96 251.5 362.53 251.05 C 363.09 251.01 363.34 250.66 363.34 250.24 C 363.34 249.82 363.04 249.45 362.54 249.45 C 362 249.45 361.73 249.82 361.73 250.27 C 361.73 251.25 362.74 251.97 363.85 251.97 C 365.29 251.97 366.19 250.59 366.67 249.36 Z M 371.08 238.51 "/>
</g>
<path style=" stroke:none;fill-rule:nonzero;fill:rgb(0%,0%,0%);fill-opacity:1;" d="M 397.58 239.45 C 397.58 238.21 397.36 236.12 394.42 236.12 C 392.74 236.12 391.58 237.27 391.13 238.6 L 391.12 238.6 C 390.82 236.58 389.36 236.12 387.97 236.12 C 386.02 236.12 385.01 237.64 384.63 238.63 L 384.61 238.63 L 384.61 236.12 L 381.69 236.41 L 381.69 237.05 C 383.15 237.05 383.37 237.2 383.37 238.39 L 383.37 245.26 C 383.37 246.19 383.28 246.32 381.69 246.32 L 381.69 246.95 C 382.28 246.91 383.37 246.91 384.01 246.91 C 384.66 246.91 385.77 246.91 386.36 246.95 L 386.36 246.32 C 384.79 246.32 384.68 246.21 384.68 245.26 L 384.68 240.5 C 384.68 238.23 386.07 236.53 387.8 236.53 C 389.62 236.53 389.82 238.15 389.82 239.35 L 389.82 245.26 C 389.82 246.19 389.73 246.32 388.14 246.32 L 388.14 246.95 C 388.73 246.91 389.82 246.91 390.46 246.91 C 391.12 246.91 392.22 246.91 392.81 246.95 L 392.81 246.32 C 391.24 246.32 391.13 246.21 391.13 245.26 L 391.13 240.5 C 391.13 238.23 392.52 236.53 394.25 236.53 C 396.07 236.53 396.27 238.15 396.27 239.35 L 396.27 245.26 C 396.27 246.19 396.18 246.32 394.59 246.32 L 394.59 246.95 C 395.18 246.91 396.27 246.91 396.91 246.91 C 397.57 246.91 398.67 246.91 399.27 246.95 L 399.27 246.32 C 397.68 246.32 397.58 246.21 397.58 245.26 Z M 397.58 239.45 "/>
<path style=" stroke:none;fill-rule:nonzero;fill:rgb(0%,0%,0%);fill-opacity:1;" d="M 408.86 240.55 C 408.86 238.93 408.86 238.06 407.82 237.09 C 406.91 236.28 405.84 236.03 405.01 236.03 C 403.05 236.03 401.64 237.56 401.64 239.2 C 401.64 240.11 402.38 240.16 402.53 240.16 C 402.86 240.16 403.42 239.96 403.42 239.27 C 403.42 238.65 402.95 238.39 402.53 238.39 C 402.44 238.39 402.31 238.4 402.24 238.43 C 402.75 236.88 404.09 236.42 404.95 236.42 C 406.2 236.42 407.55 237.51 407.55 239.59 L 407.55 240.68 C 406.09 240.72 404.34 240.93 402.95 241.67 C 401.39 242.53 400.94 243.76 400.94 244.71 C 400.94 246.61 403.17 247.16 404.48 247.16 C 405.84 247.16 407.1 246.39 407.64 244.98 C 407.69 246.07 408.39 247.05 409.48 247.05 C 410 247.05 411.3 246.71 411.3 244.76 L 411.3 243.37 L 410.85 243.37 L 410.85 244.77 C 410.85 246.29 410.2 246.49 409.87 246.49 C 408.86 246.49 408.86 245.2 408.86 244.12 Z M 407.55 243.53 C 407.55 245.68 406.02 246.75 404.65 246.75 C 403.42 246.75 402.45 245.85 402.45 244.71 C 402.45 243.96 402.78 242.66 404.21 241.86 C 405.4 241.19 406.75 241.1 407.55 241.05 Z M 407.55 243.53 "/>
<path style=" stroke:none;fill-rule:nonzero;fill:rgb(0%,0%,0%);fill-opacity:1;" d="M 415.02 236.97 L 418.5 236.97 L 418.5 236.33 L 415.02 236.33 L 415.02 231.77 L 414.59 231.77 C 414.54 234.3 413.66 236.53 411.56 236.58 L 411.56 236.97 L 413.71 236.97 L 413.71 243.92 C 413.71 244.38 413.71 247.16 416.58 247.16 C 418.04 247.16 418.88 245.72 418.88 243.89 L 418.88 242.48 L 418.43 242.48 L 418.43 243.87 C 418.43 245.57 417.78 246.71 416.73 246.71 C 416.02 246.71 415.02 246.21 415.02 243.96 Z M 415.02 236.97 "/>
<path style=" stroke:none;fill-rule:nonzero;fill:rgb(0%,0%,0%);fill-opacity:1;" d="M 423.76 241.13 C 423.76 238.74 424.77 236.53 426.62 236.53 C 426.8 236.53 426.97 236.55 427.14 236.62 C 427.14 236.62 426.59 236.8 426.59 237.43 C 426.59 238.03 427.06 238.28 427.43 238.28 C 427.73 238.28 428.28 238.11 428.28 237.42 C 428.28 236.62 427.48 236.12 426.64 236.12 C 424.77 236.12 423.96 237.96 423.71 238.82 L 423.68 238.82 L 423.68 236.12 L 420.81 236.41 L 420.81 237.05 C 422.28 237.05 422.5 237.2 422.5 238.39 L 422.5 245.26 C 422.5 246.19 422.4 246.32 420.81 246.32 L 420.81 246.95 C 421.41 246.91 422.54 246.91 423.18 246.91 C 423.9 246.91 425.16 246.91 425.83 246.95 L 425.83 246.32 C 424.05 246.32 423.76 246.32 423.76 245.2 Z M 423.76 241.13 "/>
<path style=" stroke:none;fill-rule:nonzero;fill:rgb(0%,0%,0%);fill-opacity:1;" d="M 432.64 231.73 C 432.64 231.19 432.18 230.72 431.62 230.72 C 431.08 230.72 430.61 231.17 430.61 231.73 C 430.61 232.28 431.05 232.75 431.62 232.75 C 432.17 232.75 432.64 232.31 432.64 231.73 Z M 429.74 236.41 L 429.74 237.05 C 431.12 237.05 431.32 237.2 431.32 238.39 L 431.32 245.26 C 431.32 246.19 431.22 246.32 429.64 246.32 L 429.64 246.95 C 430.23 246.91 431.3 246.91 431.92 246.91 C 432.51 246.91 433.52 246.91 434.09 246.95 L 434.09 246.32 C 432.64 246.32 432.59 246.16 432.59 245.27 L 432.59 236.12 Z M 429.74 236.41 "/>
<path style=" stroke:none;fill-rule:nonzero;fill:rgb(0%,0%,0%);fill-opacity:1;" d="M 441.39 241.19 C 442.14 240.24 442.98 239.15 443.66 238.32 C 444.49 237.39 445.43 237 446.52 236.97 L 446.52 236.33 C 446.1 236.36 445.22 236.38 444.79 236.38 C 444.12 236.38 443.36 236.38 442.78 236.33 L 442.78 236.97 C 443.12 237.02 443.32 237.27 443.32 237.61 C 443.32 238.06 443.07 238.32 442.95 238.51 L 441.12 240.83 L 438.95 237.98 C 438.73 237.71 438.73 237.67 438.73 237.54 C 438.73 237.25 438.98 237 439.4 236.97 L 439.4 236.33 C 438.8 236.38 437.75 236.38 437.12 236.38 C 436.45 236.38 435.66 236.38 435.13 236.33 L 435.13 236.97 C 436.45 236.97 436.75 237.08 437.34 237.81 L 440.19 241.48 C 440.24 241.55 440.36 241.69 440.36 241.77 C 440.36 241.86 438.21 244.51 437.93 244.85 C 436.83 246.19 435.66 246.29 435 246.32 L 435 246.95 C 435.42 246.92 436.28 246.91 436.73 246.91 C 437.21 246.91 438.3 246.91 438.76 246.95 L 438.76 246.32 C 438.6 246.29 438.21 246.24 438.21 245.68 C 438.21 245.23 438.4 244.96 438.63 244.66 L 440.68 242.14 L 442.82 244.93 C 443.03 245.2 443.32 245.57 443.32 245.74 C 443.32 246.08 443.03 246.29 442.64 246.32 L 442.64 246.95 C 443.23 246.91 444.29 246.91 444.91 246.91 C 445.57 246.91 446.36 246.91 446.91 246.95 L 446.91 246.32 C 445.68 246.32 445.3 246.27 444.71 245.49 Z M 441.39 241.19 "/>
</g>
</svg>
