<?xml version="1.0" encoding="UTF-8"?>
<svg xmlns="http://www.w3.org/2000/svg" xmlns:xlink="http://www.w3.org/1999/xlink" width="454pt" height="187pt" viewBox="0 0 454 187" version="1.2">
<defs>
<g>
<symbol overflow="visible" id="glyph0-0">
<path style="stroke:none;" d=""/>
</symbol>
<symbol overflow="visible" id="glyph0-1">
<path style="stroke:none;" d="M 11.36 -5.7 L 7.28 -5.7 L 7.28 -5.41 C 8.53 -5.33 8.66 -5.2 8.69 -3.97 L 8.69 -1.38 C 8.69 -0.86 7.73 -0.42 6.56 -0.42 C 3.94 -0.42 2.34 -2.25 2.34 -5.25 C 2.34 -6.77 2.8 -8.22 3.5 -9.02 C 4.19 -9.8 5.19 -10.23 6.28 -10.23 C 7.19 -10.23 7.98 -9.94 8.59 -9.34 C 9.08 -8.89 9.33 -8.47 9.73 -7.48 L 10.09 -7.48 L 9.97 -10.88 L 9.62 -10.88 C 9.52 -10.56 9.23 -10.34 8.89 -10.34 C 8.73 -10.34 8.48 -10.39 8.19 -10.52 C 7.47 -10.75 6.72 -10.88 6 -10.88 C 2.81 -10.88 0.52 -8.52 0.52 -5.23 C 0.52 -3.66 0.95 -2.45 1.84 -1.5 C 2.91 -0.39 4.45 0.22 6.22 0.22 C 7.61 0.22 9.61 -0.34 10.25 -0.91 L 10.25 -4.17 C 10.28 -5.16 10.45 -5.34 11.36 -5.41 Z M 11.36 -5.7 "/>
</symbol>
<symbol overflow="visible" id="glyph0-2">
<path style="stroke:none;" d="M 0.08 0 L 3.92 0 L 3.92 -0.23 C 2.86 -0.28 2.59 -0.5 2.56 -1.45 L 2.56 -5.06 C 2.56 -5.58 3.23 -6.39 3.69 -6.39 C 3.78 -6.39 3.92 -6.31 4.11 -6.14 C 4.34 -5.91 4.53 -5.83 4.75 -5.83 C 5.12 -5.83 5.38 -6.09 5.38 -6.55 C 5.38 -7.08 5.03 -7.41 4.48 -7.41 C 3.81 -7.41 3.36 -7.05 2.56 -5.89 L 2.56 -7.38 L 2.48 -7.41 C 1.59 -7.05 1.02 -6.83 0.11 -6.53 L 0.11 -6.28 C 0.34 -6.33 0.48 -6.34 0.67 -6.34 C 1.08 -6.34 1.22 -6.08 1.22 -5.38 L 1.22 -1.36 C 1.19 -0.52 1.09 -0.42 0.08 -0.23 Z M 0.08 0 "/>
</symbol>
<symbol overflow="visible" id="glyph0-3">
<path style="stroke:none;" d="M 7.08 -1.06 C 6.81 -0.84 6.62 -0.75 6.38 -0.75 C 6.02 -0.75 5.91 -0.98 5.91 -1.69 L 5.91 -4.83 C 5.91 -5.67 5.81 -6.12 5.58 -6.52 C 5.22 -7.09 4.53 -7.41 3.59 -7.41 C 2.08 -7.41 0.89 -6.61 0.89 -5.59 C 0.89 -5.23 1.2 -4.91 1.59 -4.91 C 1.97 -4.91 2.31 -5.23 2.31 -5.58 C 2.31 -5.66 2.3 -5.73 2.28 -5.84 C 2.25 -5.98 2.23 -6.11 2.23 -6.23 C 2.23 -6.66 2.73 -7.02 3.38 -7.02 C 4.17 -7.02 4.59 -6.55 4.59 -5.69 L 4.59 -4.7 C 2.14 -3.72 1.86 -3.58 1.17 -2.97 C 0.81 -2.64 0.59 -2.09 0.59 -1.56 C 0.59 -0.55 1.3 0.16 2.28 0.16 C 2.98 0.16 3.64 -0.17 4.61 -1.02 C 4.7 -0.16 4.98 0.16 5.64 0.16 C 6.19 0.16 6.53 -0.03 7.08 -0.64 Z M 4.59 -1.98 C 4.59 -1.5 4.52 -1.31 4.19 -1.12 C 3.78 -0.91 3.34 -0.77 3.02 -0.77 C 2.45 -0.77 2 -1.31 2 -2.02 L 2 -2.08 C 2.02 -3.05 2.72 -3.66 4.59 -4.31 Z M 4.59 -1.98 "/>
</symbol>
<symbol overflow="visible" id="glyph0-4">
<path style="stroke:none;" d="M 0.08 3.5 L 3.95 3.5 L 3.95 3.2 C 2.75 3.19 2.56 3.03 2.55 2 L 2.55 -0.53 C 3.12 0 3.5 0.16 4.17 0.16 C 6.08 0.16 7.53 -1.64 7.53 -3.97 C 7.53 -5.97 6.41 -7.41 4.86 -7.41 C 3.95 -7.41 3.25 -7.02 2.55 -6.12 L 2.55 -7.38 L 2.45 -7.41 C 1.59 -7.06 1.03 -6.86 0.14 -6.58 L 0.14 -6.33 C 0.28 -6.34 0.39 -6.34 0.55 -6.34 C 1.09 -6.34 1.2 -6.19 1.2 -5.42 L 1.2 2.11 C 1.2 2.97 1.03 3.12 0.08 3.22 Z M 2.55 -5.38 C 2.55 -5.86 3.45 -6.44 4.19 -6.44 C 5.38 -6.44 6.16 -5.22 6.16 -3.33 C 6.16 -1.56 5.38 -0.36 4.22 -0.36 C 3.47 -0.36 2.55 -0.94 2.55 -1.42 Z M 2.55 -5.38 "/>
</symbol>
<symbol overflow="visible" id="glyph0-5">
<path style="stroke:none;" d="M 7.81 -0.23 C 6.94 -0.39 6.86 -0.5 6.84 -1.64 L 6.84 -4.84 C 6.84 -6.53 6.19 -7.41 4.88 -7.41 C 3.92 -7.41 3.25 -7.02 2.52 -6.05 L 2.52 -10.94 L 2.44 -10.98 C 1.88 -10.8 1.47 -10.67 0.59 -10.41 L 0.16 -10.28 L 0.16 -10.03 C 0.22 -10.05 0.25 -10.05 0.36 -10.05 C 1.05 -10.05 1.17 -9.91 1.17 -9.22 L 1.17 -1.64 C 1.14 -0.48 1.06 -0.36 0.14 -0.23 L 0.14 0 L 3.61 0 L 3.61 -0.23 C 2.67 -0.33 2.55 -0.5 2.52 -1.64 L 2.52 -5.52 C 3.19 -6.27 3.67 -6.53 4.31 -6.53 C 5.09 -6.53 5.5 -5.95 5.5 -4.83 L 5.5 -1.64 C 5.47 -0.5 5.33 -0.33 4.41 -0.23 L 4.41 0 L 7.81 0 Z M 7.81 -0.23 "/>
</symbol>
<symbol overflow="visible" id="glyph0-6">
<path style="stroke:none;" d="M 7.17 -10.88 L 6.83 -10.88 C 6.77 -10.53 6.59 -10.33 6.31 -10.33 C 6.16 -10.33 5.89 -10.39 5.61 -10.53 C 5.02 -10.75 4.42 -10.88 3.89 -10.88 C 3.22 -10.88 2.52 -10.61 1.98 -10.14 C 1.42 -9.64 1.14 -8.97 1.14 -8.12 C 1.14 -6.84 1.84 -5.94 3.64 -4.98 C 4.8 -4.36 5.62 -3.72 6.03 -3.11 C 6.17 -2.89 6.25 -2.56 6.25 -2.16 C 6.25 -1.09 5.45 -0.36 4.28 -0.36 C 2.84 -0.36 1.84 -1.23 1.05 -3.2 L 0.67 -3.2 L 1.16 0.2 L 1.5 0.2 C 1.52 -0.09 1.72 -0.33 1.95 -0.33 C 2.12 -0.33 2.41 -0.25 2.7 -0.14 C 3.31 0.09 3.97 0.22 4.59 0.22 C 6.45 0.22 7.88 -1.05 7.88 -2.72 C 7.88 -4.05 6.98 -5.06 4.88 -6.23 C 3.19 -7.14 2.52 -7.86 2.52 -8.73 C 2.52 -9.62 3.19 -10.22 4.19 -10.22 C 4.91 -10.22 5.58 -9.91 6.14 -9.33 C 6.64 -8.81 6.86 -8.41 7.12 -7.45 L 7.52 -7.45 Z M 7.17 -10.88 "/>
</symbol>
<symbol overflow="visible" id="glyph0-7">
<path style="stroke:none;" d="M 4.09 -7.23 L 2.47 -7.23 L 2.47 -9.11 C 2.47 -9.27 2.44 -9.31 2.36 -9.31 C 1.42 -7.97 0.95 -7.42 0.48 -7.14 C 0.3 -7.03 0.2 -6.94 0.2 -6.84 C 0.2 -6.8 0.22 -6.77 0.27 -6.73 L 1.12 -6.73 L 1.12 -1.89 C 1.12 -0.53 1.61 0.16 2.55 0.16 C 3.33 0.16 3.94 -0.22 4.47 -1.06 L 4.27 -1.23 C 3.91 -0.83 3.66 -0.67 3.3 -0.67 C 2.7 -0.67 2.47 -1.11 2.47 -2.12 L 2.47 -6.73 L 4.09 -6.73 Z M 4.09 -7.23 "/>
</symbol>
<symbol overflow="visible" id="glyph0-8">
<path style="stroke:none;" d="M 7.67 -0.8 L 7.59 -0.8 C 6.81 -0.84 6.7 -0.97 6.69 -1.72 L 6.69 -7.23 L 4.16 -7.23 L 4.16 -6.97 C 5.14 -6.92 5.34 -6.77 5.34 -5.95 L 5.34 -2.17 C 5.34 -1.72 5.27 -1.5 5.03 -1.31 C 4.59 -0.97 4.11 -0.77 3.62 -0.77 C 3 -0.77 2.48 -1.31 2.48 -2 L 2.48 -7.23 L 0.14 -7.23 L 0.14 -7.02 C 0.89 -6.98 1.12 -6.77 1.14 -5.98 L 1.14 -1.94 C 1.14 -0.66 1.91 0.16 3.08 0.16 C 3.67 0.16 4.3 -0.09 4.73 -0.53 L 5.42 -1.22 L 5.42 0.11 L 5.48 0.14 C 6.28 -0.17 6.86 -0.36 7.67 -0.58 Z M 7.67 -0.8 "/>
</symbol>
<symbol overflow="visible" id="glyph0-9">
<path style="stroke:none;" d="M 6.38 -2.52 C 5.61 -1.39 5.03 -1 4.12 -1 C 2.64 -1 1.64 -2.28 1.64 -4.14 C 1.64 -5.81 2.52 -6.94 3.81 -6.94 C 4.39 -6.94 4.59 -6.78 4.77 -6.16 L 4.86 -5.81 C 4.98 -5.34 5.28 -5.06 5.62 -5.06 C 6.05 -5.06 6.38 -5.38 6.38 -5.75 C 6.38 -6.64 5.27 -7.41 3.91 -7.41 C 3.12 -7.41 2.31 -7.08 1.66 -6.5 C 0.84 -5.8 0.41 -4.7 0.41 -3.41 C 0.41 -1.33 1.67 0.16 3.45 0.16 C 4.17 0.16 4.81 -0.09 5.39 -0.59 C 5.81 -0.97 6.12 -1.42 6.61 -2.36 Z M 6.38 -2.52 "/>
</symbol>
<symbol overflow="visible" id="glyph0-10">
<path style="stroke:none;" d="M 6.55 -2.64 C 5.77 -1.42 5.08 -0.95 4.06 -0.95 C 3.14 -0.95 2.45 -1.42 1.98 -2.33 C 1.7 -2.94 1.59 -3.45 1.56 -4.45 L 6.5 -4.45 C 6.36 -5.5 6.2 -5.97 5.8 -6.48 C 5.33 -7.06 4.58 -7.41 3.75 -7.41 C 2.95 -7.41 2.2 -7.11 1.59 -6.56 C 0.83 -5.91 0.41 -4.77 0.41 -3.44 C 0.41 -1.22 1.56 0.16 3.41 0.16 C 4.92 0.16 6.12 -0.78 6.8 -2.53 Z M 1.59 -4.97 C 1.77 -6.23 2.31 -6.83 3.28 -6.83 C 4.27 -6.83 4.66 -6.38 4.86 -4.97 Z M 1.59 -4.97 "/>
</symbol>
</g>
<filter id="alpha" filterUnits="objectBoundingBox" x="0%" y="0%" width="100%" height="100%">
  <feColorMatrix type="matrix" in="SourceGraphic" values="0 0 0 0 1 0 0 0 0 1 0 0 0 0 1 0 0 0 1 0"/>
</filter>
<mask id="mask0">
  <g filter="url(#alpha)">
<rect x="0" y="0" width="454" height="187" style="fill:rgb(0%,0%,0%);fill-opacity:0.5;stroke:none;"/>
  </g>
</mask>
<clipPath id="clip1">
  <rect x="0" y="0" width="454" height="187"/>
</clipPath>
<g id="surface5" clip-path="url(#clip1)">
<path style="fill-rule:nonzero;fill:rgb(94.9%,94.9%,94.9%);fill-opacity:1;stroke-width:0.28;stroke-linecap:butt;stroke-linejoin:miter;stroke:rgb(0%,0%,0%);stroke-opacity:1;stroke-miterlimit:4;" d="M 337.21 46.09 L 434.47 82.48 L 434.12 135.66 L 336.86 174.14 Z M 337.21 46.09 " transform="matrix(1,0,0,1,0,0)"/>
</g>
</defs>
<g id="surface1">
<path style="fill:none;stroke-width:0.48;stroke-linecap:butt;stroke-linejoin:miter;stroke:rgb(50.2%,50.2%,50.2%);stroke-opacity:1;stroke-dasharray:3.83,1.91;stroke-miterlimit:4;" d="M 386.71 62.09 L 411.23 72.62 " transform="matrix(0.92,0,0,1,0,0)"/>
<path style="fill:none;stroke-width:0.48;stroke-linecap:butt;stroke-linejoin:miter;stroke:rgb(50.2%,50.2%,50.2%);stroke-opacity:1;stroke-dasharray:3.83,1.91;stroke-miterlimit:4;" d="M 386.65 156.54 L 411.35 146.22 " transform="matrix(0.92,0,0,1,0,0)"/>
<path style="fill:none;stroke-width:0.48;stroke-linecap:butt;stroke-linejoin:miter;stroke:rgb(50.2%,50.2%,50.2%);stroke-opacity:1;stroke-dasharray:3.83,1.91;stroke-miterlimit:4;" d="M 386.74 61.89 L 411.38 146.22 " transform="matrix(0.92,0,0,1,0,0)"/>
<path style="fill:none;stroke-width:0.48;stroke-linecap:butt;stroke-linejoin:miter;stroke:rgb(50.2%,50.2%,50.2%);stroke-opacity:1;stroke-dasharray:3.83,1.91;stroke-miterlimit:4;" d="M 386.86 156.51 L 411.26 72.77 " transform="matrix(0.92,0,0,1,0,0)"/>
<path style="fill:none;stroke-width:0.48;stroke-linecap:butt;stroke-linejoin:miter;stroke:rgb(50.2%,50.2%,50.2%);stroke-opacity:1;stroke-dasharray:3.83,1.91;stroke-miterlimit:4;" d="M 422.11 72.74 L 446.63 83.27 " transform="matrix(0.92,0,0,1,0,0)"/>
<path style="fill:none;stroke-width:0.47;stroke-linecap:butt;stroke-linejoin:miter;stroke:rgb(50.2%,50.2%,50.2%);stroke-opacity:1;stroke-dasharray:3.8,1.9;stroke-miterlimit:4;" d="M 457.35 83.18 L 481.85 93.46 " transform="matrix(0.92,0,0,1,0,0)"/>
<path style="fill:none;stroke-width:0.48;stroke-linecap:butt;stroke-linejoin:miter;stroke:rgb(50.2%,50.2%,50.2%);stroke-opacity:1;stroke-dasharray:3.83,1.91;stroke-miterlimit:4;" d="M 421.92 146.14 L 446.53 135.56 " transform="matrix(0.92,0,0,1,0,0)"/>
<path style="fill:none;stroke-width:0.48;stroke-linecap:butt;stroke-linejoin:miter;stroke:rgb(50.2%,50.2%,50.2%);stroke-opacity:1;stroke-dasharray:3.81,1.9;stroke-miterlimit:4;" d="M 457.25 135.55 L 481.81 125.24 " transform="matrix(0.92,0,0,1,0,0)"/>
<path style="fill:none;stroke-width:0.48;stroke-linecap:butt;stroke-linejoin:miter;stroke:rgb(50.2%,50.2%,50.2%);stroke-opacity:1;stroke-dasharray:3.88,1.94;stroke-miterlimit:4;" d="M 422.03 72.77 L 446.42 135.68 " transform="matrix(0.92,0,0,1,0,0)"/>
<path style="fill:none;stroke-width:0.48;stroke-linecap:butt;stroke-linejoin:miter;stroke:rgb(50.2%,50.2%,50.2%);stroke-opacity:1;stroke-dasharray:3.83,1.91;stroke-miterlimit:4;" d="M 457.19 83.42 L 481.83 124.93 " transform="matrix(0.92,0,0,1,0,0)"/>
<path style="fill:none;stroke-width:0.48;stroke-linecap:butt;stroke-linejoin:miter;stroke:rgb(50.2%,50.2%,50.2%);stroke-opacity:1;stroke-dasharray:3.83,1.91;stroke-miterlimit:4;" d="M 421.91 145.86 L 446.43 83.18 " transform="matrix(0.92,0,0,1,0,0)"/>
<path style="fill:none;stroke-width:0.48;stroke-linecap:butt;stroke-linejoin:miter;stroke:rgb(50.2%,50.2%,50.2%);stroke-opacity:1;stroke-dasharray:3.83,1.91;stroke-miterlimit:4;" d="M 457.32 135.54 L 481.72 93.7 " transform="matrix(0.92,0,0,1,0,0)"/>
<path style="fill-rule:nonzero;fill:rgb(0%,0%,0%);fill-opacity:1;stroke-width:0.48;stroke-linecap:butt;stroke-linejoin:miter;stroke:rgb(0%,0%,0%);stroke-opacity:1;stroke-miterlimit:4;" d="M 375.57 62.68 L 375.96 62.09 L 386.57 62.32 L 386.6 156.59 L 385.86 157.25 L 375.57 157.32 Z M 375.57 62.68 " transform="matrix(0.92,0,0,1,0,0)"/>
<path style="fill-rule:nonzero;fill:rgb(75.29%,89.41%,97.25%);fill-opacity:1;stroke-width:0.48;stroke-linecap:butt;stroke-linejoin:miter;stroke:rgb(0%,0%,0%);stroke-opacity:1;stroke-miterlimit:4;" d="M 376.13 62.07 L 386.62 62.07 L 386.62 156.54 L 376.13 156.54 Z M 376.13 62.07 " transform="matrix(0.92,0,0,1,0,0)"/>
<path style="fill-rule:nonzero;fill:rgb(0%,0%,0%);fill-opacity:1;stroke-width:0.48;stroke-linecap:butt;stroke-linejoin:miter;stroke:rgb(0%,0%,0%);stroke-opacity:1;stroke-miterlimit:4;" d="M 410.93 73.2 L 411.34 72.71 L 421.96 72.79 L 421.98 146.05 C 422.06 146.11 421.72 146.34 421.5 146.57 L 411.04 146.59 Z M 410.93 73.2 " transform="matrix(0.92,0,0,1,0,0)"/>
<path style="fill-rule:nonzero;fill:rgb(81.96%,73.33%,82.74%);fill-opacity:1;stroke-width:0.48;stroke-linecap:butt;stroke-linejoin:miter;stroke:rgb(0%,0%,0%);stroke-opacity:1;stroke-miterlimit:4;" d="M 411.42 72.67 L 421.97 72.67 L 421.97 146.1 L 411.42 146.1 Z M 411.42 72.67 " transform="matrix(0.92,0,0,1,0,0)"/>
<path style="fill-rule:nonzero;fill:rgb(0%,0%,0%);fill-opacity:1;stroke-width:0.48;stroke-linecap:butt;stroke-linejoin:miter;stroke:rgb(0%,0%,0%);stroke-opacity:1;stroke-miterlimit:4;" d="M 446.4 83.65 L 446.58 83.05 L 457.29 83.07 L 457.36 135.61 L 456.96 135.99 L 446.39 136.06 Z M 446.4 83.65 " transform="matrix(0.92,0,0,1,0,0)"/>
<path style="fill-rule:nonzero;fill:rgb(77.65%,91.37%,66.27%);fill-opacity:1;stroke-width:0.48;stroke-linecap:butt;stroke-linejoin:miter;stroke:rgb(0%,0%,0%);stroke-opacity:1;stroke-miterlimit:4;" d="M 446.69 83.21 L 457.32 83.21 L 457.32 135.57 L 446.69 135.57 Z M 446.69 83.21 " transform="matrix(0.92,0,0,1,0,0)"/>
<path style="fill-rule:nonzero;fill:rgb(0%,0%,0%);fill-opacity:1;stroke-width:0.48;stroke-linecap:butt;stroke-linejoin:miter;stroke:rgb(0%,0%,0%);stroke-opacity:1;stroke-miterlimit:4;" d="M 481.51 94.11 L 482.62 93.58 L 492.62 93.65 L 492.64 125.34 L 491.94 125.75 L 481.47 125.73 Z M 481.51 94.11 " transform="matrix(0.92,0,0,1,0,0)"/>
<path style="fill-rule:nonzero;fill:rgb(91.37%,68.63%,68.63%);fill-opacity:1;stroke-width:0.48;stroke-linecap:butt;stroke-linejoin:miter;stroke:rgb(0%,0%,0%);stroke-opacity:1;stroke-miterlimit:4;" d="M 481.93 93.48 L 492.66 93.48 L 492.66 125.3 L 481.93 125.3 Z M 481.93 93.48 " transform="matrix(0.92,0,0,1,0,0)"/>
<use xlink:href="#surface5" mask="url(#mask0)"/>
<path style="fill:none;stroke-width:0.66;stroke-linecap:round;stroke-linejoin:round;stroke:rgb(40.78%,67.84%,21.18%);stroke-opacity:1;stroke-miterlimit:10;" d="M 105.37 104.71 C 94.06 99.14 86.75 87.78 86.37 75.17 " transform="matrix(1,0,0,1,0,0)"/>
<path style="fill:none;stroke-width:0.66;stroke-linecap:round;stroke-linejoin:round;stroke:rgb(40.78%,67.84%,21.18%);stroke-opacity:1;stroke-miterlimit:10;" d="M 154.17 90.19 C 131.24 96.86 106.5 90.68 89.41 74 " transform="matrix(1,0,0,1,0,0)"/>
<path style="fill:none;stroke-width:0.66;stroke-linecap:round;stroke-linejoin:round;stroke:rgb(40.78%,67.84%,21.18%);stroke-opacity:1;stroke-miterlimit:10;" d="M 157.31 94.63 C 145.3 105.93 128.49 110.57 112.38 107.03 " transform="matrix(1,0,0,1,0,0)"/>
<path style="fill:none;stroke-width:0.66;stroke-linecap:round;stroke-linejoin:round;stroke:rgb(40.78%,67.84%,21.18%);stroke-opacity:1;stroke-miterlimit:10;" d="M 117.53 58.13 C 111.48 66.91 101.33 71.95 90.68 71.46 " transform="matrix(1,0,0,1,0,0)"/>
<path style="fill:none;stroke-width:0.66;stroke-linecap:round;stroke-linejoin:round;stroke:rgb(40.78%,67.84%,21.18%);stroke-opacity:1;stroke-miterlimit:10;" d="M 121.19 58.43 C 126.32 73.85 122.5 90.85 111.27 102.59 " transform="matrix(1,0,0,1,0,0)"/>
<path style="fill:none;stroke-width:0.66;stroke-linecap:round;stroke-linejoin:round;stroke:rgb(40.78%,67.84%,21.18%);stroke-opacity:1;stroke-miterlimit:10;" d="M 123.89 54.59 C 137.96 55.5 150.83 62.85 158.75 74.52 " transform="matrix(1,0,0,1,0,0)"/>
<path style="fill:none;stroke-width:0.66;stroke-linecap:round;stroke-linejoin:round;stroke:rgb(40.78%,67.84%,21.18%);stroke-opacity:1;stroke-miterlimit:10;" d="M 114.06 75.39 C 106.21 79.09 97 78.41 89.79 73.59 " transform="matrix(1,0,0,1,0,0)"/>
<path style="fill:none;stroke-width:0.66;stroke-linecap:round;stroke-linejoin:round;stroke:rgb(40.78%,67.84%,21.18%);stroke-opacity:1;stroke-miterlimit:10;" d="M 116.77 76.44 C 119.65 85.52 117.56 95.44 111.25 102.57 " transform="matrix(1,0,0,1,0,0)"/>
<path style="fill:none;stroke-width:0.66;stroke-linecap:round;stroke-linejoin:round;stroke:rgb(40.78%,67.84%,21.18%);stroke-opacity:1;stroke-miterlimit:10;" d="M 118.07 73.55 C 130.25 69.1 143.8 70.59 154.73 77.57 " transform="matrix(1,0,0,1,0,0)"/>
<path style="fill:none;stroke-width:0.66;stroke-linecap:round;stroke-linejoin:round;stroke:rgb(40.78%,67.84%,21.18%);stroke-opacity:1;stroke-miterlimit:10;" d="M 115.17 72.32 C 113.72 68.1 114.01 63.48 115.97 59.47 " transform="matrix(1,0,0,1,0,0)"/>
<path style="fill:none;stroke-width:0.66;stroke-linecap:round;stroke-linejoin:round;stroke:rgb(61.57%,58.04%,50.98%);stroke-opacity:1;stroke-miterlimit:10;" d="M 161.1 130.32 C 127.69 128.46 98.72 106.59 87.78 74.98 " transform="matrix(1,0,0,1,0,0)"/>
<path style="fill:none;stroke-width:0.66;stroke-linecap:round;stroke-linejoin:round;stroke:rgb(61.57%,58.04%,50.98%);stroke-opacity:1;stroke-miterlimit:10;" d="M 163.01 126.79 C 157.76 118.16 156.27 107.76 158.91 98.01 " transform="matrix(1,0,0,1,0,0)"/>
<path style="fill:none;stroke-width:0.66;stroke-linecap:round;stroke-linejoin:round;stroke:rgb(61.57%,58.04%,50.98%);stroke-opacity:1;stroke-miterlimit:10;" d="M 189.1 112.34 C 180.82 110.59 173.59 105.57 169.04 98.43 " transform="matrix(1,0,0,1,0,0)"/>
<path style="fill:none;stroke-width:0.66;stroke-linecap:round;stroke-linejoin:round;stroke:rgb(40.78%,67.84%,21.18%);stroke-opacity:1;stroke-miterlimit:10;" d="M 97.04 37.96 C 100.32 48.63 97.49 60.24 89.65 68.2 " transform="matrix(1,0,0,1,0,0)"/>
<path style="fill:none;stroke-width:0.66;stroke-linecap:round;stroke-linejoin:round;stroke:rgb(40.78%,67.84%,21.18%);stroke-opacity:1;stroke-miterlimit:10;" d="M 98.52 36.04 C 106.49 36.98 113.51 41.72 117.39 48.75 " transform="matrix(1,0,0,1,0,0)"/>
<path style="fill:none;stroke-width:0.66;stroke-linecap:round;stroke-linejoin:round;stroke:rgb(40.78%,67.84%,21.18%);stroke-opacity:1;stroke-miterlimit:10;" d="M 128.99 91.64 C 113.44 93.89 97.93 87.29 88.78 74.51 " transform="matrix(1,0,0,1,0,0)"/>
<path style="fill:none;stroke-width:0.66;stroke-linecap:round;stroke-linejoin:round;stroke:rgb(40.78%,67.84%,21.18%);stroke-opacity:1;stroke-miterlimit:10;" d="M 131.08 94.42 C 127.05 100.94 120.18 105.18 112.54 105.85 " transform="matrix(1,0,0,1,0,0)"/>
<path style="fill:none;stroke-width:0.66;stroke-linecap:round;stroke-linejoin:round;stroke:rgb(40.78%,67.84%,21.18%);stroke-opacity:1;stroke-miterlimit:10;" d="M 135.86 88.29 C 140.48 84.85 146.09 82.99 151.85 83.01 " transform="matrix(1,0,0,1,0,0)"/>
<path style="fill:none;stroke-width:0.66;stroke-linecap:round;stroke-linejoin:round;stroke:rgb(40.78%,67.84%,21.18%);stroke-opacity:1;stroke-miterlimit:10;" d="M 129.7 88.52 C 121.57 81.64 117.35 71.18 118.45 60.58 " transform="matrix(1,0,0,1,0,0)"/>
<path style="fill:none;stroke-width:0.66;stroke-linecap:round;stroke-linejoin:round;stroke:rgb(40.78%,67.84%,21.18%);stroke-opacity:1;stroke-miterlimit:10;" d="M 69.95 94.07 C 70.15 85.21 74.99 77.11 82.7 72.74 " transform="matrix(1,0,0,1,0,0)"/>
<path style="fill:none;stroke-width:0.66;stroke-linecap:round;stroke-linejoin:round;stroke:rgb(40.78%,67.84%,21.18%);stroke-opacity:1;stroke-miterlimit:10;" d="M 72.06 95.5 C 83.36 91.64 95.86 94.28 104.63 102.38 " transform="matrix(1,0,0,1,0,0)"/>
<path style="fill:none;stroke-width:0.66;stroke-linecap:round;stroke-linejoin:round;stroke:rgb(40.78%,67.84%,21.18%);stroke-opacity:1;stroke-miterlimit:10;" d="M 127.16 121.7 C 105.67 115.59 89.85 97.31 86.9 75.16 " transform="matrix(1,0,0,1,0,0)"/>
<path style="fill:none;stroke-width:0.66;stroke-linecap:round;stroke-linejoin:round;stroke:rgb(40.78%,67.84%,21.18%);stroke-opacity:1;stroke-miterlimit:10;" d="M 127.08 122.21 C 119.64 121.29 113.11 116.79 109.61 110.16 " transform="matrix(1,0,0,1,0,0)"/>
<path style="fill:none;stroke-width:0.66;stroke-linecap:round;stroke-linejoin:round;stroke:rgb(40.78%,67.84%,21.18%);stroke-opacity:1;stroke-miterlimit:10;" d="M 76.83 106.3 C 72.85 95.09 75.4 82.61 83.47 73.87 " transform="matrix(1,0,0,1,0,0)"/>
<path style="fill:none;stroke-width:0.66;stroke-linecap:round;stroke-linejoin:round;stroke:rgb(40.78%,67.84%,21.18%);stroke-opacity:1;stroke-miterlimit:10;" d="M 79.36 106.96 C 86.35 101.75 95.53 100.52 103.65 103.7 " transform="matrix(1,0,0,1,0,0)"/>
<path style="fill:none;stroke-width:0.66;stroke-linecap:round;stroke-linejoin:round;stroke:rgb(41.18%,60%,83.14%);stroke-opacity:1;stroke-miterlimit:10;" d="M 272.63 82.04 C 277.38 93.62 275.43 106.86 267.55 116.58 " transform="matrix(1,0,0,1,0,0)"/>
<path style="fill:none;stroke-width:0.66;stroke-linecap:round;stroke-linejoin:round;stroke:rgb(0%,71.76%,85.49%);stroke-opacity:1;stroke-miterlimit:10;" d="M 268.2 78.21 C 264.21 76.54 261.08 73.31 259.55 69.26 " transform="matrix(1,0,0,1,0,0)"/>
<path style="fill:none;stroke-width:0.66;stroke-linecap:round;stroke-linejoin:round;stroke:rgb(61.57%,58.04%,50.98%);stroke-opacity:1;stroke-miterlimit:10;" d="M 240.95 96.53 C 220.06 107.62 194.84 106.72 174.79 94.19 " transform="matrix(1,0,0,1,0,0)"/>
<path style="fill:none;stroke-width:0.66;stroke-linecap:round;stroke-linejoin:round;stroke:rgb(82.35%,48.63%,80.78%);stroke-opacity:1;stroke-miterlimit:10;" d="M 246.24 95.89 C 255.21 98.86 261.98 106.31 264.09 115.52 " transform="matrix(1,0,0,1,0,0)"/>
<path style="fill:none;stroke-width:0.66;stroke-linecap:round;stroke-linejoin:round;stroke:rgb(41.18%,60%,83.14%);stroke-opacity:1;stroke-miterlimit:10;" d="M 243.11 92.27 C 242.39 82.44 246.91 72.95 255 67.31 " transform="matrix(1,0,0,1,0,0)"/>
<path style="fill:none;stroke-width:0.66;stroke-linecap:round;stroke-linejoin:round;stroke:rgb(20.39%,69.8%,53.33%);stroke-opacity:1;stroke-miterlimit:10;" d="M 198.65 95.81 C 190.78 98.27 182.29 97.65 174.86 94.09 " transform="matrix(1,0,0,1,0,0)"/>
<path style="fill:none;stroke-width:0.66;stroke-linecap:round;stroke-linejoin:round;stroke:rgb(82.35%,48.63%,80.78%);stroke-opacity:1;stroke-miterlimit:10;" d="M 265.61 144.09 C 261.41 138.07 260.4 130.37 262.91 123.46 " transform="matrix(1,0,0,1,0,0)"/>
<path style="fill:none;stroke-width:0.66;stroke-linecap:round;stroke-linejoin:round;stroke:rgb(82.35%,48.63%,80.78%);stroke-opacity:1;stroke-miterlimit:10;" d="M 269.69 149.04 C 271.5 151.81 272.23 155.15 271.73 158.42 " transform="matrix(1,0,0,1,0,0)"/>
<path style="fill:none;stroke-width:0.66;stroke-linecap:round;stroke-linejoin:round;stroke:rgb(61.57%,58.04%,50.98%);stroke-opacity:1;stroke-miterlimit:10;" d="M 167.83 153.43 C 141.43 152.09 118.38 135.1 109.3 110.27 " transform="matrix(1,0,0,1,0,0)"/>
<path style="fill:none;stroke-width:0.66;stroke-linecap:round;stroke-linejoin:round;stroke:rgb(82.35%,48.63%,80.78%);stroke-opacity:1;stroke-miterlimit:10;" d="M 168.71 151.38 C 165.19 147.33 163.47 142.03 163.95 136.69 " transform="matrix(1,0,0,1,0,0)"/>
<path style="fill:none;stroke-width:0.66;stroke-linecap:round;stroke-linejoin:round;stroke:rgb(20.39%,69.8%,53.33%);stroke-opacity:1;stroke-miterlimit:10;" d="M 214.83 82.8 C 175.16 105.48 125.7 101.85 89.76 73.63 " transform="matrix(1,0,0,1,0,0)"/>
<path style="fill:none;stroke-width:0.66;stroke-linecap:round;stroke-linejoin:round;stroke:rgb(0%,71.76%,85.49%);stroke-opacity:1;stroke-miterlimit:10;" d="M 225.66 73.33 C 233.26 65.85 244 62.47 254.52 64.22 " transform="matrix(1,0,0,1,0,0)"/>
<path style="fill:none;stroke-width:0.66;stroke-linecap:round;stroke-linejoin:round;stroke:rgb(0%,71.76%,85.49%);stroke-opacity:1;stroke-miterlimit:10;" d="M 227.25 75.15 C 239.83 68.82 254.74 69.24 266.94 76.27 " transform="matrix(1,0,0,1,0,0)"/>
<path style="fill:none;stroke-width:0.66;stroke-linecap:round;stroke-linejoin:round;stroke:rgb(0%,71.76%,85.49%);stroke-opacity:1;stroke-miterlimit:10;" d="M 218.09 85.64 C 215.83 88.92 212.65 91.45 208.94 92.89 " transform="matrix(1,0,0,1,0,0)"/>
<path style="fill:none;stroke-width:0.66;stroke-linecap:round;stroke-linejoin:round;stroke:rgb(61.57%,58.04%,50.98%);stroke-opacity:1;stroke-miterlimit:10;" d="M 221.96 158.91 C 193.65 150.97 172.1 127.94 166.08 99.16 " transform="matrix(1,0,0,1,0,0)"/>
<path style="fill:none;stroke-width:0.66;stroke-linecap:round;stroke-linejoin:round;stroke:rgb(82.35%,48.63%,80.78%);stroke-opacity:1;stroke-miterlimit:10;" d="M 221.91 159.89 C 201.08 162.84 180.42 153.55 168.8 136.02 " transform="matrix(1,0,0,1,0,0)"/>
<path style="fill:none;stroke-width:0.66;stroke-linecap:round;stroke-linejoin:round;stroke:rgb(82.35%,48.63%,80.78%);stroke-opacity:1;stroke-miterlimit:10;" d="M 226.24 160.81 C 231.9 164.98 235.12 171.69 234.83 178.71 " transform="matrix(1,0,0,1,0,0)"/>
<path style="fill:none;stroke-width:0.66;stroke-linecap:round;stroke-linejoin:round;stroke:rgb(82.35%,48.63%,80.78%);stroke-opacity:1;stroke-miterlimit:10;" d="M 223.66 161.81 C 221.66 168.03 216.75 172.89 210.51 174.82 " transform="matrix(1,0,0,1,0,0)"/>
<path style="fill:none;stroke-width:0.66;stroke-linecap:round;stroke-linejoin:round;stroke:rgb(82.35%,48.63%,80.78%);stroke-opacity:1;stroke-miterlimit:10;" d="M 225.16 161.71 C 227.47 168.32 226.35 175.64 222.17 181.26 " transform="matrix(1,0,0,1,0,0)"/>
<path style="fill:none;stroke-width:0.66;stroke-linecap:round;stroke-linejoin:round;stroke:rgb(82.35%,48.63%,80.78%);stroke-opacity:1;stroke-miterlimit:10;" d="M 226.63 159.49 C 233.74 159.82 240.22 163.68 243.91 169.76 " transform="matrix(1,0,0,1,0,0)"/>
<path style="fill:none;stroke-width:0.66;stroke-linecap:round;stroke-linejoin:round;stroke:rgb(82.35%,48.63%,80.78%);stroke-opacity:1;stroke-miterlimit:10;" d="M 226.09 158 C 230.87 154.54 237.01 153.55 242.64 155.34 " transform="matrix(1,0,0,1,0,0)"/>
<path style="fill:none;stroke-width:0.66;stroke-linecap:round;stroke-linejoin:round;stroke:rgb(82.35%,48.63%,80.78%);stroke-opacity:1;stroke-miterlimit:10;" d="M 224.67 157.17 C 228.36 138.92 242.42 124.54 260.58 120.42 " transform="matrix(1,0,0,1,0,0)"/>
<path style="fill:none;stroke-width:0.66;stroke-linecap:round;stroke-linejoin:round;stroke:rgb(82.35%,48.63%,80.78%);stroke-opacity:1;stroke-miterlimit:10;" d="M 225.73 157.65 C 234.76 146.95 248.96 142.12 262.64 145.12 " transform="matrix(1,0,0,1,0,0)"/>
<path style="fill:none;stroke-width:0.66;stroke-linecap:round;stroke-linejoin:round;stroke:rgb(82.35%,48.63%,80.78%);stroke-opacity:1;stroke-miterlimit:10;" d="M 222.18 160.66 C 206.92 168.58 188.48 167.05 174.73 156.75 " transform="matrix(1,0,0,1,0,0)"/>
<path style="fill:none;stroke-width:0.66;stroke-linecap:round;stroke-linejoin:round;stroke:rgb(41.18%,60%,83.14%);stroke-opacity:1;stroke-miterlimit:10;" d="M 222.79 157.64 C 207.34 137.24 204.83 109.84 216.31 86.97 " transform="matrix(1,0,0,1,0,0)"/>
<path style="fill:none;stroke-width:0.66;stroke-linecap:round;stroke-linejoin:round;stroke:rgb(82.35%,48.63%,80.78%);stroke-opacity:1;stroke-miterlimit:10;" d="M 214.99 137.04 C 200.86 144.49 183.77 143.5 170.59 134.48 " transform="matrix(1,0,0,1,0,0)"/>
<path style="fill:none;stroke-width:0.66;stroke-linecap:round;stroke-linejoin:round;stroke:rgb(82.35%,48.63%,80.78%);stroke-opacity:1;stroke-miterlimit:10;" d="M 214.73 135.66 C 204.51 133.89 196.05 126.74 192.58 116.96 " transform="matrix(1,0,0,1,0,0)"/>
<path style="fill:none;stroke-width:0.66;stroke-linecap:round;stroke-linejoin:round;stroke:rgb(61.57%,58.04%,50.98%);stroke-opacity:1;stroke-miterlimit:10;" d="M 214.73 136.26 C 182.65 140.24 151.36 124.4 135.58 96.18 " transform="matrix(1,0,0,1,0,0)"/>
<path style="fill:none;stroke-width:0.66;stroke-linecap:round;stroke-linejoin:round;stroke:rgb(82.35%,48.63%,80.78%);stroke-opacity:1;stroke-miterlimit:10;" d="M 218.74 137.2 C 231.85 146.69 238.28 162.9 235.25 178.79 " transform="matrix(1,0,0,1,0,0)"/>
<path style="fill:none;stroke-width:0.66;stroke-linecap:round;stroke-linejoin:round;stroke:rgb(82.35%,48.63%,80.78%);stroke-opacity:1;stroke-miterlimit:10;" d="M 217.68 138.03 C 221.72 150.25 218.57 163.7 209.52 172.84 " transform="matrix(1,0,0,1,0,0)"/>
<path style="fill:none;stroke-width:0.66;stroke-linecap:round;stroke-linejoin:round;stroke:rgb(82.35%,48.63%,80.78%);stroke-opacity:1;stroke-miterlimit:10;" d="M 218.28 137.7 C 227.59 150.22 228.85 166.99 221.51 180.77 " transform="matrix(1,0,0,1,0,0)"/>
<path style="fill:none;stroke-width:0.66;stroke-linecap:round;stroke-linejoin:round;stroke:rgb(61.57%,58.04%,50.98%);stroke-opacity:1;stroke-miterlimit:10;" d="M 214.95 136.96 C 188 150.28 155.65 145.82 133.31 125.7 " transform="matrix(1,0,0,1,0,0)"/>
<path style="fill:none;stroke-width:0.66;stroke-linecap:round;stroke-linejoin:round;stroke:rgb(82.35%,48.63%,80.78%);stroke-opacity:1;stroke-miterlimit:10;" d="M 219.03 136.61 C 233.41 141.53 243.68 154.27 245.45 169.36 " transform="matrix(1,0,0,1,0,0)"/>
<path style="fill:none;stroke-width:0.66;stroke-linecap:round;stroke-linejoin:round;stroke:rgb(82.35%,48.63%,80.78%);stroke-opacity:1;stroke-miterlimit:10;" d="M 219.13 135.99 C 230.23 136.54 240.13 143.13 244.92 153.15 " transform="matrix(1,0,0,1,0,0)"/>
<path style="fill:none;stroke-width:0.66;stroke-linecap:round;stroke-linejoin:round;stroke:rgb(82.35%,48.63%,80.78%);stroke-opacity:1;stroke-miterlimit:10;" d="M 218.21 134.17 C 228.13 121.16 244.68 115.08 260.66 118.57 " transform="matrix(1,0,0,1,0,0)"/>
<path style="fill:none;stroke-width:0.66;stroke-linecap:round;stroke-linejoin:round;stroke:rgb(82.35%,48.63%,80.78%);stroke-opacity:1;stroke-miterlimit:10;" d="M 219.1 135.6 C 238.67 132.84 258.02 141.93 268.4 158.75 " transform="matrix(1,0,0,1,0,0)"/>
<path style="fill:none;stroke-width:0.66;stroke-linecap:round;stroke-linejoin:round;stroke:rgb(82.35%,48.63%,80.78%);stroke-opacity:1;stroke-miterlimit:10;" d="M 216.83 133.75 C 216.64 118.3 225.23 104.08 239 97.07 " transform="matrix(1,0,0,1,0,0)"/>
<path style="fill:none;stroke-width:0.66;stroke-linecap:round;stroke-linejoin:round;stroke:rgb(41.18%,60%,83.14%);stroke-opacity:1;stroke-miterlimit:10;" d="M 215.13 134.66 C 204.7 126.57 199.41 113.5 201.28 100.43 " transform="matrix(1,0,0,1,0,0)"/>
<path style="fill:none;stroke-width:0.66;stroke-linecap:round;stroke-linejoin:round;stroke:rgb(82.35%,48.63%,80.78%);stroke-opacity:1;stroke-miterlimit:10;" d="M 218.94 135.08 C 234.21 128.88 251.68 131.91 263.97 142.9 " transform="matrix(1,0,0,1,0,0)"/>
<path style="fill:none;stroke-width:0.66;stroke-linecap:round;stroke-linejoin:round;stroke:rgb(82.35%,48.63%,80.78%);stroke-opacity:1;stroke-miterlimit:10;" d="M 215.69 137.79 C 206.66 150.52 191.2 157.04 175.78 154.6 " transform="matrix(1,0,0,1,0,0)"/>
<path style="fill:none;stroke-width:0.66;stroke-linecap:round;stroke-linejoin:round;stroke:rgb(41.18%,60%,83.14%);stroke-opacity:1;stroke-miterlimit:10;" d="M 215.77 134.07 C 207.26 119.38 207.22 101.27 215.67 86.54 " transform="matrix(1,0,0,1,0,0)"/>
<path style="fill:none;stroke-width:0.66;stroke-linecap:round;stroke-linejoin:round;stroke:rgb(82.35%,48.63%,80.78%);stroke-opacity:1;stroke-miterlimit:10;" d="M 218.63 137.35 C 223.66 141.87 226.14 148.57 225.27 155.27 " transform="matrix(1,0,0,1,0,0)"/>
<path style=" stroke:none;fill-rule:nonzero;fill:rgb(40.78%,67.84%,21.18%);fill-opacity:1;" d="M 86.16 73.18 L 87.09 75.2 L 85.11 75.14 Z M 86.16 73.18 "/>
<path style=" stroke:none;fill-rule:nonzero;fill:rgb(40.78%,67.84%,21.18%);fill-opacity:1;" d="M 87.76 72.57 L 89.85 73.32 L 88.42 74.69 Z M 87.76 72.57 "/>
<path style=" stroke:none;fill-rule:nonzero;fill:rgb(40.78%,67.84%,21.18%);fill-opacity:1;" d="M 110.11 106.51 L 112.29 106.07 L 111.77 107.99 Z M 110.11 106.51 "/>
<path style=" stroke:none;fill-rule:nonzero;fill:rgb(40.78%,67.84%,21.18%);fill-opacity:1;" d="M 88.42 71.23 L 90.5 70.47 L 90.28 72.45 Z M 88.42 71.23 "/>
<path style=" stroke:none;fill-rule:nonzero;fill:rgb(40.78%,67.84%,21.18%);fill-opacity:1;" d="M 109.48 103.95 L 110.24 101.87 L 111.6 103.32 Z M 109.48 103.95 "/>
<path style=" stroke:none;fill-rule:nonzero;fill:rgb(40.78%,67.84%,21.18%);fill-opacity:1;" d="M 159.12 76.3 L 157.37 74.95 L 159.14 74.08 Z M 159.12 76.3 "/>
<path style=" stroke:none;fill-rule:nonzero;fill:rgb(40.78%,67.84%,21.18%);fill-opacity:1;" d="M 87.96 72.36 L 90.12 72.82 L 88.89 74.37 Z M 87.96 72.36 "/>
<path style=" stroke:none;fill-rule:nonzero;fill:rgb(40.78%,67.84%,21.18%);fill-opacity:1;" d="M 109.46 103.94 L 110.22 101.85 L 111.58 103.29 Z M 109.46 103.94 "/>
<path style=" stroke:none;fill-rule:nonzero;fill:rgb(40.78%,67.84%,21.18%);fill-opacity:1;" d="M 155.72 78.89 L 153.58 78.32 L 154.9 76.83 Z M 155.72 78.89 "/>
<path style=" stroke:none;fill-rule:nonzero;fill:rgb(40.78%,67.84%,21.18%);fill-opacity:1;" d="M 116.79 57.88 L 116.4 60.07 L 114.82 58.88 Z M 116.79 57.88 "/>
<path style=" stroke:none;fill-rule:nonzero;fill:rgb(61.57%,58.04%,50.98%);fill-opacity:1;" d="M 86.9 73.08 L 88.45 74.68 L 86.56 75.28 Z M 86.9 73.08 "/>
<path style=" stroke:none;fill-rule:nonzero;fill:rgb(61.57%,58.04%,50.98%);fill-opacity:1;" d="M 159.25 96.21 L 159.3 98.43 L 157.51 97.58 Z M 159.25 96.21 "/>
<path style=" stroke:none;fill-rule:nonzero;fill:rgb(61.57%,58.04%,50.98%);fill-opacity:1;" d="M 167.82 96.57 L 169.44 98.08 L 167.58 98.77 Z M 167.82 96.57 "/>
<path style=" stroke:none;fill-rule:nonzero;fill:rgb(40.78%,67.84%,21.18%);fill-opacity:1;" d="M 87.88 69.52 L 88.71 67.45 L 90.02 68.94 Z M 87.88 69.52 "/>
<path style=" stroke:none;fill-rule:nonzero;fill:rgb(40.78%,67.84%,21.18%);fill-opacity:1;" d="M 117.75 50.59 L 116.1 49.12 L 117.94 48.38 Z M 117.75 50.59 "/>
<path style=" stroke:none;fill-rule:nonzero;fill:rgb(40.78%,67.84%,21.18%);fill-opacity:1;" d="M 87.43 72.84 L 89.33 73.97 L 87.66 75.04 Z M 87.43 72.84 "/>
<path style=" stroke:none;fill-rule:nonzero;fill:rgb(40.78%,67.84%,21.18%);fill-opacity:1;" d="M 110.21 105.83 L 112.2 104.86 L 112.18 106.84 Z M 110.21 105.83 "/>
<path style=" stroke:none;fill-rule:nonzero;fill:rgb(40.78%,67.84%,21.18%);fill-opacity:1;" d="M 153.29 83.5 L 151.12 83.97 L 151.61 82.04 Z M 153.29 83.5 "/>
<path style=" stroke:none;fill-rule:nonzero;fill:rgb(40.78%,67.84%,21.18%);fill-opacity:1;" d="M 118.47 58.63 L 119.05 60.78 L 117.11 60.38 Z M 118.47 58.63 "/>
<path style=" stroke:none;fill-rule:nonzero;fill:rgb(40.78%,67.84%,21.18%);fill-opacity:1;" d="M 105.66 103.83 L 103.58 103.06 L 105.03 101.7 Z M 105.66 103.83 "/>
<path style=" stroke:none;fill-rule:nonzero;fill:rgb(40.78%,67.84%,21.18%);fill-opacity:1;" d="M 86.44 73.18 L 87.62 75.06 L 85.64 75.25 Z M 86.44 73.18 "/>
<path style=" stroke:none;fill-rule:nonzero;fill:rgb(40.78%,67.84%,21.18%);fill-opacity:1;" d="M 108.52 108.32 L 110.18 109.79 L 108.34 110.53 Z M 108.52 108.32 "/>
<path style=" stroke:none;fill-rule:nonzero;fill:rgb(40.78%,67.84%,21.18%);fill-opacity:1;" d="M 84.64 72.5 L 83.89 74.59 L 82.52 73.15 Z M 84.64 72.5 "/>
<path style=" stroke:none;fill-rule:nonzero;fill:rgb(40.78%,67.84%,21.18%);fill-opacity:1;" d="M 105.1 104.59 L 102.88 104.58 L 103.77 102.8 Z M 105.1 104.59 "/>
<path style=" stroke:none;fill-rule:nonzero;fill:rgb(41.18%,60%,83.14%);fill-opacity:1;" d="M 265.37 118.05 L 265.97 115.91 L 267.43 117.25 Z M 265.37 118.05 "/>
<path style=" stroke:none;fill-rule:nonzero;fill:rgb(0%,71.76%,85.49%);fill-opacity:1;" d="M 258.29 67.32 L 259.7 69.04 L 257.77 69.48 Z M 258.29 67.32 "/>
<path style=" stroke:none;fill-rule:nonzero;fill:rgb(61.57%,58.04%,50.98%);fill-opacity:1;" d="M 172.67 92.97 L 174.84 93.4 L 173.63 94.97 Z M 172.67 92.97 "/>
<path style=" stroke:none;fill-rule:nonzero;fill:rgb(82.35%,48.63%,80.78%);fill-opacity:1;" d="M 263.55 117.49 L 262.28 115.67 L 264.24 115.38 Z M 263.55 117.49 "/>
<path style=" stroke:none;fill-rule:nonzero;fill:rgb(41.18%,60%,83.14%);fill-opacity:1;" d="M 255.89 66.3 L 254.7 68.16 L 253.68 66.45 Z M 255.89 66.3 "/>
<path style=" stroke:none;fill-rule:nonzero;fill:rgb(20.39%,69.8%,53.33%);fill-opacity:1;" d="M 172.73 92.89 L 174.9 93.3 L 173.71 94.89 Z M 172.73 92.89 "/>
<path style=" stroke:none;fill-rule:nonzero;fill:rgb(82.35%,48.63%,80.78%);fill-opacity:1;" d="M 262.93 121.67 L 262.98 123.89 L 261.19 123.04 Z M 262.93 121.67 "/>
<path style=" stroke:none;fill-rule:nonzero;fill:rgb(82.35%,48.63%,80.78%);fill-opacity:1;" d="M 270.27 160.31 L 269.93 158.11 L 271.81 158.72 Z M 270.27 160.31 "/>
<path style=" stroke:none;fill-rule:nonzero;fill:rgb(61.57%,58.04%,50.98%);fill-opacity:1;" d="M 108.34 108.38 L 109.9 109.96 L 108.02 110.58 Z M 108.34 108.38 "/>
<path style=" stroke:none;fill-rule:nonzero;fill:rgb(82.35%,48.63%,80.78%);fill-opacity:1;" d="M 163.92 134.76 L 164.39 136.94 L 162.47 136.44 Z M 163.92 134.76 "/>
<path style=" stroke:none;fill-rule:nonzero;fill:rgb(20.39%,69.8%,53.33%);fill-opacity:1;" d="M 87.94 72.38 L 90.1 72.86 L 88.85 74.4 Z M 87.94 72.38 "/>
<path style=" stroke:none;fill-rule:nonzero;fill:rgb(0%,71.76%,85.49%);fill-opacity:1;" d="M 255.65 64.67 L 253.49 65.19 L 253.94 63.25 Z M 255.65 64.67 "/>
<path style=" stroke:none;fill-rule:nonzero;fill:rgb(0%,71.76%,85.49%);fill-opacity:1;" d="M 267.75 77.36 L 265.56 77.09 L 266.65 75.44 Z M 267.75 77.36 "/>
<path style=" stroke:none;fill-rule:nonzero;fill:rgb(0%,71.76%,85.49%);fill-opacity:1;" d="M 206.35 93.31 L 208.08 91.92 L 208.49 93.86 Z M 206.35 93.31 "/>
<path style=" stroke:none;fill-rule:nonzero;fill:rgb(61.57%,58.04%,50.98%);fill-opacity:1;" d="M 165.31 97.18 L 166.54 99.03 L 164.57 99.28 Z M 165.31 97.18 "/>
<path style=" stroke:none;fill-rule:nonzero;fill:rgb(82.35%,48.63%,80.78%);fill-opacity:1;" d="M 167.27 134.3 L 169.12 135.52 L 167.41 136.52 Z M 167.27 134.3 "/>
<path style=" stroke:none;fill-rule:nonzero;fill:rgb(82.35%,48.63%,80.78%);fill-opacity:1;" d="M 233.82 180.68 L 233.11 178.57 L 235.07 178.85 Z M 233.82 180.68 "/>
<path style=" stroke:none;fill-rule:nonzero;fill:rgb(82.35%,48.63%,80.78%);fill-opacity:1;" d="M 207.9 175.21 L 209.65 173.84 L 210.04 175.79 Z M 207.9 175.21 "/>
<path style=" stroke:none;fill-rule:nonzero;fill:rgb(82.35%,48.63%,80.78%);fill-opacity:1;" d="M 220.14 182.73 L 220.74 180.59 L 222.21 181.93 Z M 220.14 182.73 "/>
<path style=" stroke:none;fill-rule:nonzero;fill:rgb(82.35%,48.63%,80.78%);fill-opacity:1;" d="M 243.99 171.55 L 242.25 170.19 L 244.03 169.33 Z M 243.99 171.55 "/>
<path style=" stroke:none;fill-rule:nonzero;fill:rgb(82.35%,48.63%,80.78%);fill-opacity:1;" d="M 243.68 156.15 L 241.47 156.25 L 242.28 154.44 Z M 243.68 156.15 "/>
<path style=" stroke:none;fill-rule:nonzero;fill:rgb(82.35%,48.63%,80.78%);fill-opacity:1;" d="M 261.71 120.07 L 259.94 121.4 L 259.58 119.44 Z M 261.71 120.07 "/>
<path style=" stroke:none;fill-rule:nonzero;fill:rgb(82.35%,48.63%,80.78%);fill-opacity:1;" d="M 263.71 145.69 L 261.54 146.08 L 262.09 144.18 Z M 263.71 145.69 "/>
<path style=" stroke:none;fill-rule:nonzero;fill:rgb(82.35%,48.63%,80.78%);fill-opacity:1;" d="M 172.66 155.47 L 174.81 155.99 L 173.54 157.51 Z M 172.66 155.47 "/>
<path style=" stroke:none;fill-rule:nonzero;fill:rgb(41.18%,60%,83.14%);fill-opacity:1;" d="M 216.64 85.26 L 216.49 87.47 L 214.78 86.46 Z M 216.64 85.26 "/>
<path style=" stroke:none;fill-rule:nonzero;fill:rgb(82.35%,48.63%,80.78%);fill-opacity:1;" d="M 168.5 133.23 L 170.67 133.7 L 169.43 135.25 Z M 168.5 133.23 "/>
<path style=" stroke:none;fill-rule:nonzero;fill:rgb(82.35%,48.63%,80.78%);fill-opacity:1;" d="M 191.46 115.04 L 192.93 116.7 L 191.02 117.22 Z M 191.46 115.04 "/>
<path style=" stroke:none;fill-rule:nonzero;fill:rgb(61.57%,58.04%,50.98%);fill-opacity:1;" d="M 134.25 94.41 L 136.04 95.73 L 134.27 96.64 Z M 134.25 94.41 "/>
<path style=" stroke:none;fill-rule:nonzero;fill:rgb(82.35%,48.63%,80.78%);fill-opacity:1;" d="M 234.04 180.72 L 233.54 178.55 L 235.46 179.03 Z M 234.04 180.72 "/>
<path style=" stroke:none;fill-rule:nonzero;fill:rgb(82.35%,48.63%,80.78%);fill-opacity:1;" d="M 207.38 174.16 L 208.2 172.1 L 209.52 173.58 Z M 207.38 174.16 "/>
<path style=" stroke:none;fill-rule:nonzero;fill:rgb(82.35%,48.63%,80.78%);fill-opacity:1;" d="M 219.79 182.47 L 219.96 180.26 L 221.66 181.28 Z M 219.79 182.47 "/>
<path style=" stroke:none;fill-rule:nonzero;fill:rgb(61.57%,58.04%,50.98%);fill-opacity:1;" d="M 131.46 124.32 L 133.58 124.98 L 132.21 126.42 Z M 131.46 124.32 "/>
<path style=" stroke:none;fill-rule:nonzero;fill:rgb(82.35%,48.63%,80.78%);fill-opacity:1;" d="M 244.8 171.34 L 243.69 169.42 L 245.67 169.29 Z M 244.8 171.34 "/>
<path style=" stroke:none;fill-rule:nonzero;fill:rgb(82.35%,48.63%,80.78%);fill-opacity:1;" d="M 244.88 155 L 243.23 153.52 L 245.07 152.79 Z M 244.88 155 "/>
<path style=" stroke:none;fill-rule:nonzero;fill:rgb(82.35%,48.63%,80.78%);fill-opacity:1;" d="M 261.75 119.09 L 259.58 119.53 L 260.1 117.62 Z M 261.75 119.09 "/>
<path style=" stroke:none;fill-rule:nonzero;fill:rgb(82.35%,48.63%,80.78%);fill-opacity:1;" d="M 268.52 160.48 L 266.69 159.23 L 268.41 158.27 Z M 268.52 160.48 "/>
<path style=" stroke:none;fill-rule:nonzero;fill:rgb(82.35%,48.63%,80.78%);fill-opacity:1;" d="M 240.07 96.28 L 238.64 97.98 L 237.86 96.16 Z M 240.07 96.28 "/>
<path style=" stroke:none;fill-rule:nonzero;fill:rgb(41.18%,60%,83.14%);fill-opacity:1;" d="M 201.09 98.49 L 201.61 100.65 L 199.68 100.2 Z M 201.09 98.49 "/>
<path style=" stroke:none;fill-rule:nonzero;fill:rgb(82.35%,48.63%,80.78%);fill-opacity:1;" d="M 264.53 144.31 L 262.43 143.6 L 263.84 142.2 Z M 264.53 144.31 "/>
<path style=" stroke:none;fill-rule:nonzero;fill:rgb(82.35%,48.63%,80.78%);fill-opacity:1;" d="M 173.3 154.17 L 175.45 153.63 L 175.02 155.57 Z M 173.3 154.17 "/>
<path style=" stroke:none;fill-rule:nonzero;fill:rgb(41.18%,60%,83.14%);fill-opacity:1;" d="M 216.14 84.92 L 215.79 87.12 L 214.18 85.97 Z M 216.14 84.92 "/>
<path style=" stroke:none;fill-rule:nonzero;fill:rgb(82.35%,48.63%,80.78%);fill-opacity:1;" d="M 224.1 157.2 L 223.6 155.04 L 225.53 155.5 Z M 224.1 157.2 "/>
<path style="fill-rule:nonzero;fill:rgb(40.78%,67.84%,21.18%);fill-opacity:1;stroke-width:0.35;stroke-linecap:round;stroke-linejoin:round;stroke:rgb(28.23%,47.45%,14.51%);stroke-opacity:1;stroke-miterlimit:10;" d="M 88.54 70.98 C 88.54 69.86 87.63 68.95 86.51 68.95 C 85.39 68.95 84.47 69.86 84.47 70.98 C 84.47 72.1 85.39 73.01 86.51 73.01 C 87.63 73.01 88.54 72.1 88.54 70.98 " transform="matrix(1,0,0,1,0,0)"/>
<path style="fill-rule:nonzero;fill:rgb(40.78%,67.84%,21.18%);fill-opacity:1;stroke-width:0.43;stroke-linecap:round;stroke-linejoin:round;stroke:rgb(28.23%,47.45%,14.51%);stroke-opacity:1;stroke-miterlimit:10;" d="M 110.34 105.8 C 110.34 104.43 109.22 103.31 107.85 103.31 C 106.47 103.31 105.36 104.43 105.36 105.8 C 105.36 107.18 106.47 108.3 107.85 108.3 C 109.22 108.3 110.34 107.18 110.34 105.8 " transform="matrix(1,0,0,1,0,0)"/>
<path style="fill-rule:nonzero;fill:rgb(40.78%,67.84%,21.18%);fill-opacity:1;stroke-width:1.77;stroke-linecap:round;stroke-linejoin:round;stroke:rgb(28.23%,47.45%,14.51%);stroke-opacity:1;stroke-miterlimit:10;" d="M 174.63 86.23 C 174.63 80.61 170.08 76.07 164.47 76.07 C 158.86 76.07 154.31 80.61 154.31 86.23 C 154.31 91.84 158.86 96.38 164.47 96.38 C 170.08 96.38 174.63 91.84 174.63 86.23 " transform="matrix(1,0,0,1,0,0)"/>
<path style="fill-rule:nonzero;fill:rgb(40.78%,67.84%,21.18%);fill-opacity:1;stroke-width:0.67;stroke-linecap:round;stroke-linejoin:round;stroke:rgb(28.23%,47.45%,14.51%);stroke-opacity:1;stroke-miterlimit:10;" d="M 123.55 54.51 C 123.55 52.37 121.82 50.63 119.68 50.63 C 117.54 50.63 115.81 52.37 115.81 54.51 C 115.81 56.64 117.54 58.38 119.68 58.38 C 121.82 58.38 123.55 56.64 123.55 54.51 " transform="matrix(1,0,0,1,0,0)"/>
<path style="fill-rule:nonzero;fill:rgb(40.78%,67.84%,21.18%);fill-opacity:1;stroke-width:0.35;stroke-linecap:round;stroke-linejoin:round;stroke:rgb(28.23%,47.45%,14.51%);stroke-opacity:1;stroke-miterlimit:10;" d="M 118.05 74.36 C 118.05 73.24 117.14 72.33 116.02 72.33 C 114.89 72.33 113.98 73.24 113.98 74.36 C 113.98 75.49 114.89 76.39 116.02 76.39 C 117.14 76.39 118.05 75.49 118.05 74.36 " transform="matrix(1,0,0,1,0,0)"/>
<path style="fill-rule:nonzero;fill:rgb(82.35%,48.63%,80.78%);fill-opacity:1;stroke-width:0.71;stroke-linecap:round;stroke-linejoin:round;stroke:rgb(57.65%,33.72%,56.47%);stroke-opacity:1;stroke-miterlimit:10;" d="M 169.66 130.45 C 169.66 128.18 167.82 126.34 165.56 126.34 C 163.29 126.34 161.45 128.18 161.45 130.45 C 161.45 132.71 163.29 134.55 165.56 134.55 C 167.82 134.55 169.66 132.71 169.66 130.45 " transform="matrix(1,0,0,1,0,0)"/>
<path style="fill-rule:nonzero;fill:rgb(82.35%,48.63%,80.78%);fill-opacity:1;stroke-width:0.38;stroke-linecap:round;stroke-linejoin:round;stroke:rgb(57.65%,33.72%,56.47%);stroke-opacity:1;stroke-miterlimit:10;" d="M 193.63 112.75 C 193.63 111.54 192.65 110.56 191.44 110.56 C 190.23 110.56 189.26 111.54 189.26 112.75 C 189.26 113.96 190.23 114.93 191.44 114.93 C 192.65 114.93 193.63 113.96 193.63 112.75 " transform="matrix(1,0,0,1,0,0)"/>
<path style="fill-rule:nonzero;fill:rgb(40.78%,67.84%,21.18%);fill-opacity:1;stroke-width:0.35;stroke-linecap:round;stroke-linejoin:round;stroke:rgb(28.23%,47.45%,14.51%);stroke-opacity:1;stroke-miterlimit:10;" d="M 98.35 35.87 C 98.35 34.75 97.44 33.84 96.32 33.84 C 95.19 33.84 94.28 34.75 94.28 35.87 C 94.28 37 95.19 37.91 96.32 37.91 C 97.44 37.91 98.35 37 98.35 35.87 " transform="matrix(1,0,0,1,0,0)"/>
<path style="fill-rule:nonzero;fill:rgb(40.78%,67.84%,21.18%);fill-opacity:1;stroke-width:0.63;stroke-linecap:round;stroke-linejoin:round;stroke:rgb(28.23%,47.45%,14.51%);stroke-opacity:1;stroke-miterlimit:10;" d="M 136.52 90.89 C 136.52 88.88 134.89 87.25 132.88 87.25 C 130.87 87.25 129.23 88.88 129.23 90.89 C 129.23 92.9 130.87 94.54 132.88 94.54 C 134.89 94.54 136.52 92.9 136.52 90.89 " transform="matrix(1,0,0,1,0,0)"/>
<path style="fill-rule:nonzero;fill:rgb(82.35%,48.63%,80.78%);fill-opacity:1;stroke-width:0.35;stroke-linecap:round;stroke-linejoin:round;stroke:rgb(57.65%,33.72%,56.47%);stroke-opacity:1;stroke-miterlimit:10;" d="M 236.28 182.87 C 236.28 181.75 235.37 180.84 234.25 180.84 C 233.13 180.84 232.22 181.75 232.22 182.87 C 232.22 183.99 233.13 184.9 234.25 184.9 C 235.37 184.9 236.28 183.99 236.28 182.87 " transform="matrix(1,0,0,1,0,0)"/>
<path style="fill-rule:nonzero;fill:rgb(82.35%,48.63%,80.78%);fill-opacity:1;stroke-width:0.35;stroke-linecap:round;stroke-linejoin:round;stroke:rgb(57.65%,33.72%,56.47%);stroke-opacity:1;stroke-miterlimit:10;" d="M 208.43 175.64 C 208.43 174.52 207.52 173.6 206.39 173.6 C 205.27 173.6 204.36 174.52 204.36 175.64 C 204.36 176.76 205.27 177.67 206.39 177.67 C 207.52 177.67 208.43 176.76 208.43 175.64 " transform="matrix(1,0,0,1,0,0)"/>
<path style="fill-rule:nonzero;fill:rgb(40.78%,67.84%,21.18%);fill-opacity:1;stroke-width:0.35;stroke-linecap:round;stroke-linejoin:round;stroke:rgb(28.23%,47.45%,14.51%);stroke-opacity:1;stroke-miterlimit:10;" d="M 72.03 96.29 C 72.03 95.16 71.12 94.25 70 94.25 C 68.88 94.25 67.97 95.16 67.97 96.29 C 67.97 97.41 68.88 98.32 70 98.32 C 71.12 98.32 72.03 97.41 72.03 96.29 " transform="matrix(1,0,0,1,0,0)"/>
<path style="fill-rule:nonzero;fill:rgb(82.35%,48.63%,80.78%);fill-opacity:1;stroke-width:0.35;stroke-linecap:round;stroke-linejoin:round;stroke:rgb(57.65%,33.72%,56.47%);stroke-opacity:1;stroke-miterlimit:10;" d="M 221.38 184.37 C 221.38 183.24 220.47 182.33 219.35 182.33 C 218.23 182.33 217.31 183.24 217.31 184.37 C 217.31 185.49 218.23 186.4 219.35 186.4 C 220.47 186.4 221.38 185.49 221.38 184.37 " transform="matrix(1,0,0,1,0,0)"/>
<path style="fill-rule:nonzero;fill:rgb(40.78%,67.84%,21.18%);fill-opacity:1;stroke-width:0.45;stroke-linecap:round;stroke-linejoin:round;stroke:rgb(28.23%,47.45%,14.51%);stroke-opacity:1;stroke-miterlimit:10;" d="M 132.44 122.39 C 132.44 120.97 131.28 119.82 129.87 119.82 C 128.45 119.82 127.3 120.97 127.3 122.39 C 127.3 123.81 128.45 124.96 129.87 124.96 C 131.28 124.96 132.44 123.81 132.44 122.39 " transform="matrix(1,0,0,1,0,0)"/>
<path style="fill-rule:nonzero;fill:rgb(82.35%,48.63%,80.78%);fill-opacity:1;stroke-width:0.35;stroke-linecap:round;stroke-linejoin:round;stroke:rgb(57.65%,33.72%,56.47%);stroke-opacity:1;stroke-miterlimit:10;" d="M 247.75 173.55 C 247.75 172.43 246.84 171.51 245.72 171.51 C 244.6 171.51 243.69 172.43 243.69 173.55 C 243.69 174.67 244.6 175.58 245.72 175.58 C 246.84 175.58 247.75 174.67 247.75 173.55 " transform="matrix(1,0,0,1,0,0)"/>
<path style="fill-rule:nonzero;fill:rgb(40.78%,67.84%,21.18%);fill-opacity:1;stroke-width:0.35;stroke-linecap:round;stroke-linejoin:round;stroke:rgb(28.23%,47.45%,14.51%);stroke-opacity:1;stroke-miterlimit:10;" d="M 79.68 108.36 C 79.68 107.23 78.76 106.32 77.64 106.32 C 76.52 106.32 75.61 107.23 75.61 108.36 C 75.61 109.48 76.52 110.39 77.64 110.39 C 78.76 110.39 79.68 109.48 79.68 108.36 " transform="matrix(1,0,0,1,0,0)"/>
<path style="fill-rule:nonzero;fill:rgb(82.35%,48.63%,80.78%);fill-opacity:1;stroke-width:0.35;stroke-linecap:round;stroke-linejoin:round;stroke:rgb(57.65%,33.72%,56.47%);stroke-opacity:1;stroke-miterlimit:10;" d="M 248.5 157.05 C 248.5 155.93 247.59 155.02 246.47 155.02 C 245.34 155.02 244.43 155.93 244.43 157.05 C 244.43 158.18 245.34 159.09 246.47 159.09 C 247.59 159.09 248.5 158.18 248.5 157.05 " transform="matrix(1,0,0,1,0,0)"/>
<path style="fill-rule:nonzero;fill:rgb(82.35%,48.63%,80.78%);fill-opacity:1;stroke-width:0.35;stroke-linecap:round;stroke-linejoin:round;stroke:rgb(57.65%,33.72%,56.47%);stroke-opacity:1;stroke-miterlimit:10;" d="M 266.74 119.67 C 266.74 118.55 265.83 117.64 264.71 117.64 C 263.59 117.64 262.68 118.55 262.68 119.67 C 262.68 120.8 263.59 121.71 264.71 121.71 C 265.83 121.71 266.74 120.8 266.74 119.67 " transform="matrix(1,0,0,1,0,0)"/>
<path style="fill-rule:nonzero;fill:rgb(0%,71.76%,85.49%);fill-opacity:1;stroke-width:0.35;stroke-linecap:round;stroke-linejoin:round;stroke:rgb(0%,50.2%,59.61%);stroke-opacity:1;stroke-miterlimit:10;" d="M 260.64 65.17 C 260.64 64.05 259.73 63.14 258.6 63.14 C 257.48 63.14 256.57 64.05 256.57 65.17 C 256.57 66.29 257.48 67.2 258.6 67.2 C 259.73 67.2 260.64 66.29 260.64 65.17 " transform="matrix(1,0,0,1,0,0)"/>
<path style="fill-rule:nonzero;fill:rgb(0%,71.76%,85.49%);fill-opacity:1;stroke-width:0.51;stroke-linecap:round;stroke-linejoin:round;stroke:rgb(0%,50.2%,59.61%);stroke-opacity:1;stroke-miterlimit:10;" d="M 274.23 79.13 C 274.23 77.5 272.91 76.18 271.28 76.18 C 269.65 76.18 268.33 77.5 268.33 79.13 C 268.33 80.76 269.65 82.09 271.28 82.09 C 272.91 82.09 274.23 80.76 274.23 79.13 " transform="matrix(1,0,0,1,0,0)"/>
<path style="fill-rule:nonzero;fill:rgb(82.35%,48.63%,80.78%);fill-opacity:1;stroke-width:0.35;stroke-linecap:round;stroke-linejoin:round;stroke:rgb(57.65%,33.72%,56.47%);stroke-opacity:1;stroke-miterlimit:10;" d="M 272.48 162.41 C 272.48 161.29 271.57 160.38 270.45 160.38 C 269.33 160.38 268.42 161.29 268.42 162.41 C 268.42 163.54 269.33 164.44 270.45 164.44 C 271.57 164.44 272.48 163.54 272.48 162.41 " transform="matrix(1,0,0,1,0,0)"/>
<path style="fill-rule:nonzero;fill:rgb(82.35%,48.63%,80.78%);fill-opacity:1;stroke-width:0.46;stroke-linecap:round;stroke-linejoin:round;stroke:rgb(57.65%,33.72%,56.47%);stroke-opacity:1;stroke-miterlimit:10;" d="M 246.11 95.13 C 246.11 93.67 244.92 92.48 243.46 92.48 C 242 92.48 240.82 93.67 240.82 95.13 C 240.82 96.59 242 97.77 243.46 97.77 C 244.92 97.77 246.11 96.59 246.11 95.13 " transform="matrix(1,0,0,1,0,0)"/>
<path style="fill-rule:nonzero;fill:rgb(0%,71.76%,85.49%);fill-opacity:1;stroke-width:0.7;stroke-linecap:round;stroke-linejoin:round;stroke:rgb(0%,50.2%,59.61%);stroke-opacity:1;stroke-miterlimit:10;" d="M 206.75 94.23 C 206.75 92 204.95 90.2 202.72 90.2 C 200.5 90.2 198.7 92 198.7 94.23 C 198.7 96.45 200.5 98.25 202.72 98.25 C 204.95 98.25 206.75 96.45 206.75 94.23 " transform="matrix(1,0,0,1,0,0)"/>
<path style="fill-rule:nonzero;fill:rgb(82.35%,48.63%,80.78%);fill-opacity:1;stroke-width:0.51;stroke-linecap:round;stroke-linejoin:round;stroke:rgb(57.65%,33.72%,56.47%);stroke-opacity:1;stroke-miterlimit:10;" d="M 270.58 146.59 C 270.58 144.96 269.26 143.64 267.62 143.64 C 266 143.64 264.67 144.96 264.67 146.59 C 264.67 148.22 266 149.54 267.62 149.54 C 269.26 149.54 270.58 148.22 270.58 146.59 " transform="matrix(1,0,0,1,0,0)"/>
<path style="fill-rule:nonzero;fill:rgb(82.35%,48.63%,80.78%);fill-opacity:1;stroke-width:0.49;stroke-linecap:round;stroke-linejoin:round;stroke:rgb(57.65%,33.72%,56.47%);stroke-opacity:1;stroke-miterlimit:10;" d="M 173.67 153.51 C 173.67 151.96 172.42 150.71 170.87 150.71 C 169.33 150.71 168.08 151.96 168.08 153.51 C 168.08 155.05 169.33 156.31 170.87 156.31 C 172.42 156.31 173.67 155.05 173.67 153.51 " transform="matrix(1,0,0,1,0,0)"/>
<path style="fill-rule:nonzero;fill:rgb(0%,71.76%,85.49%);fill-opacity:1;stroke-width:1.17;stroke-linecap:round;stroke-linejoin:round;stroke:rgb(0%,50.2%,59.61%);stroke-opacity:1;stroke-miterlimit:10;" d="M 227.75 78.98 C 227.75 75.28 224.75 72.27 221.04 72.27 C 217.34 72.27 214.34 75.28 214.34 78.98 C 214.34 82.69 217.34 85.69 221.04 85.69 C 224.75 85.69 227.75 82.69 227.75 78.98 " transform="matrix(1,0,0,1,0,0)"/>
<path style="fill-rule:nonzero;fill:rgb(82.35%,48.63%,80.78%);fill-opacity:1;stroke-width:0.38;stroke-linecap:round;stroke-linejoin:round;stroke:rgb(57.65%,33.72%,56.47%);stroke-opacity:1;stroke-miterlimit:10;" d="M 226.44 159.51 C 226.44 158.3 225.46 157.33 224.25 157.33 C 223.05 157.33 222.07 158.3 222.07 159.51 C 222.07 160.72 223.05 161.7 224.25 161.7 C 225.46 161.7 226.44 160.72 226.44 159.51 " transform="matrix(1,0,0,1,0,0)"/>
<path style="fill-rule:nonzero;fill:rgb(82.35%,48.63%,80.78%);fill-opacity:1;stroke-width:0.35;stroke-linecap:round;stroke-linejoin:round;stroke:rgb(57.65%,33.72%,56.47%);stroke-opacity:1;stroke-miterlimit:10;" d="M 218.95 135.96 C 218.95 134.84 218.04 133.93 216.92 133.93 C 215.8 133.93 214.88 134.84 214.88 135.96 C 214.88 137.08 215.8 137.99 216.92 137.99 C 218.04 137.99 218.95 137.08 218.95 135.96 " transform="matrix(1,0,0,1,0,0)"/>
<path style="fill:none;stroke-width:2;stroke-linecap:butt;stroke-linejoin:miter;stroke:rgb(0%,0%,0%);stroke-opacity:1;stroke-miterlimit:4;" d="M 283.62 110.1 L 321.93 110.1 " transform="matrix(1,0,0,1,0,0)"/>
<path style="fill-rule:evenodd;fill:rgb(0%,0%,0%);fill-opacity:1;stroke-width:1.33;stroke-linecap:butt;stroke-linejoin:miter;stroke:rgb(0%,0%,0%);stroke-opacity:1;stroke-miterlimit:4;" d="M 327.69 110.1 L 319.06 115.09 L 319.06 105.11 Z M 327.69 110.1 " transform="matrix(1,0,0,1,0,0)"/>
<g style="fill:rgb(0%,0%,0%);fill-opacity:1;">
  <use xlink:href="#glyph0-1" x="8.76" y="107"/>
  <use xlink:href="#glyph0-2" x="20.33" y="107"/>
</g>
<g style="fill:rgb(0%,0%,0%);fill-opacity:1;">
  <use xlink:href="#glyph0-3" x="25.62" y="107"/>
  <use xlink:href="#glyph0-4" x="32.74" y="107"/>
  <use xlink:href="#glyph0-5" x="40.76" y="107"/>
</g>
<g style="fill:rgb(0%,0%,0%);fill-opacity:1;">
  <use xlink:href="#glyph0-6" x="-0.67" y="120.67"/>
</g>
<g style="fill:rgb(0%,0%,0%);fill-opacity:1;">
  <use xlink:href="#glyph0-7" x="7.91" y="120.67"/>
</g>
<g style="fill:rgb(0%,0%,0%);fill-opacity:1;">
  <use xlink:href="#glyph0-2" x="12.54" y="120.67"/>
</g>
<g style="fill:rgb(0%,0%,0%);fill-opacity:1;">
  <use xlink:href="#glyph0-8" x="18.26" y="120.67"/>
  <use xlink:href="#glyph0-9" x="26.28" y="120.67"/>
</g>
<g style="fill:rgb(0%,0%,0%);fill-opacity:1;">
  <use xlink:href="#glyph0-7" x="33.18" y="120.67"/>
</g>
<g style="fill:rgb(0%,0%,0%);fill-opacity:1;">
  <use xlink:href="#glyph0-8" x="37.83" y="120.67"/>
  <use xlink:href="#glyph0-2" x="45.84" y="120.67"/>
</g>
<g style="fill:rgb(0%,0%,0%);fill-opacity:1;">
  <use xlink:href="#glyph0-10" x="51.09" y="120.67"/>
</g>
<path style="fill:none;stroke-width:2.64;stroke-linecap:butt;stroke-linejoin:miter;stroke:rgb(100%,0%,0%);stroke-opacity:1;stroke-miterlimit:4;" d="M 147.66 8.12 L 413.82 8.12 " transform="matrix(1,0,0,1,0,0)"/>
<path style="fill-rule:evenodd;fill:rgb(100%,0%,0%);fill-opacity:1;stroke-width:1.76;stroke-linecap:butt;stroke-linejoin:miter;stroke:rgb(100%,0%,0%);stroke-opacity:1;stroke-miterlimit:4;" d="M -140.05 -8.12 L -151.46 -1.52 L -151.46 -14.72 Z M -140.05 -8.12 " transform="matrix(-1,0,0,-1,0,0)"/>
</g>
</svg>
